<?xml version="1.0" encoding="UTF-8"?>
<svg width="336px" height="76px" viewBox="0 0 336 76" version="1.1" xmlns="http://www.w3.org/2000/svg" xmlns:xlink="http://www.w3.org/1999/xlink">
    <!-- Generator: Sketch 62 (91390) - https://sketch.com -->
    <title>Background</title>
    <desc>Created with Sketch.</desc>
    <defs>
        <path d="M10.2555408,-4.14336123e-16 L289.254678,-3.8160566e-14 C291.249365,8.99614687e-15 291.934204,0.0662265973 292.695158,0.231286254 C293.456111,0.396345911 294.130346,0.660238627 294.801172,1.05557087 C295.471998,1.4509031 296.019843,1.86714402 297.48458,3.2211468 L320.977028,24.9375746 C324.627006,28.3116157 324.850697,34.0057084 321.476656,37.6556865 C321.352962,37.7894966 321.225232,37.9195192 321.093644,38.0455745 L297.495664,60.6513193 C296.032048,62.0533943 295.479332,62.4858768 294.800059,62.8971961 C294.120786,63.3085154 293.434435,63.5842163 292.659379,63.7570875 C291.884324,63.9299587 291.186018,64 289.159201,64 L10.2555408,64 C6.68946584,64 5.39632089,63.6286976 4.09261719,62.9314692 C2.78891348,62.2342408 1.76575919,61.2110865 1.06853082,59.9073828 C0.371302445,58.6036791 1.60494146e-16,57.3105342 -2.76224082e-16,53.7444592 L2.76224082e-16,10.2555408 C-1.60494146e-16,6.68946584 0.371302445,5.39632089 1.06853082,4.09261719 C1.76575919,2.78891348 2.78891348,1.76575919 4.09261719,1.06853082 C5.39632089,0.371302445 6.68946584,2.4074122e-16 10.2555408,-4.14336123e-16 Z" id="path-1"></path>
        <filter x="-3.4%" y="-10.9%" width="105.4%" height="134.4%" filterUnits="objectBoundingBox" id="filter-2">
            <feOffset dx="0" dy="4" in="SourceAlpha" result="shadowOffsetOuter1"></feOffset>
            <feGaussianBlur stdDeviation="3" in="shadowOffsetOuter1" result="shadowBlurOuter1"></feGaussianBlur>
            <feComposite in="shadowBlurOuter1" in2="SourceAlpha" operator="out" result="shadowBlurOuter1"></feComposite>
            <feColorMatrix values="0 0 0 0 0   0 0 0 0 0   0 0 0 0 0  0 0 0 0.0995957168 0" type="matrix" in="shadowBlurOuter1"></feColorMatrix>
        </filter>
    </defs>
    <g id="Symbols" stroke="none" stroke-width="1" fill="none" fill-rule="evenodd">
        <g id="radio_card_off-copy-3" transform="translate(6.000000, 2.000000)">
            <g id="BTN/MED_GREEN-Copy-9">
                <g id="Background">
                    <use fill="black" fill-opacity="1" filter="url(#filter-2)" xlink:href="#path-1"></use>
                    <path stroke="#67A495" stroke-width="2" d="M289.159201,63 L10.2555408,63 C6.97266306,63 5.76815781,62.6935311 4.56421604,62.049656 C3.43735847,61.447006 2.55299404,60.5626415 1.95034401,59.435784 C1.30646891,58.2318422 1,57.0273369 1,53.7444592 L1,10.2555408 C1,6.97266306 1.30646891,5.76815781 1.95034401,4.56421604 C2.55299404,3.43735847 3.43735847,2.55299404 4.56421604,1.95034401 C5.76815781,1.30646891 6.97266306,1 10.2555408,1 L289.254678,1 C291.125413,1 291.769108,1.05367016 292.483176,1.20855982 C293.137273,1.35044126 293.716831,1.5772773 294.293457,1.9170957 C294.92295,2.2880699 295.432059,2.68560172 296.805775,3.95546569 L320.298223,25.6718934 C321.920435,27.1714673 322.781251,29.1866081 322.86162,31.2324087 C322.941988,33.2782092 322.241911,35.3546694 320.742337,36.9768819 L296.803902,59.9291937 C295.432131,61.2432855 294.919116,61.6560594 294.28209,62.0417966 C293.698099,62.3954199 293.108023,62.6324481 292.441685,62.7810705 C291.714834,62.9431899 291.058831,63 289.159201,63 Z" stroke-linejoin="square" fill="#FFFFFF" fill-rule="evenodd"></path>
                </g>
            </g>
        </g>
    </g>
</svg>