<?xml version="1.0" encoding="UTF-8"?>
<svg width="73px" height="77px" viewBox="0 0 73 77" version="1.1" xmlns="http://www.w3.org/2000/svg" xmlns:xlink="http://www.w3.org/1999/xlink">
    <!-- Generator: Sketch 62 (91390) - https://sketch.com -->
    <title>Fill 1</title>
    <desc>Created with Sketch.</desc>
    <g id="Symbols" stroke="none" stroke-width="1" fill="none" fill-rule="evenodd">
        <g id="Fill-1" fill="#FEFEFE">
            <path d="M36.3465116,48.821 C30.4285116,48.821 25.6305116,44.023 25.6305116,38.104 C25.6305116,32.186 30.4285116,27.388 36.3465116,27.388 C42.2645116,27.388 47.0625116,32.186 47.0625116,38.104 C47.0625116,44.023 42.2645116,48.821 36.3465116,48.821 M70.8915116,47.261 L63.4985116,42.993 C63.7835116,41.406 63.9395116,39.774 63.9395116,38.104 C63.9395116,36.435 63.7835116,34.803 63.4985116,33.217 L70.8915116,28.948 C72.6105116,27.955 73.2055116,25.737 72.2125116,24.018 L66.4795116,14.087 C65.4865116,12.368 63.2685116,11.773 61.5495116,12.766 L54.1555116,17.035 C51.6705116,14.933 48.8115116,13.26 45.6895116,12.137 L45.6895116,3.609 C45.6895116,1.624 44.0655116,2.84217094e-14 42.0805116,2.84217094e-14 L30.6135116,2.84217094e-14 C28.6285116,2.84217094e-14 27.0045116,1.624 27.0045116,3.609 L27.0045116,12.137 C23.8815116,13.26 21.0225116,14.933 18.5375116,17.035 L11.1435116,12.766 C9.42451162,11.773 7.20651162,12.368 6.21451162,14.087 L0.480511618,24.018 C-0.511488382,25.737 0.0825116176,27.955 1.80151162,28.948 L9.19451162,33.217 C8.91051162,34.803 8.75351162,36.435 8.75351162,38.104 C8.75351162,39.774 8.91051162,41.406 9.19451162,42.993 L1.80151162,47.261 C0.0825116176,48.254 -0.511488382,50.472 0.480511618,52.191 L6.21451162,62.123 C7.20651162,63.842 9.42451162,64.435 11.1435116,63.443 L18.5375116,59.175 C21.0225116,61.276 23.8815116,62.949 27.0045116,64.072 L27.0045116,72.6 C27.0045116,74.585 28.6285116,76.209 30.6135116,76.209 L42.0805116,76.209 C44.0655116,76.209 45.6895116,74.585 45.6895116,72.6 L45.6895116,64.072 C48.8115116,62.949 51.6705116,61.276 54.1555116,59.175 L61.5495116,63.443 C63.2685116,64.435 65.4865116,63.842 66.4795116,62.123 L72.2125116,52.191 C73.2055116,50.472 72.6105116,48.254 70.8915116,47.261"></path>
        </g>
    </g>
</svg>