<?xml version="1.0" encoding="UTF-8"?>
<svg width="60px" height="60px" viewBox="0 0 60 60" version="1.1" xmlns="http://www.w3.org/2000/svg" xmlns:xlink="http://www.w3.org/1999/xlink">
    <!-- Generator: Sketch 62 (91390) - https://sketch.com -->
    <title>dash_icon</title>
    <desc>Created with Sketch.</desc>
    <defs>
        <polygon id="path-1" points="0.7921 0.4277 25.684 0.4277 25.684 2.4277 0.7921 2.4277"></polygon>
    </defs>
    <g id="dash_icon" stroke="none" stroke-width="1" fill="none" fill-rule="evenodd">
        <g id="Group-10" transform="translate(2.000000, 13.000000)">
            <path d="M6.6607,17.8643 C5.4037,17.8643 4.3257,18.7183 4.0387,19.9433 L2.0727,28.3363 C1.8837,29.1403 2.0707,29.9743 2.5847,30.6233 C3.0977,31.2703 3.8667,31.6423 4.6937,31.6423 L18.3897,31.6423 C19.2177,31.6423 19.9857,31.2703 20.4997,30.6233 C21.0137,29.9743 21.2007,29.1403 21.0117,28.3363 L19.0447,19.9433 C18.7587,18.7183 17.6807,17.8643 16.4237,17.8643 L6.6607,17.8643 Z M18.3897,33.6423 L4.6937,33.6423 C3.2527,33.6423 1.9127,32.9953 1.0167,31.8653 C0.1217,30.7353 -0.2033,29.2833 0.1257,27.8793 L2.0917,19.4863 C2.5917,17.3533 4.4707,15.8643 6.6607,15.8643 L16.4237,15.8643 C18.6137,15.8643 20.4927,17.3533 20.9927,19.4863 L22.9587,27.8793 C23.2877,29.2833 22.9627,30.7353 22.0667,31.8653 C21.1717,32.9953 19.8317,33.6423 18.3897,33.6423 L18.3897,33.6423 Z" id="Fill-1" fill="#67A495"></path>
            <path d="M11.542,2 C9.251,2 7.387,3.864 7.387,6.155 C7.387,8.471 9.251,10.335 11.542,10.335 C13.833,10.335 15.697,8.471 15.697,6.18 L15.697,6.155 C15.697,3.864 13.833,2 11.542,2 M11.542,12.335 C8.148,12.335 5.387,9.573 5.387,6.18 C5.387,2.762 8.148,0 11.542,0 C14.936,0 17.697,2.762 17.697,6.155 L17.697,6.18 C17.697,9.573 14.936,12.335 11.542,12.335" id="Fill-3" fill="#67A495"></path>
            <path d="M36.2559,22.6231 L38.7069,22.6231 L51.8059,9.5231 L49.3559,7.0721 L36.2559,20.1721 L36.2559,22.6231 Z M39.1209,24.6231 L35.2559,24.6231 C34.7039,24.6231 34.2559,24.1761 34.2559,23.6231 L34.2559,19.7581 C34.2559,19.4921 34.3609,19.2381 34.5489,19.0511 L48.6489,4.9511 C48.8359,4.7641 49.0899,4.6581 49.3559,4.6581 C49.6209,4.6581 49.8749,4.7641 50.0629,4.9511 L53.9269,8.8161 C54.3179,9.2071 54.3179,9.8401 53.9269,10.2301 L39.8279,24.3301 C39.6399,24.5181 39.3859,24.6231 39.1209,24.6231 L39.1209,24.6231 Z" id="Fill-5" fill="#67A495"></path>
            <g id="Group-9" transform="translate(31.000000, 26.642600)">
                <mask id="mask-2" fill="white">
                    <use xlink:href="#path-1"></use>
                </mask>
                <g id="Clip-8"></g>
                <path d="M24.6841,2.4277 L1.7921,2.4277 C1.2401,2.4277 0.7921,1.9807 0.7921,1.4277 C0.7921,0.8747 1.2401,0.4277 1.7921,0.4277 L24.6841,0.4277 C25.2361,0.4277 25.6841,0.8747 25.6841,1.4277 C25.6841,1.9807 25.2361,2.4277 24.6841,2.4277" id="Fill-7" fill="#67A495" mask="url(#mask-2)"></path>
            </g>
        </g>
    </g>
</svg>