<?xml version="1.0" encoding="UTF-8"?>
<svg width="60px" height="60px" viewBox="0 0 60 60" version="1.1" xmlns="http://www.w3.org/2000/svg" xmlns:xlink="http://www.w3.org/1999/xlink">
    <!-- Generator: Sketch 62 (91390) - https://sketch.com -->
    <title>dash_icon copy 4</title>
    <desc>Created with Sketch.</desc>
    <defs>
        <polygon id="path-1" points="0.3398 0.55 12.6498 0.55 12.6498 30.2568 0.3398 30.2568"></polygon>
        <polygon id="path-3" points="0 0.0253482113 2.83675681 0.0253482113 2.83675681 16.2871 0 16.2871"></polygon>
    </defs>
    <g id="dash_icon-copy-4" stroke="none" stroke-width="1" fill="none" fill-rule="evenodd">
        <g id="Group-21" transform="translate(7.000000, 9.000000)">
            <g id="Group-3" transform="translate(17.000000, 0.450200)">
                <mask id="mask-2" fill="white">
                    <use xlink:href="#path-1"></use>
                </mask>
                <g id="Clip-2"></g>
                <path d="M6.4948,30.2568 C3.1008,30.2568 0.3398,27.4948 0.3398,24.1018 L0.3398,1.5498 C0.3398,0.9968 0.7868,0.5498 1.3398,0.5498 C1.8918,0.5498 2.3398,0.9968 2.3398,1.5498 L2.3398,24.1018 C2.3398,26.3928 4.2038,28.2568 6.4948,28.2568 C8.7858,28.2568 10.6498,26.3928 10.6498,24.1018 L10.6498,1.5498 C10.6498,0.9968 11.0978,0.5498 11.6498,0.5498 C12.2028,0.5498 12.6498,0.9968 12.6498,1.5498 L12.6498,24.1018 C12.6498,27.4948 9.8888,30.2568 6.4948,30.2568" id="Fill-1" fill="#67A495" mask="url(#mask-2)"></path>
            </g>
            <path d="M23.4948,41.4502 C22.9428,41.4502 22.4948,41.0032 22.4948,40.4502 L22.4948,30.4692 C22.4948,29.9162 22.9428,29.4692 23.4948,29.4692 C24.0468,29.4692 24.4948,29.9162 24.4948,30.4692 L24.4948,40.4502 C24.4948,41.0032 24.0468,41.4502 23.4948,41.4502" id="Fill-4" fill="#67A495"></path>
            <path d="M27.8366,41.4502 L19.1526,41.4502 C18.6006,41.4502 18.1526,41.0032 18.1526,40.4502 C18.1526,39.8972 18.6006,39.4502 19.1526,39.4502 L27.8366,39.4502 C28.3886,39.4502 28.8366,39.8972 28.8366,40.4502 C28.8366,41.0032 28.3886,41.4502 27.8366,41.4502" id="Fill-6" fill="#67A495"></path>
            <g id="Group-10" transform="translate(0.000000, 7.450200)">
                <mask id="mask-4" fill="white">
                    <use xlink:href="#path-3"></use>
                </mask>
                <g id="Clip-9"></g>
                <path d="M1.7878,16.2871 C1.3318,16.2871 0.9198,15.9741 0.8138,15.5101 C0.2658,13.1071 -0.0082,10.6311 -0.0002,8.1491 C0.0088,5.6681 0.2988,3.1931 0.8628,0.7951 C0.9898,0.2571 1.5268,-0.0719 2.0658,0.0511 C2.6028,0.1781 2.9368,0.7161 2.8098,1.2541 C2.2808,3.5041 2.0078,5.8261 1.9998,8.1551 C1.9928,10.4861 2.2488,12.8101 2.7638,15.0641 C2.8868,15.6021 2.5498,16.1391 2.0118,16.2621 C1.9358,16.2791 1.8618,16.2871 1.7878,16.2871" id="Fill-8" fill="#67A495" mask="url(#mask-4)"></path>
            </g>
            <path d="M4.9675,21.7324 C4.4925,21.7324 4.0715,21.3924 3.9845,20.9094 C3.6735,19.1744 3.5195,17.3924 3.5255,15.6124 C3.5305,13.8164 3.7005,12.0174 4.0305,10.2654 C4.1325,9.7224 4.6535,9.3634 5.1975,9.4674 C5.7405,9.5694 6.0975,10.0914 5.9955,10.6344 C5.6895,12.2674 5.5305,13.9444 5.5255,15.6184 C5.5195,17.2794 5.6635,18.9404 5.9525,20.5554 C6.0505,21.0994 5.6885,21.6194 5.1445,21.7164 C5.0855,21.7274 5.0255,21.7324 4.9675,21.7324" id="Fill-11" fill="#67A495"></path>
            <path d="M8.1379,19.4844 C7.6359,19.4844 7.2019,19.1064 7.1459,18.5944 C7.0359,17.6164 6.9829,16.6164 6.9869,15.6234 C6.9899,14.6484 7.0479,13.6634 7.1599,12.6964 C7.2229,12.1474 7.7249,11.7514 8.2679,11.8184 C8.8169,11.8814 9.2099,12.3784 9.1459,12.9264 C9.0429,13.8194 8.9899,14.7284 8.9869,15.6304 C8.9829,16.5474 9.0329,17.4704 9.1329,18.3744 C9.1949,18.9224 8.7989,19.4174 8.2499,19.4784 C8.2129,19.4824 8.1749,19.4844 8.1379,19.4844" id="Fill-13" fill="#67A495"></path>
            <path d="M45.154,23.7227 C45.078,23.7227 45.001,23.7137 44.924,23.6967 C44.386,23.5697 44.053,23.0317 44.179,22.4937 C44.709,20.2437 44.982,17.9217 44.989,15.5907 C44.997,13.2587 44.74,10.9347 44.226,8.6827 C44.103,8.1447 44.44,7.6087 44.978,7.4857 C45.516,7.3617 46.053,7.6987 46.176,8.2377 C46.724,10.6367 46.998,13.1137 46.989,15.5967 C46.981,18.0797 46.691,20.5547 46.127,22.9517 C46.018,23.4117 45.607,23.7227 45.154,23.7227" id="Fill-15" fill="#67A495"></path>
            <path d="M41.9782,21.7471 C41.9172,21.7471 41.8552,21.7411 41.7922,21.7291 C41.2502,21.6281 40.8932,21.1051 40.9942,20.5621 C41.3012,18.9291 41.4592,17.2521 41.4642,15.5791 C41.4702,13.9191 41.3262,12.2581 41.0372,10.6411 C40.9402,10.0981 41.3022,9.5781 41.8452,9.4801 C42.3952,9.3831 42.9092,9.7461 43.0062,10.2891 C43.3162,12.0231 43.4702,13.8061 43.4642,15.5851 C43.4582,17.3801 43.2892,19.1791 42.9602,20.9321 C42.8702,21.4121 42.4502,21.7471 41.9782,21.7471" id="Fill-17" fill="#67A495"></path>
            <path d="M38.8381,19.3857 C38.7991,19.3857 38.7611,19.3837 38.7221,19.3787 C38.1731,19.3157 37.7801,18.8197 37.8431,18.2707 C37.9461,17.3797 38.0001,16.4697 38.0041,15.5667 C38.0061,14.6497 37.9571,13.7257 37.8571,12.8237 C37.7961,12.2747 38.1921,11.7807 38.7401,11.7187 C39.2861,11.6667 39.7831,12.0527 39.8451,12.6027 C39.9531,13.5797 40.0061,14.5797 40.0041,15.5727 C40.0001,16.5507 39.9421,17.5357 39.8301,18.5007 C39.7711,19.0107 39.3381,19.3857 38.8381,19.3857" id="Fill-19" fill="#67A495"></path>
        </g>
    </g>
</svg>