<?xml version="1.0" encoding="UTF-8"?>
<svg width="60px" height="60px" viewBox="0 0 60 60" version="1.1" xmlns="http://www.w3.org/2000/svg" xmlns:xlink="http://www.w3.org/1999/xlink">
    <!-- Generator: Sketch 62 (91390) - https://sketch.com -->
    <title>dash_icon copy 3</title>
    <desc>Created with Sketch.</desc>
    <defs>
        <polygon id="path-1" points="0.2682 0.879 12.5792 0.879 12.5792 27.7099 0.2682 27.7099"></polygon>
        <polygon id="path-3" points="0 0.115239256 2.16752052 0.115239256 2.16752052 7.7881 0 7.7881"></polygon>
    </defs>
    <g id="dash_icon-copy-3" stroke="none" stroke-width="1" fill="none" fill-rule="evenodd">
        <g id="Group-17" transform="translate(12.000000, 9.000000)">
            <g id="Group-3" transform="translate(21.000000, 0.121100)">
                <mask id="mask-2" fill="white">
                    <use xlink:href="#path-1"></use>
                </mask>
                <g id="Clip-2"></g>
                <path d="M6.4232,2.8789 C4.1322,2.8789 2.2682,4.7429 2.2682,7.0339 L2.2682,21.5549 C2.2682,23.8459 4.1322,25.7099 6.4232,25.7099 C8.7152,25.7099 10.5792,23.8459 10.5792,21.5549 L10.5792,7.0339 C10.5792,4.7429 8.7152,2.8789 6.4232,2.8789 M6.4232,27.7099 C3.0292,27.7099 0.2682,24.9479 0.2682,21.5549 L0.2682,7.0339 C0.2682,3.6409 3.0292,0.8789 6.4232,0.8789 C9.8182,0.8789 12.5792,3.6409 12.5792,7.0339 L12.5792,21.5549 C12.5792,24.9479 9.8182,27.7099 6.4232,27.7099" id="Fill-1" fill="#67A495" mask="url(#mask-2)"></path>
            </g>
            <path d="M27.4232,31.5947 C22.1482,31.5947 17.8562,27.3027 17.8562,22.0277 L17.8562,20.8747 C17.8562,20.3227 18.3042,19.8747 18.8562,19.8747 C19.4082,19.8747 19.8562,20.3227 19.8562,20.8747 L19.8562,22.0277 C19.8562,26.1997 23.2512,29.5947 27.4232,29.5947 C31.5962,29.5947 34.9902,26.1997 34.9902,22.0277 L34.9902,20.8747 C34.9902,20.3227 35.4382,19.8747 35.9902,19.8747 C36.5432,19.8747 36.9902,20.3227 36.9902,20.8747 L36.9902,22.0277 C36.9902,27.3027 32.6982,31.5947 27.4232,31.5947" id="Fill-4" fill="#67A495"></path>
            <path d="M27.4232,41.1211 C26.8712,41.1211 26.4232,40.6741 26.4232,40.1211 L26.4232,34.2141 C26.4232,33.6611 26.8712,33.2141 27.4232,33.2141 C27.9752,33.2141 28.4232,33.6611 28.4232,34.2141 L28.4232,40.1211 C28.4232,40.6741 27.9752,41.1211 27.4232,41.1211" id="Fill-6" fill="#67A495"></path>
            <path d="M31.7655,41.1211 L23.0815,41.1211 C22.5295,41.1211 22.0815,40.6741 22.0815,40.1211 C22.0815,39.5681 22.5295,39.1211 23.0815,39.1211 L31.7655,39.1211 C32.3175,39.1211 32.7655,39.5681 32.7655,40.1211 C32.7655,40.6741 32.3175,41.1211 31.7655,41.1211" id="Fill-8" fill="#67A495"></path>
            <path d="M7.3173,24.2461 C7.2413,24.2461 7.1643,24.2371 7.0873,24.2201 C6.5493,24.0931 6.2163,23.5551 6.3433,23.0171 C6.8723,20.7681 7.1453,18.4461 7.1523,16.1151 C7.1603,13.7831 6.9033,11.4581 6.3893,9.2061 C6.2673,8.6681 6.6033,8.1321 7.1423,8.0091 C7.6833,7.8841 8.2163,8.2221 8.3393,8.7611 C8.8873,11.1611 9.1613,13.6381 9.1523,16.1211 C9.1443,18.6051 8.8543,21.0791 8.2893,23.4751 C8.1813,23.9351 7.7703,24.2461 7.3173,24.2461" id="Fill-10" fill="#67A495"></path>
            <path d="M4.1415,22.2705 C4.0805,22.2705 4.0185,22.2645 3.9555,22.2525 C3.4125,22.1515 3.0555,21.6285 3.1575,21.0855 C3.4635,19.4565 3.6225,17.7795 3.6285,16.1015 C3.6335,14.4445 3.4905,12.7825 3.2005,11.1645 C3.1035,10.6215 3.4655,10.1015 4.0085,10.0035 C4.5585,9.9055 5.0725,10.2695 5.1695,10.8125 C5.4795,12.5485 5.6345,14.3315 5.6285,16.1085 C5.6215,17.9075 5.4525,19.7065 5.1235,21.4555 C5.0335,21.9355 4.6135,22.2705 4.1415,22.2705" id="Fill-12" fill="#67A495"></path>
            <g id="Group-16" transform="translate(0.000000, 12.121100)">
                <mask id="mask-4" fill="white">
                    <use xlink:href="#path-3"></use>
                </mask>
                <g id="Clip-15"></g>
                <path d="M1.0014,7.7881 C0.9624,7.7881 0.9244,7.7861 0.8854,7.7811 C0.3364,7.7181 -0.0566,7.2221 0.0064,6.6731 C0.1094,5.7821 0.1634,4.8721 0.1674,3.9691 C0.1704,3.0521 0.1214,2.1291 0.0204,1.2261 C-0.0406,0.6771 0.3544,0.1831 0.9034,0.1211 C1.4464,0.0621 1.9464,0.4551 2.0074,1.0051 C2.1174,1.9831 2.1704,2.9831 2.1674,3.9761 C2.1634,4.9531 2.1054,5.9381 1.9934,6.9031 C1.9344,7.4131 1.5014,7.7881 1.0014,7.7881" id="Fill-14" fill="#67A495" mask="url(#mask-4)"></path>
            </g>
        </g>
    </g>
</svg>