<?xml version="1.0" encoding="UTF-8"?>
<svg width="60px" height="60px" viewBox="0 0 60 60" version="1.1" xmlns="http://www.w3.org/2000/svg" xmlns:xlink="http://www.w3.org/1999/xlink">
    <!-- Generator: Sketch 62 (91390) - https://sketch.com -->
    <title>dash_icon copy</title>
    <desc>Created with Sketch.</desc>
    <defs>
        <polygon id="path-1" points="0.4092 0.8057 24.067 0.8057 24.067 2.8057 0.4092 2.8057"></polygon>
    </defs>
    <g id="dash_icon-copy" stroke="none" stroke-width="1" fill="none" fill-rule="evenodd">
        <g id="Group-10" transform="translate(2.000000, 13.000000)">
            <path d="M6.6605,17.8653 C5.4045,17.8653 4.3265,18.7193 4.0385,19.9433 L2.0725,28.3373 C1.8845,29.1413 2.0705,29.9743 2.5835,30.6233 C3.0975,31.2703 3.8675,31.6423 4.6945,31.6423 L18.3895,31.6423 C19.2175,31.6423 19.9865,31.2703 20.5005,30.6233 C21.0145,29.9743 21.2005,29.1413 21.0115,28.3373 L19.0445,19.9433 C18.7585,18.7193 17.6805,17.8653 16.4235,17.8653 L6.6605,17.8653 Z M18.3895,33.6423 L4.6945,33.6423 C3.2525,33.6423 1.9115,32.9953 1.0165,31.8653 C0.1215,30.7353 -0.2035,29.2833 0.1255,27.8803 L2.0915,19.4863 C2.5925,17.3543 4.4705,15.8653 6.6605,15.8653 L16.4235,15.8653 C18.6135,15.8653 20.4925,17.3543 20.9925,19.4863 L22.9585,27.8803 C23.2875,29.2833 22.9625,30.7353 22.0675,31.8653 C21.1725,32.9953 19.8315,33.6423 18.3895,33.6423 L18.3895,33.6423 Z" id="Fill-1" fill="#67A495"></path>
            <path d="M11.5418,2 C9.2508,2 7.3868,3.864 7.3868,6.155 C7.3868,8.471 9.2508,10.335 11.5418,10.335 C13.8328,10.335 15.6968,8.471 15.6968,6.18 L15.6968,6.155 C15.6968,3.864 13.8328,2 11.5418,2 M11.5418,12.335 C8.1478,12.335 5.3868,9.573 5.3868,6.18 C5.3868,2.762 8.1478,0 11.5418,0 C14.9358,0 17.6968,2.762 17.6968,6.155 L17.6968,6.18 C17.6968,9.573 14.9358,12.335 11.5418,12.335" id="Fill-3" fill="#67A495"></path>
            <path d="M44.2381,27.2774 C43.6861,27.2774 43.2381,26.8304 43.2381,26.2774 L43.2381,4.6194 C43.2381,4.0664 43.6861,3.6194 44.2381,3.6194 C44.7901,3.6194 45.2381,4.0664 45.2381,4.6194 L45.2381,26.2774 C45.2381,26.8304 44.7901,27.2774 44.2381,27.2774" id="Fill-5" fill="#67A495"></path>
            <g id="Group-9" transform="translate(32.000000, 13.642600)">
                <mask id="mask-2" fill="white">
                    <use xlink:href="#path-1"></use>
                </mask>
                <g id="Clip-8"></g>
                <path d="M23.0672,2.8057 L1.4092,2.8057 C0.8572,2.8057 0.4092,2.3587 0.4092,1.8057 C0.4092,1.2527 0.8572,0.8057 1.4092,0.8057 L23.0672,0.8057 C23.6192,0.8057 24.0672,1.2527 24.0672,1.8057 C24.0672,2.3587 23.6192,2.8057 23.0672,2.8057" id="Fill-7" fill="#67A495" mask="url(#mask-2)"></path>
            </g>
        </g>
    </g>
</svg>