<?xml version="1.0" encoding="UTF-8"?>
<svg width="60px" height="60px" viewBox="0 0 60 60" version="1.1" xmlns="http://www.w3.org/2000/svg" xmlns:xlink="http://www.w3.org/1999/xlink">
    <!-- Generator: Sketch 62 (91390) - https://sketch.com -->
    <title>dash_icon copy 2</title>
    <desc>Created with Sketch.</desc>
    <defs>
        <polygon id="path-1" points="7.35752607e-06 0.671 24.12 0.671 24.12 39 7.35752607e-06 39"></polygon>
    </defs>
    <g id="dash_icon-copy-2" stroke="none" stroke-width="1" fill="none" fill-rule="evenodd">
        <g id="Group-6" transform="translate(18.000000, 10.000000)">
            <g id="Group-3" transform="translate(0.000000, 0.329100)">
                <mask id="mask-2" fill="white">
                    <use xlink:href="#path-1"></use>
                </mask>
                <g id="Clip-2"></g>
                <path d="M13.6726,39 C12.8696,39 12.0576,38.854 11.2806,38.554 C8.7736,37.581 7.2796,35.256 7.2846,32.333 C7.2926,27.882 4.3966,23.333 2.4796,20.323 C1.8306,19.303 1.3176,18.497 1.0326,17.876 C-0.6294,14.248 -0.2624,9.657 1.9696,6.18 C4.2496,2.627 8.1896,0.671 13.0636,0.671 C16.5416,0.671 19.2756,1.756 21.1886,3.896 C24.7296,7.86 24.0866,13.964 24.0566,14.222 C23.9946,14.771 23.5026,15.155 22.9526,15.103 C22.4036,15.041 22.0086,14.547 22.0696,13.999 C22.0756,13.944 22.6346,8.509 19.6896,5.222 C18.1726,3.529 15.9436,2.671 13.0636,2.671 C7.7196,2.671 4.9966,5.166 3.6526,7.26 C1.8086,10.134 1.4856,14.065 2.8506,17.042 C3.0786,17.539 3.5826,18.331 4.1676,19.249 C6.2086,22.456 9.2936,27.301 9.2846,32.337 C9.2816,34.431 10.2726,36.017 12.0036,36.688 C13.7486,37.367 15.7396,36.923 16.9566,35.587 C18.8806,33.474 19.7986,31.425 19.6876,29.497 C19.6236,28.377 18.8456,27.714 18.1396,27.468 C17.3026,27.175 16.4616,27.383 15.8876,28.024 C15.3346,28.657 14.3236,29.25 13.1586,29.017 C11.4456,28.668 10.0276,26.718 8.8246,23.053 C8.5536,22.227 8.1466,21.391 7.6156,20.571 C4.6866,16.05 4.0056,11.772 5.7466,8.835 C7.3236,6.175 10.7076,4.896 15.2606,5.236 C15.8116,5.277 16.2246,5.757 16.1836,6.308 C16.1426,6.858 15.6596,7.267 15.1116,7.23 C11.3486,6.953 8.6356,7.882 7.4666,9.855 C6.1276,12.114 6.7936,15.624 9.2946,19.483 C9.9186,20.448 10.4006,21.439 10.7256,22.429 C12.0476,26.458 13.2276,26.99 13.5576,27.057 C13.9846,27.148 14.3466,26.749 14.3866,26.703 C15.5126,25.446 17.1996,25.021 18.7996,25.579 C20.4516,26.157 21.5846,27.649 21.6846,29.382 C21.8286,31.867 20.7346,34.407 18.4356,36.933 C17.2146,38.274 15.4646,39 13.6726,39" id="Fill-1" fill="#67A495" mask="url(#mask-2)"></path>
            </g>
            <path d="M19.9519,23.9707 C19.6399,23.9707 19.3329,23.8247 19.1379,23.5517 C17.0919,20.6907 18.2689,17.8327 19.1769,16.7227 C19.5259,16.2937 20.1569,16.2327 20.5839,16.5807 C21.0099,16.9297 21.0739,17.5557 20.7299,17.9837 C20.5619,18.1947 19.1389,20.1147 20.7639,22.3897 C21.0859,22.8387 20.9819,23.4627 20.5329,23.7837 C20.3559,23.9097 20.1529,23.9707 19.9519,23.9707" id="Fill-4" fill="#67A495"></path>
        </g>
    </g>
</svg>