<?xml version="1.0" encoding="UTF-8"?>
<svg width="87px" height="63px" viewBox="0 0 87 63" version="1.1" xmlns="http://www.w3.org/2000/svg" xmlns:xlink="http://www.w3.org/1999/xlink">
    <!-- Generator: Sketch 62 (91390) - https://sketch.com -->
    <title>Group</title>
    <desc>Created with Sketch.</desc>
    <defs>
        <path d="M34.5888639,-6.17945044e-15 L67.180574,5.17920154e-16 C71.6381677,-3.00926524e-16 73.2545989,0.464128056 74.8842285,1.33566352 C76.5138581,2.20719898 77.792801,3.48614185 78.6643365,5.11577148 C79.5358719,6.74540111 80,8.3618323 80,12.819426 L80,38.180574 C80,42.6381677 79.5358719,44.2545989 78.6643365,45.8842285 C77.792801,47.5138581 76.5138581,48.792801 74.8842285,49.6643365 C73.2545989,50.5358719 71.6381677,51 67.180574,51 L34.5888639,51 C32.1437985,51 31.3080308,50.922776 30.3782043,50.7279253 C29.4483779,50.5330745 28.62409,50.220597 27.7987615,49.75009 C26.973433,49.2795829 26.2965022,48.7833613 24.4658848,47.1625021 L8.45589197,32.9869877 C4.32094285,29.3258348 3.9368551,23.0058454 7.59800796,18.8708963 C7.86634289,18.5678357 8.15283134,18.2813473 8.45589197,18.0130123 L24.4658848,3.83749787 C26.2965022,2.21663868 26.973433,1.72041709 27.7987615,1.24991003 C28.62409,0.779402961 29.4483779,0.466925455 30.3782043,0.272074714 C31.3080308,0.0772239741 32.1437985,1.38274535e-15 34.5888639,-6.17945044e-15 Z" id="path-1"></path>
        <filter x="-7.4%" y="-13.7%" width="121.1%" height="143.1%" filterUnits="objectBoundingBox" id="filter-2">
            <feOffset dx="0" dy="4" in="SourceAlpha" result="shadowOffsetOuter1"></feOffset>
            <feGaussianBlur stdDeviation="3" in="shadowOffsetOuter1" result="shadowBlurOuter1"></feGaussianBlur>
            <feComposite in="shadowBlurOuter1" in2="SourceAlpha" operator="out" result="shadowBlurOuter1"></feComposite>
            <feColorMatrix values="0 0 0 0 0   0 0 0 0 0   0 0 0 0 0  0 0 0 0.0995957168 0" type="matrix" in="shadowBlurOuter1"></feColorMatrix>
        </filter>
    </defs>
    <g id="Symbols" stroke="none" stroke-width="1" fill="none" fill-rule="evenodd">
        <g id="BTN/MED_GREEN-Copy" transform="translate(1.000000, 2.000000)">
            <g id="Group">
                <g id="Background">
                    <use fill="black" fill-opacity="1" filter="url(#filter-2)" xlink:href="#path-1"></use>
                    <path stroke="#67A495" stroke-width="2" d="M74.4126297,48.7825233 C72.882762,49.6007055 71.3549705,50 67.180574,50 L34.5888639,50 C32.2638588,50 31.46784,49.9345441 30.5833054,49.7491845 C29.7580737,49.5762522 29.0265086,49.2989248 28.29402,48.8813443 C27.5088933,48.4337556 26.8695236,47.9550733 25.1287951,46.4138034 L9.11880233,32.2382889 C7.25807523,30.5907701 6.24129194,28.3450131 6.10157011,26.045954 C5.96184829,23.746895 6.69918794,21.3945338 8.34670673,19.5338067 C8.58820817,19.2610521 8.84604777,19.0032125 9.11880233,18.7617111 L25.1287951,4.58619664 C26.8695236,3.04492666 27.5088933,2.56624436 28.29402,2.11865567 C29.0265086,1.70107521 29.7580737,1.4237478 30.5833054,1.25081552 C31.46784,1.06545595 32.2638588,1 34.5888639,1 L67.180574,1 C71.3549705,1 72.882762,1.39929452 74.4126297,2.21747672 C75.8654132,2.99443384 77.0055662,4.13458684 77.7825233,5.58737034 C78.6007055,7.11723804 79,8.64502952 79,12.819426 L79,38.180574 C79,42.3549705 78.6007055,43.882762 77.7825233,45.4126297 C77.0055662,46.8654132 75.8654132,48.0055662 74.4126297,48.7825233 Z" stroke-linejoin="square" fill="#FFFFFF" fill-rule="evenodd"></path>
                </g>
                <path d="M39.1455078,32 C40.2998047,32 41.3237305,31.7509766 42.2172852,31.2529297 C43.1108398,30.7548828 43.7993164,30.0458984 44.2827148,29.1259766 C44.7661133,28.2060547 45.0078125,27.1396484 45.0078125,25.9267578 L45.0078125,25.9267578 L45.0078125,25.2851562 C45.0078125,24.0898438 44.7675781,23.0292969 44.2871094,22.1035156 C43.8066406,21.1777344 43.128418,20.4628906 42.2524414,19.9589844 C41.3764648,19.4550781 40.3730469,19.203125 39.2421875,19.203125 L39.2421875,19.203125 L35.4628906,19.203125 L35.4628906,32 L39.1455078,32 Z M39.1367188,30.2246094 L37.6865234,30.2246094 L37.6865234,20.9960938 L39.2421875,20.9960938 C40.390625,20.9960938 41.2666016,21.3623047 41.8701172,22.0947266 C42.4736328,22.8271484 42.7753906,23.8876953 42.7753906,25.2763672 L42.7753906,25.2763672 L42.7753906,25.9882812 C42.7636719,27.3535156 42.4458008,28.4008789 41.8217773,29.1303711 C41.1977539,29.8598633 40.3027344,30.2246094 39.1367188,30.2246094 L39.1367188,30.2246094 Z M55.5898438,32 L55.5898438,30.2246094 L49.4462891,30.2246094 L49.4462891,26.2871094 L54.7021484,26.2871094 L54.7021484,24.5292969 L49.4462891,24.5292969 L49.4462891,20.9960938 L55.5283203,20.9960938 L55.5283203,19.203125 L47.2226562,19.203125 L47.2226562,32 L55.5898438,32 Z M65.4335938,32 L65.4335938,30.2246094 L59.6240234,30.2246094 L59.6240234,19.203125 L57.4003906,19.203125 L57.4003906,32 L65.4335938,32 Z" id="DEL" fill="#67A495" fill-rule="nonzero"></path>
            </g>
        </g>
    </g>
</svg>