<?xml version="1.0" encoding="UTF-8"?>
<svg width="26px" height="21px" viewBox="0 0 26 21" version="1.1" xmlns="http://www.w3.org/2000/svg" xmlns:xlink="http://www.w3.org/1999/xlink">
    <!-- Generator: Sketch 62 (91390) - https://sketch.com -->
    <title>Icon</title>
    <desc>Created with Sketch.</desc>
    <defs>
        <path d="M7.09090909,18.2697949 L7.09090909,20.4449935 C7.09090909,20.571015 7.04524319,20.6932843 6.96142248,20.7916905 C6.7575532,21.0310349 6.38569862,21.0698403 6.13086202,20.8783648 L1.75859628,17.593194 C1.72452168,17.5675915 1.69357146,17.5385229 1.66631178,17.5065198 C1.46244251,17.2671754 1.50375968,16.9179269 1.75859628,16.7264514 L6.13086202,13.4412806 C6.23563791,13.3625556 6.36582139,13.3196658 6.5,13.3196658 C6.82635008,13.3196658 7.09090909,13.5681416 7.09090909,13.8746519 L7.09090909,16.0498505 L17.7272727,16.0498505 C20.9907735,16.0498505 23.6363636,13.5650932 23.6363636,10.4999898 C23.6363636,9.88696909 24.1654817,9.39001763 24.8181818,9.39001763 C25.470882,9.39001763 26,9.88696909 26,10.4999898 C26,14.7911346 22.2961738,18.2697949 17.7272727,18.2697949 L7.09090909,18.2697949 L7.09090909,18.2697949 Z M2.36363636,10.4999898 C2.36363636,11.1130105 1.83451834,11.6099619 1.18181818,11.6099619 C0.529118023,11.6099619 0,11.1130105 0,10.4999898 C0,6.20884493 3.70382616,2.73018471 8.27272727,2.73018471 L20.0909091,2.73018471 C20.7436092,2.73018471 21.2727273,3.22713617 21.2727273,3.84015687 C21.2727273,4.45317756 20.7436092,4.95012902 20.0909091,4.95012902 L8.27272727,4.95012902 C5.00922648,4.95012902 2.36363636,7.43488632 2.36363636,10.4999898 Z M19.869138,0.12161476 L24.2414037,3.40678555 C24.4962403,3.59826105 24.5375575,3.94750955 24.3336882,4.18685392 C24.3064285,4.21885703 24.2754783,4.2479257 24.2414037,4.27352818 L19.869138,7.55869897 C19.6143014,7.75017447 19.2424468,7.71136908 19.0385775,7.47202471 C18.9547568,7.37361844 18.9090909,7.25134917 18.9090909,7.12532766 L18.9090909,0.554986076 C18.9090909,0.24847573 19.1736499,0 19.5,0 C19.6341786,0 19.7643621,0.0428897414 19.869138,0.12161476 Z" id="path-1"></path>
    </defs>
    <g id="Symbols" stroke="none" stroke-width="1" fill="none" fill-rule="evenodd">
        <g id="BTN/SMALL" transform="translate(-17.000000, -19.000000)">
            <g id="Icon" transform="translate(17.000000, 19.000000)">
                <mask id="mask-2" fill="white">
                    <use xlink:href="#path-1"></use>
                </mask>
                <use fill="#596363" fill-rule="nonzero" xlink:href="#path-1"></use>
            </g>
        </g>
    </g>
</svg>