<?xml version="1.0" encoding="UTF-8"?>
<svg width="78px" height="78px" viewBox="0 0 78 78" version="1.1" xmlns="http://www.w3.org/2000/svg" xmlns:xlink="http://www.w3.org/1999/xlink">
    <!-- Generator: Sketch 62 (91390) - https://sketch.com -->
    <title>Group 3</title>
    <desc>Created with Sketch.</desc>
    <g id="App" stroke="none" stroke-width="1" fill="none" fill-rule="evenodd">
        <g id="no_connectivity" transform="translate(-141.000000, -214.000000)" fill="#FAF6EE">
            <g id="Group-3" transform="translate(141.000000, 214.000000)">
                <path d="M4.27392097,0.0351386852 C4.46322552,0.080583673 4.65667452,0.111289746 4.84182344,0.171473649 C5.2132719,0.292064771 5.56340599,0.470383311 5.87937903,0.699841419 C6.03687961,0.814291327 6.17544527,0.952636142 6.32348397,1.0790335 L76.9311808,71.6604056 C77.057637,71.8083754 77.1960463,71.9468765 77.3105495,72.1043037 C78.2271338,73.3652849 78.2324959,75.2092795 77.3105495,76.4776413 C76.3939652,77.7386225 74.6410046,78.3135518 73.1492231,77.829077 C72.7777858,77.7084412 72.4276852,77.5301226 72.1117681,77.3006645 C71.9542563,77.1862928 71.8156236,77.0479145 71.6676073,76.9215394 L1.05989929,6.3401562 C0.933465394,6.19220876 0.79502262,6.05364063 0.680597595,5.89620222 C-0.344144807,4.48640267 -0.206930848,2.34524029 1.05989929,1.0790335 C1.61222933,0.526882485 2.33794517,0.157293026 3.10945112,0.0351386852 C3.49324358,-0.0256035099 3.88498983,0.00454427075 4.27392097,0.0351386852 Z" id="Fill-1"></path>
                <path d="M38.5066697,58.9385314 C42.1218143,58.9385314 45.0567211,61.8648834 45.0567211,65.4692881 C45.0567211,69.0736816 42.1218143,72 38.5066697,72 C34.8916374,72 31.9566184,69.0736816 31.9566184,65.4692881 C31.9566184,61.8648834 34.8916374,58.9385314 38.5066697,58.9385314 Z M32.3360616,42.0035468 L40.1919495,49.8362666 C37.6052958,49.4870271 34.9672567,49.7430839 32.5248856,50.7968431 C32.0043012,51.0214661 31.4897753,51.2740551 31.0203518,51.5858201 C31.0091323,51.593315 30.998025,51.6008099 30.9869177,51.6084167 C30.9520251,51.6323556 31.0240542,51.5808981 31.0240542,51.5808981 L30.8767423,51.6858266 C28.963819,52.9279648 26.1234925,52.4452715 24.8842997,50.35677 C23.8455992,48.6063215 24.2882081,46.1839058 25.9865026,44.8606661 C25.9865026,44.8606661 26.4378627,44.540735 26.8232522,44.3064917 C28.5306345,43.2685053 30.3989042,42.5053688 32.3360616,42.0035468 Z M34.2411312,24.9189999 C35.1444125,24.8434917 36.0471328,24.7969563 36.946375,24.779058 C37.2517696,24.7730174 37.557052,24.7707763 37.8624465,24.7707763 C45.6767102,24.7953902 53.530242,27.1012436 60.4122781,30.7572959 L60.9687649,31.1113455 C61.1334671,31.2568806 61.3100619,31.3899989 61.4628713,31.5479509 C62.9818783,33.1190813 63.0042051,35.8931975 61.3539301,37.4795414 C60.2443224,38.5459413 58.5359304,38.9325434 57.0606794,38.4245688 C56.4052367,38.198939 55.8224964,37.8248657 55.2036292,37.5170159 C51.3462558,35.5986595 47.1778781,34.2129997 42.9179494,33.5702289 L34.2411312,24.9189999 Z M19.3896659,29.09522 L25.7217226,35.4087144 C24.3004374,35.9778786 22.9257131,36.6643882 21.6183057,37.4794295 C21.4345305,37.5940902 21.2503064,37.7108762 21.0755067,37.8364995 C21.0755067,37.8364995 20.5111663,38.1860747 20.5111663,38.1860747 C20.3083179,38.2712032 20.111528,38.372552 19.9026211,38.4414603 C17.8251078,39.1277461 15.3065564,37.9482517 14.5857041,35.7786487 C14.1010557,34.3200536 14.4902262,32.6169236 15.5874925,31.5102527 C16.0756525,31.0179391 16.6827392,30.6571776 17.2775967,30.2911584 C17.9665856,29.8673056 18.6712819,29.468734 19.3896659,29.09522 Z M20.5903759,11.3085026 C25.671347,9.8606464 30.97323,9.10847262 36.2600787,9.01059159 C36.6805853,9.00276111 37.1010918,8.99962891 37.5222715,9.00003469 C48.3726418,9.02815424 59.2349047,12.0094427 68.9699453,16.9021519 C69.5857832,17.2116797 70.1976943,17.5288142 70.8062395,17.852325 L71.3627263,18.2067103 C71.5273162,18.3522454 71.703911,18.4854755 71.8566083,18.6434275 C73.2239277,20.0585076 73.4044493,22.4711911 72.1837686,24.0824807 C71.1212828,25.4848082 69.1279157,26.0961452 67.4521725,25.5185912 C67.029422,25.3729442 66.6445935,25.146867 66.2555015,24.94361 C57.4340641,20.3435371 47.6579602,17.4497264 37.7271395,17.3906621 C34.3322335,17.3705266 30.9314934,17.6662951 27.5936947,18.2911676 L20.5903759,11.3085026 Z M7.34219838,17.0833716 L13.4993656,23.2223581 C12.5314039,23.7431971 11.568435,24.2879749 10.6886249,24.9264948 L10.677282,24.9348846 C10.4902418,25.0504402 10.3117173,25.1810974 10.1161616,25.2816631 C8.54968493,26.0876435 6.48735166,25.7790106 5.22713349,24.5354182 C3.97425288,23.2990968 3.63138521,21.2480697 4.42817106,19.6687733 C4.62657655,19.2755712 4.88581412,18.9159283 5.19638087,18.6030446 C5.8077534,17.9871212 6.58616172,17.5483904 7.34219838,17.0833716 Z" id="Fill-2"></path>
            </g>
        </g>
    </g>
</svg>