<?xml version="1.0" encoding="UTF-8"?>
<svg width="67px" height="67px" viewBox="0 0 67 67" version="1.1" xmlns="http://www.w3.org/2000/svg" xmlns:xlink="http://www.w3.org/1999/xlink">
    <!-- Generator: Sketch 62 (91390) - https://sketch.com -->
    <title>Group 6</title>
    <desc>Created with Sketch.</desc>
    <defs>
        <polygon id="path-1" points="0.0003 0.773 66.227 0.773 66.227 66.9999 0.0003 66.9999"></polygon>
    </defs>
    <g id="App" stroke="none" stroke-width="1" fill="none" fill-rule="evenodd">
        <g id="Feedback_success" transform="translate(-72.000000, -214.000000)">
            <g id="Group-6" transform="translate(72.000000, 213.000000)">
                <path d="M26.272,46.0855 C26.016,46.0855 25.76,45.9875 25.565,45.7925 L17.304,37.5315 C16.913,37.1415 16.913,36.5085 17.304,36.1175 C17.694,35.7275 18.327,35.7275 18.718,36.1175 L26.272,43.6715 L47.509,22.4345 C47.899,22.0435 48.532,22.0435 48.923,22.4345 C49.314,22.8255 49.314,23.4585 48.923,23.8485 L26.979,45.7925 C26.784,45.9875 26.528,46.0855 26.272,46.0855" id="Fill-1" fill="#F9F5ED"></path>
                <g id="Group-5" transform="translate(0.000000, 0.227100)">
                    <mask id="mask-2" fill="white">
                        <use xlink:href="#path-1"></use>
                    </mask>
                    <g id="Clip-4"></g>
                    <path d="M33.1133,2.7729 C15.9573,2.7729 2.0003,16.7309 2.0003,33.8859 C2.0003,51.0429 15.9573,64.9999 33.1133,64.9999 C50.2693,64.9999 64.2273,51.0429 64.2273,33.8859 C64.2273,16.7309 50.2693,2.7729 33.1133,2.7729 M33.1133,66.9999 C14.8543,66.9999 0.0003,52.1449 0.0003,33.8859 C0.0003,15.6269 14.8543,0.7729 33.1133,0.7729 C51.3723,0.7729 66.2273,15.6269 66.2273,33.8859 C66.2273,52.1449 51.3723,66.9999 33.1133,66.9999" id="Fill-3" fill="#F9F5ED" mask="url(#mask-2)"></path>
                </g>
            </g>
        </g>
    </g>
</svg>