<svg xmlns="http://www.w3.org/2000/svg" viewBox="0 0 214.07 93.74"><defs><style>.cls-1{fill:#1d1d1b;}</style></defs><title>black_lalela_fullform</title><g id="Layer_2" data-name="Layer 2"><g id="Layer_1-2" data-name="Layer 1"><path class="cls-1" d="M53.74,45V79.49q0,9.12,4.86,9.11a6.6,6.6,0,0,0,3.77-1.16l2,4.38a11.6,11.6,0,0,1-6.71,1.92Q52,93.74,50,89.25a28.53,28.53,0,0,1-1.91-11.13V45Z"/><path class="cls-1" d="M90.9,60a14,14,0,0,1,3.62,7.12,75.34,75.34,0,0,1,1.07,10.62c.09,2.69.22,4.79.41,6.3a9.07,9.07,0,0,0,1.16,3.7,3,3,0,0,0,2.74,1.44l-2.05,4.45A7.32,7.32,0,0,1,94,92.47a7.69,7.69,0,0,1-2.67-3,14.16,14.16,0,0,1-4.79,3.15,15,15,0,0,1-5.62,1.1,11.3,11.3,0,0,1-12-12,11.52,11.52,0,0,1,1.67-6A13,13,0,0,1,75,71.1a11.08,11.08,0,0,1,5.89-1.68,15.32,15.32,0,0,1,5.1.83,13.47,13.47,0,0,1,4.08,2.19,14.58,14.58,0,0,0-2-7.4q-1.84-2.94-6.3-2.94a12,12,0,0,0-4.73,1,17.63,17.63,0,0,0-4.38,2.7l-1.92-4.1A15.6,15.6,0,0,1,76,58.3,16.3,16.3,0,0,1,82.23,57Q88.05,57,90.9,60ZM76.68,76.65a6.56,6.56,0,0,0-2.26,5,6.76,6.76,0,0,0,2.09,5.17,7.59,7.59,0,0,0,5.38,1.95,12,12,0,0,0,4.69-1A9.81,9.81,0,0,0,90.38,85l-.2-7.46a9.09,9.09,0,0,0-3.5-2.3,14.09,14.09,0,0,0-4.79-.72A7.48,7.48,0,0,0,76.68,76.65Z"/><path class="cls-1" d="M111.2,45V79.49q0,9.12,4.86,9.11a6.6,6.6,0,0,0,3.77-1.16l2,4.38a11.63,11.63,0,0,1-6.72,1.92q-5.68,0-7.6-4.49a28.35,28.35,0,0,1-1.91-11.13V45Z"/><path class="cls-1" d="M151.16,61.45a17.36,17.36,0,0,1,3.53,11.19v3.43H131.61a14.83,14.83,0,0,0,1.3,6.13,11.4,11.4,0,0,0,3.77,4.69,9.53,9.53,0,0,0,5.75,1.78,13.52,13.52,0,0,0,5.14-1.06,10.2,10.2,0,0,0,4.11-2.91l2.39,4.24a11.8,11.8,0,0,1-5.17,3.5,18.71,18.71,0,0,1-6.54,1.23,15,15,0,0,1-8.83-2.6,16.47,16.47,0,0,1-5.62-6.89A22.57,22.57,0,0,1,126,74.83,22.81,22.81,0,0,1,127.67,66a15,15,0,0,1,5.07-6.51A13.67,13.67,0,0,1,141,57Q147.64,57,151.16,61.45ZM134.35,64.7a9.79,9.79,0,0,0-2.53,6.92h17.67a10.48,10.48,0,0,0-2.13-6.92,7.58,7.58,0,0,0-6.3-2.74A8.7,8.7,0,0,0,134.35,64.7Z"/><path class="cls-1" d="M167.91,45V79.49q0,9.12,4.86,9.11a6.63,6.63,0,0,0,3.77-1.16l2,4.38a11.6,11.6,0,0,1-6.71,1.92q-5.69,0-7.6-4.49a28.34,28.34,0,0,1-1.92-11.13V45Z"/><path class="cls-1" d="M205.06,60a14.13,14.13,0,0,1,3.63,7.12,75.54,75.54,0,0,1,1.06,10.62q.13,4,.41,6.3a8.92,8.92,0,0,0,1.17,3.7,3,3,0,0,0,2.74,1.44L212,93.67a7.31,7.31,0,0,1-3.83-1.2,7.54,7.54,0,0,1-2.67-3,14.1,14.1,0,0,1-4.8,3.15,15,15,0,0,1-5.61,1.1,11.31,11.31,0,0,1-12-12,11.53,11.53,0,0,1,1.68-6,13,13,0,0,1,4.42-4.49,11,11,0,0,1,5.89-1.68,15.41,15.41,0,0,1,5.1.83,13.53,13.53,0,0,1,4.07,2.19,14.58,14.58,0,0,0-2-7.4q-1.86-2.94-6.3-2.94a12,12,0,0,0-4.73,1,17.63,17.63,0,0,0-4.38,2.7L185,61.69a15.4,15.4,0,0,1,5.24-3.39A16.26,16.26,0,0,1,196.4,57C200.28,57,203.16,58,205.06,60ZM190.85,76.65a6.53,6.53,0,0,0-2.26,5,6.72,6.72,0,0,0,2.09,5.17,7.55,7.55,0,0,0,5.37,1.95,12.08,12.08,0,0,0,4.7-1,10,10,0,0,0,3.8-2.74l-.21-7.46a9.05,9.05,0,0,0-3.49-2.3,14.15,14.15,0,0,0-4.8-.72A7.45,7.45,0,0,0,190.85,76.65Z"/><path class="cls-1" d="M35.82,36.87l-.4-.27-.12-.09a18.32,18.32,0,0,0-12.22-2.95A11.59,11.59,0,0,1,27.6,35a14.77,14.77,0,0,1,4.31,3.78,12.1,12.1,0,0,1,1.86,5,14.67,14.67,0,0,1-1.05,7.26l0,0c-1.46,3.55-3.87,5.5-6.44,5.19a4.7,4.7,0,0,1-4.06-4.06c-1-6.13-4.45-10.83-7.64-15h0a2,2,0,0,1-.28-.37l0,0-.12-.15c-2.93-3.81-5.56-7.21-6.35-11.34a17.78,17.78,0,0,0,2.52,7.16,57,57,0,0,0,3.3,4.84A18.68,18.68,0,0,0,12,38.84a15.25,15.25,0,0,0-1.26,1.55,15.06,15.06,0,0,1,3.07-2.75c1.9,2.53,3.88,4.93,5.71,7.68s2.26,5.84,3.21,9a7.88,7.88,0,0,0,5.08,5.28c4.64,1.67,9.47-1.42,11.46-5.74l.29.13a16.77,16.77,0,0,0,1.3-6.22A12.83,12.83,0,0,0,35.82,36.87Z"/><path class="cls-1" d="M39.64,53.92l-.3-.12c-2,4.37-6.83,7.52-11.51,5.84a7.88,7.88,0,0,1-5.08-5.28c-.95-3.2-1.51-6.21-3.21-9-3-4.52-6.4-8.1-9.23-12.81a17.78,17.78,0,0,1-2.52-7.16,13.43,13.43,0,0,1-.2-3.83,14.73,14.73,0,0,1,.27-1.9,16.54,16.54,0,0,1,.38-2.06,18.17,18.17,0,0,1,2.42-5.5,19.5,19.5,0,0,1,4.39-4.54A17.75,17.75,0,0,1,27.76,3.81h.15l.49.06c4.38.6,7.83,3.73,9.7,7.62a19.69,19.69,0,0,1,1.38,3.86l0,0a22.82,22.82,0,0,0-3.43-8.28,16.06,16.06,0,0,0-10-6.65,20.79,20.79,0,0,0-11.48,1A22.51,22.51,0,0,0,.08,20.88C-.68,29.81,4,35.9,8.17,41.29c3,3.9,5.85,7.59,6.57,12.08A12.19,12.19,0,0,0,25.36,63.73a11.94,11.94,0,0,0,1.35.08c4.49,0,9.87-2.54,12.9-9.79Z"/><path class="cls-1" d="M7.79,25.35a14.6,14.6,0,0,1-.11-1.88,30.65,30.65,0,0,1,.18-3.85"/><path class="cls-1" d="M55.11,28.09c-3.92,1.45-9.6,1.57-12.67-2.9A15.94,15.94,0,0,1,39.9,17.9h0a18.56,18.56,0,0,0-1.81-6.4c-1.87-3.89-5.32-7-9.7-7.62l-.49-.06h-.15A17.75,17.75,0,0,0,15.05,7.52a19.5,19.5,0,0,0-4.39,4.54,18.17,18.17,0,0,0-2.42,5.5,16.54,16.54,0,0,0-.38,2.06A14.88,14.88,0,0,1,17.21,8.44c3.92-1.46,9.6-1.58,12.67,2.89a15.94,15.94,0,0,1,2.54,7.29h0A18.48,18.48,0,0,0,34.23,25c1.86,3.89,5.31,7,9.69,7.61.16,0,.33,0,.49.06l.15,0A17.8,17.8,0,0,0,57.27,29a19.5,19.5,0,0,0,4.39-4.54A18.17,18.17,0,0,0,64.08,19a16.89,16.89,0,0,0,.38-2.06A14.9,14.9,0,0,1,55.11,28.09Z"/></g></g></svg>