<svg xmlns="http://www.w3.org/2000/svg" xmlns:xlink="http://www.w3.org/1999/xlink" viewBox="0 0 214.07 94.97"><defs><style>.cls-1{fill:#5eb672;}.cls-2{fill:url(#linear-gradient);}.cls-3{fill:url(#linear-gradient-2);}.cls-4{fill:none;}.cls-5{fill:url(#linear-gradient-3);}</style><linearGradient id="linear-gradient" x1="7.79" y1="42.72" x2="40.89" y2="42.72" gradientUnits="userSpaceOnUse"><stop offset="0" stop-color="#21597b"/><stop offset="0.17" stop-color="#1e5e84"/><stop offset="0.45" stop-color="#146c9b"/><stop offset="0.79" stop-color="#0582c1"/><stop offset="0.89" stop-color="#0089ce"/></linearGradient><linearGradient id="linear-gradient-2" x1="0" y1="31.9" x2="39.91" y2="31.9" xlink:href="#linear-gradient"/><linearGradient id="linear-gradient-3" x1="7.86" y1="18.26" x2="64.46" y2="18.26" xlink:href="#linear-gradient"/></defs><title>blue_lalela_fullform</title><g id="Layer_2" data-name="Layer 2"><g id="Layer_1-2" data-name="Layer 1"><path class="cls-1" d="M53.74,46.28V80.72q0,9.12,4.86,9.11a6.53,6.53,0,0,0,3.77-1.16l2,4.38A11.6,11.6,0,0,1,57.65,95Q52,95,50,90.48a28.53,28.53,0,0,1-1.91-11.13V46.28Z"/><path class="cls-1" d="M90.9,61.27a14,14,0,0,1,3.62,7.13A75.34,75.34,0,0,1,95.59,79c.09,2.7.22,4.8.41,6.3A9.07,9.07,0,0,0,97.16,89a3,3,0,0,0,2.74,1.44L97.85,94.9A7.23,7.23,0,0,1,94,93.7a7.69,7.69,0,0,1-2.67-3,14,14,0,0,1-4.79,3.15,15,15,0,0,1-5.62,1.1A11.3,11.3,0,0,1,69,82.85a11.52,11.52,0,0,1,1.67-6A13,13,0,0,1,75,72.33a11.16,11.16,0,0,1,5.89-1.67,15.32,15.32,0,0,1,5.1.82,13.69,13.69,0,0,1,4.08,2.19,14.58,14.58,0,0,0-2-7.4q-1.84-2.94-6.3-2.94a12,12,0,0,0-4.73,1A17.67,17.67,0,0,0,72.71,67l-1.92-4.11A15.6,15.6,0,0,1,76,59.53a16.3,16.3,0,0,1,6.2-1.27C86.11,58.26,89,59.27,90.9,61.27ZM76.68,77.88a6.58,6.58,0,0,0-2.26,5A6.76,6.76,0,0,0,76.51,88a7.59,7.59,0,0,0,5.38,2,12,12,0,0,0,4.69-1,9.81,9.81,0,0,0,3.8-2.74l-.2-7.46a9.09,9.09,0,0,0-3.5-2.3,14.09,14.09,0,0,0-4.79-.72A7.48,7.48,0,0,0,76.68,77.88Z"/><path class="cls-1" d="M111.2,46.28V80.72q0,9.12,4.86,9.11a6.53,6.53,0,0,0,3.77-1.16l2,4.38A11.63,11.63,0,0,1,115.1,95q-5.68,0-7.6-4.49a28.35,28.35,0,0,1-1.91-11.13V46.28Z"/><path class="cls-1" d="M151.16,62.68a17.39,17.39,0,0,1,3.53,11.2V77.3H131.61a14.8,14.8,0,0,0,1.3,6.13,11.4,11.4,0,0,0,3.77,4.69,9.53,9.53,0,0,0,5.75,1.78,13.52,13.52,0,0,0,5.14-1.06,10.2,10.2,0,0,0,4.11-2.91l2.39,4.25a11.78,11.78,0,0,1-5.17,3.49,18.71,18.71,0,0,1-6.54,1.23,15,15,0,0,1-8.83-2.6,16.5,16.5,0,0,1-5.62-6.88,23.9,23.9,0,0,1-.24-18.19,15,15,0,0,1,5.07-6.5A13.61,13.61,0,0,1,141,58.26Q147.64,58.26,151.16,62.68Zm-16.81,3.25a9.79,9.79,0,0,0-2.53,6.92h17.67a10.48,10.48,0,0,0-2.13-6.92,7.61,7.61,0,0,0-6.3-2.74A8.74,8.74,0,0,0,134.35,65.93Z"/><path class="cls-1" d="M167.91,46.28V80.72q0,9.12,4.86,9.11a6.55,6.55,0,0,0,3.77-1.16l2,4.38A11.6,11.6,0,0,1,171.81,95q-5.69,0-7.6-4.49a28.34,28.34,0,0,1-1.92-11.13V46.28Z"/><path class="cls-1" d="M205.06,61.27a14.12,14.12,0,0,1,3.63,7.13A75.54,75.54,0,0,1,209.75,79q.13,4,.41,6.3a8.92,8.92,0,0,0,1.17,3.7,3,3,0,0,0,2.74,1.44L212,94.9a7.22,7.22,0,0,1-3.83-1.2,7.54,7.54,0,0,1-2.67-3,14,14,0,0,1-4.8,3.15,15,15,0,0,1-5.61,1.1,11.31,11.31,0,0,1-12-12.05,11.53,11.53,0,0,1,1.68-6,13,13,0,0,1,4.42-4.49,11.11,11.11,0,0,1,5.89-1.67,15.41,15.41,0,0,1,5.1.82,13.75,13.75,0,0,1,4.07,2.19,14.58,14.58,0,0,0-2-7.4q-1.86-2.94-6.3-2.94a12,12,0,0,0-4.73,1A17.67,17.67,0,0,0,186.88,67L185,62.92a15.4,15.4,0,0,1,5.24-3.39,16.26,16.26,0,0,1,6.2-1.27C200.28,58.26,203.16,59.27,205.06,61.27ZM190.85,77.88a6.55,6.55,0,0,0-2.26,5A6.72,6.72,0,0,0,190.68,88a7.55,7.55,0,0,0,5.37,2,12.08,12.08,0,0,0,4.7-1,10,10,0,0,0,3.8-2.74l-.21-7.46a9.05,9.05,0,0,0-3.49-2.3,14.15,14.15,0,0,0-4.8-.72A7.45,7.45,0,0,0,190.85,77.88Z"/><path class="cls-2" d="M35.82,36.87l-.4-.27-.12-.09a18.32,18.32,0,0,0-12.22-2.95A11.59,11.59,0,0,1,27.6,35a14.77,14.77,0,0,1,4.31,3.78,12.1,12.1,0,0,1,1.86,5,14.67,14.67,0,0,1-1.05,7.26l0,0c-1.46,3.55-3.87,5.5-6.44,5.19a4.7,4.7,0,0,1-4.06-4.06c-1-6.13-4.45-10.83-7.64-15h0a2,2,0,0,1-.28-.37l0,0-.12-.15c-2.93-3.81-5.56-7.21-6.35-11.34a17.78,17.78,0,0,0,2.52,7.16,57,57,0,0,0,3.3,4.84A18.68,18.68,0,0,0,12,38.84a15.25,15.25,0,0,0-1.26,1.55,15.06,15.06,0,0,1,3.07-2.75c1.9,2.53,3.88,4.93,5.71,7.68s2.26,5.84,3.21,9a7.88,7.88,0,0,0,5.08,5.28c4.64,1.67,9.47-1.42,11.46-5.74l.29.13a16.77,16.77,0,0,0,1.3-6.22A12.83,12.83,0,0,0,35.82,36.87Z"/><path class="cls-3" d="M39.64,53.92l-.3-.12c-2,4.37-6.83,7.52-11.51,5.84a7.88,7.88,0,0,1-5.08-5.28c-.95-3.2-1.51-6.21-3.21-9-3-4.52-6.4-8.1-9.23-12.81a17.78,17.78,0,0,1-2.52-7.16,13.43,13.43,0,0,1-.2-3.83,14.73,14.73,0,0,1,.27-1.9,16.54,16.54,0,0,1,.38-2.06,18.17,18.17,0,0,1,2.42-5.5,19.5,19.5,0,0,1,4.39-4.54A17.75,17.75,0,0,1,27.76,3.81h.15l.49.06c4.38.6,7.83,3.73,9.7,7.62a19.69,19.69,0,0,1,1.38,3.86l0,0a22.82,22.82,0,0,0-3.43-8.28,16.06,16.06,0,0,0-10-6.65,20.79,20.79,0,0,0-11.48,1A22.51,22.51,0,0,0,.08,20.88C-.68,29.81,4,35.9,8.17,41.29c3,3.9,5.85,7.59,6.57,12.08A12.19,12.19,0,0,0,25.36,63.73a11.94,11.94,0,0,0,1.35.08c4.49,0,9.87-2.54,12.9-9.79Z"/><path class="cls-4" d="M7.79,25.35a14.6,14.6,0,0,1-.11-1.88,30.65,30.65,0,0,1,.18-3.85"/><path class="cls-5" d="M55.11,28.09c-3.92,1.45-9.6,1.57-12.67-2.9A15.94,15.94,0,0,1,39.9,17.9h0a18.56,18.56,0,0,0-1.81-6.4c-1.87-3.89-5.32-7-9.7-7.62l-.49-.06h-.15A17.75,17.75,0,0,0,15.05,7.52a19.5,19.5,0,0,0-4.39,4.54,18.17,18.17,0,0,0-2.42,5.5,16.54,16.54,0,0,0-.38,2.06A14.88,14.88,0,0,1,17.21,8.44c3.92-1.46,9.6-1.58,12.67,2.89a15.94,15.94,0,0,1,2.54,7.29h0A18.48,18.48,0,0,0,34.23,25c1.86,3.89,5.31,7,9.69,7.61.16,0,.33,0,.49.06l.15,0A17.8,17.8,0,0,0,57.27,29a19.5,19.5,0,0,0,4.39-4.54A18.17,18.17,0,0,0,64.08,19a16.89,16.89,0,0,0,.38-2.06A14.9,14.9,0,0,1,55.11,28.09Z"/></g></g></svg>