<svg xmlns="http://www.w3.org/2000/svg" xmlns:xlink="http://www.w3.org/1999/xlink" viewBox="0 0 412.09 180.45"><defs><style>.cls-1{fill:#21597b;}.cls-2{fill:url(#linear-gradient);}.cls-3{fill:url(#linear-gradient-2);}.cls-4{fill:none;}.cls-5{fill:url(#linear-gradient-3);}</style><linearGradient id="linear-gradient" x1="14.99" y1="82.24" x2="78.71" y2="82.24" gradientUnits="userSpaceOnUse"><stop offset="0" stop-color="#3f9f79"/><stop offset="0.47" stop-color="#41a079"/><stop offset="0.65" stop-color="#48a477"/><stop offset="0.77" stop-color="#53ab75"/><stop offset="0.86" stop-color="#64b571"/><stop offset="0.89" stop-color="#69b870"/></linearGradient><linearGradient id="linear-gradient-2" y1="61.42" x2="76.84" y2="61.42" gradientUnits="userSpaceOnUse"><stop offset="0" stop-color="#41aa79"/><stop offset="0.6" stop-color="#69b870"/></linearGradient><linearGradient id="linear-gradient-3" x1="15.13" y1="35.16" x2="124.09" y2="35.16" gradientUnits="userSpaceOnUse"><stop offset="0.14" stop-color="#41aa79"/><stop offset="1" stop-color="#69b870"/></linearGradient></defs><title>original_lalela_fullform</title><g id="Layer_2" data-name="Layer 2"><g id="Layer_1-2" data-name="Layer 1"><path class="cls-1" d="M103.46,86.71V153q0,17.53,9.36,17.53a12.57,12.57,0,0,0,7.25-2.24l3.82,8.44A22.35,22.35,0,0,1,111,180.45q-10.93,0-14.63-8.63t-3.69-21.43V86.71Z"/><path class="cls-1" d="M175,115.58a27,27,0,0,1,7,13.72,144.38,144.38,0,0,1,2,20.43q.27,7.78.79,12.13A17.48,17.48,0,0,0,187,169a5.76,5.76,0,0,0,5.28,2.77l-4,8.57A14,14,0,0,1,181,178a14.74,14.74,0,0,1-5.14-5.87,27.3,27.3,0,0,1-9.23,6.07,29,29,0,0,1-10.81,2.11q-10.43,0-16.75-6.33t-6.33-16.88a22.28,22.28,0,0,1,3.23-11.6,25,25,0,0,1,8.51-8.63,21.24,21.24,0,0,1,11.34-3.23,29.57,29.57,0,0,1,9.82,1.58,26.11,26.11,0,0,1,7.84,4.22q-.26-8.56-3.82-14.24t-12.13-5.67a23.08,23.08,0,0,0-9.1,1.91,33.86,33.86,0,0,0-8.43,5.21l-3.7-7.91a30.27,30.27,0,0,1,10.09-6.53,31.62,31.62,0,0,1,11.93-2.44Q169.51,109.78,175,115.58Zm-27.36,32a12.57,12.57,0,0,0-4.35,9.55,13,13,0,0,0,4,10,14.57,14.57,0,0,0,10.35,3.76,23.2,23.2,0,0,0,9-1.85,19,19,0,0,0,7.32-5.27l-.4-14.37a17.35,17.35,0,0,0-6.72-4.42,27.27,27.27,0,0,0-9.23-1.38A14.33,14.33,0,0,0,147.62,147.56Z"/><path class="cls-1" d="M214.07,86.71V153q0,17.53,9.36,17.53a12.57,12.57,0,0,0,7.25-2.24l3.82,8.44a22.35,22.35,0,0,1-12.92,3.69q-10.94,0-14.63-8.63t-3.69-21.43V86.71Z"/><path class="cls-1" d="M291,118.29q6.78,8.5,6.79,21.55v6.6H253.36a28.61,28.61,0,0,0,2.5,11.8,22,22,0,0,0,7.25,9,18.47,18.47,0,0,0,11.08,3.42,26.1,26.1,0,0,0,9.89-2,19.44,19.44,0,0,0,7.91-5.6l4.61,8.17a22.78,22.78,0,0,1-10,6.73,36.1,36.1,0,0,1-12.59,2.37,28.79,28.79,0,0,1-17-5,31.69,31.69,0,0,1-10.81-13.25,46,46,0,0,1-.46-35,28.72,28.72,0,0,1,9.75-12.53,26.32,26.32,0,0,1,15.89-4.75Q284.2,109.78,291,118.29Zm-32.37,6.26a18.88,18.88,0,0,0-4.88,13.32h34q.12-8-4.09-13.32t-12.13-5.27Q263.51,119.28,258.63,124.55Z"/><path class="cls-1" d="M323.23,86.71V153q0,17.53,9.36,17.53a12.55,12.55,0,0,0,7.25-2.24l3.83,8.44a22.37,22.37,0,0,1-12.92,3.69q-11,0-14.64-8.63t-3.69-21.43V86.71Z"/><path class="cls-1" d="M394.75,115.58a27,27,0,0,1,7,13.72,144.38,144.38,0,0,1,2,20.43q.27,7.78.8,12.13a17.33,17.33,0,0,0,2.24,7.12,5.76,5.76,0,0,0,5.27,2.77l-3.95,8.57a14,14,0,0,1-7.39-2.31,14.74,14.74,0,0,1-5.14-5.87,27.2,27.2,0,0,1-9.23,6.07,29,29,0,0,1-10.81,2.11q-10.41,0-16.74-6.33t-6.33-16.88a22.18,22.18,0,0,1,3.23-11.6,25,25,0,0,1,8.5-8.63,21.29,21.29,0,0,1,11.34-3.23,29.52,29.52,0,0,1,9.82,1.58,26,26,0,0,1,7.85,4.22q-.27-8.56-3.83-14.24t-12.13-5.67a23,23,0,0,0-9.09,1.91,34.1,34.1,0,0,0-8.44,5.21l-3.69-7.91a30.13,30.13,0,0,1,10.08-6.53,31.63,31.63,0,0,1,11.94-2.44Q389.29,109.78,394.75,115.58Zm-27.35,32a12.57,12.57,0,0,0-4.35,9.55,13,13,0,0,0,4,10,14.57,14.57,0,0,0,10.35,3.76,23.27,23.27,0,0,0,9-1.85,19.14,19.14,0,0,0,7.32-5.27l-.4-14.37a17.43,17.43,0,0,0-6.72-4.42,27.32,27.32,0,0,0-9.23-1.38A14.33,14.33,0,0,0,367.4,147.56Z"/><path class="cls-2" d="M69,71l-.77-.53L68,70.28a35.1,35.1,0,0,0-23.52-5.67,22.7,22.7,0,0,1,8.71,2.78,28.74,28.74,0,0,1,8.29,7.28A23.07,23.07,0,0,1,65,84.33a28.17,28.17,0,0,1-2,14l-.07,0c-2.82,6.83-7.46,10.58-12.41,10a9.06,9.06,0,0,1-7.81-7.82C40.82,88.66,34.12,79.6,28,71.62l.06,0a4,4,0,0,1-.54-.7l-.06,0-.23-.3C21.57,63.3,16.52,56.75,15,48.79a34.48,34.48,0,0,0,4.86,13.8,109.53,109.53,0,0,0,6.36,9.32,33.3,33.3,0,0,0-3.07,2.86,30.74,30.74,0,0,0-2.43,3,28.43,28.43,0,0,1,5.92-5.28c3.66,4.85,7.46,9.48,11,14.78,3.27,5.44,4.35,11.24,6.17,17.4,1.08,4.72,5.07,8.34,9.79,10.16,8.93,3.21,18.22-2.73,22-11l.57.24a32.86,32.86,0,0,0,2.5-12C78.93,84.09,75.82,75.91,69,71Z"/><path class="cls-3" d="M76.3,103.8l-.57-.24C72,112,62.59,118.05,53.58,114.81c-4.72-1.82-8.71-5.44-9.79-10.16-1.82-6.16-2.9-12-6.17-17.4-5.8-8.7-12.33-15.59-17.77-24.66A34.48,34.48,0,0,1,15,48.79a26.65,26.65,0,0,1-.38-7.37,33.4,33.4,0,0,1,.52-3.65,31.07,31.07,0,0,1,.74-4,35.4,35.4,0,0,1,4.64-10.59A37.74,37.74,0,0,1,29,14.47,34.17,34.17,0,0,1,53.44,7.33l.29,0,.93.11c8.44,1.15,15.08,7.18,18.68,14.66A37.81,37.81,0,0,1,76,29.56l.07,0a43.88,43.88,0,0,0-6.61-15.93A30.82,30.82,0,0,0,50.16.78,40.23,40.23,0,0,0,28.07,2.65C12.33,8.5,1.63,22.89.16,40.19S7.75,69.12,15.73,79.48C21.53,87,27,94.09,28.38,102.74a23.44,23.44,0,0,0,20.44,19.94,22.32,22.32,0,0,0,2.61.15c8.63,0,19-4.89,24.81-18.83Z"/><path class="cls-4" d="M15,48.79a30.78,30.78,0,0,1-.21-3.6,60.58,60.58,0,0,1,.35-7.42"/><path class="cls-5" d="M106.09,54.07c-7.55,2.8-18.48,3-24.39-5.57a30.38,30.38,0,0,1-4.88-14h0a35.91,35.91,0,0,0-3.48-12.34C69.74,14.65,63.1,8.62,54.66,7.47l-.93-.11-.29,0A34.17,34.17,0,0,0,29,14.47a37.74,37.74,0,0,0-8.46,8.74A35.4,35.4,0,0,0,15.87,33.8a31.07,31.07,0,0,0-.74,4,28.64,28.64,0,0,1,18-21.52c7.56-2.81,18.48-3,24.39,5.56a30.38,30.38,0,0,1,4.88,14h0a35.65,35.65,0,0,0,3.49,12.33c3.59,7.48,10.24,13.51,18.67,14.66l.93.11.3,0a34.16,34.16,0,0,0,24.46-7.14,37.89,37.89,0,0,0,8.46-8.73,35.35,35.35,0,0,0,4.64-10.6,30.93,30.93,0,0,0,.74-4A28.67,28.67,0,0,1,106.09,54.07Z"/></g></g></svg>