<?xml version="1.0" encoding="UTF-8"?>
<svg width="382px" height="289px" viewBox="0 0 382 289" version="1.1" xmlns="http://www.w3.org/2000/svg" xmlns:xlink="http://www.w3.org/1999/xlink">
    <!-- Generator: Sketch 62 (91390) - https://sketch.com -->
    <title>Group 165@2x</title>
    <desc>Created with Sketch.</desc>
    <defs>
        <polygon id="path-1" points="0.5 289 381.5 289 381.5 0 0.5 0"></polygon>
    </defs>
    <g id="Website" stroke="none" stroke-width="1" fill="none" fill-rule="evenodd">
        <g id="HomePage" transform="translate(-812.000000, -1261.000000)">
            <g id="Group-165" transform="translate(812.000000, 1261.000000)">
                <path d="M38,144 C37.724,144 37.5,144.334661 37.5,144.747012 L37.5,146.252988 C37.5,146.666833 37.724,147 38,147 C38.276,147 38.5,146.666833 38.5,146.252988 L38.5,144.747012 C38.5,144.334661 38.276,144 38,144" id="Fill-1" fill="#CAC4B4"></path>
                <path d="M38,40 C37.724,40 37.5,40.3346614 37.5,40.747012 L37.5,42.252988 C37.5,42.6668327 37.724,43 38,43 C38.276,43 38.5,42.6668327 38.5,42.252988 L38.5,40.747012 C38.5,40.3346614 38.276,40 38,40" id="Fill-3" fill="#CAC4B4"></path>
                <path d="M38,134 C37.724,134 37.5,134.334661 37.5,134.747012 L37.5,136.252988 C37.5,136.666833 37.724,137 38,137 C38.276,137 38.5,136.666833 38.5,136.252988 L38.5,134.747012 C38.5,134.334661 38.276,134 38,134" id="Fill-5" fill="#CAC4B4"></path>
                <path d="M38,22 C37.724,22 37.5,22.3346614 37.5,22.747012 L37.5,24.252988 C37.5,24.6668327 37.724,25 38,25 C38.276,25 38.5,24.6668327 38.5,24.252988 L38.5,22.747012 C38.5,22.3346614 38.276,22 38,22" id="Fill-7" fill="#CAC4B4"></path>
                <path d="M38,31 C37.724,31 37.5,31.3346614 37.5,31.747012 L37.5,33.252988 C37.5,33.6668327 37.724,34 38,34 C38.276,34 38.5,33.6668327 38.5,33.252988 L38.5,31.747012 C38.5,31.3346614 38.276,31 38,31" id="Fill-9" fill="#CAC4B4"></path>
                <path d="M38,125 C37.724,125 37.5,125.334661 37.5,125.747012 L37.5,127.252988 C37.5,127.666833 37.724,128 38,128 C38.276,128 38.5,127.666833 38.5,127.252988 L38.5,125.747012 C38.5,125.334661 38.276,125 38,125" id="Fill-11" fill="#CAC4B4"></path>
                <path d="M38,87 C37.724,87 37.5,87.3346614 37.5,87.747012 L37.5,89.252988 C37.5,89.6653386 37.724,90 38,90 C38.276,90 38.5,89.6653386 38.5,89.252988 L38.5,87.747012 C38.5,87.3346614 38.276,87 38,87" id="Fill-13" fill="#CAC4B4"></path>
                <path d="M38,78 C37.724,78 37.5,78.3346614 37.5,78.747012 L37.5,80.252988 C37.5,80.6653386 37.724,81 38,81 C38.276,81 38.5,80.6653386 38.5,80.252988 L38.5,78.747012 C38.5,78.3346614 38.276,78 38,78" id="Fill-15" fill="#CAC4B4"></path>
                <path d="M38,97 C37.724,97 37.5,97.3346614 37.5,97.747012 L37.5,99.252988 C37.5,99.6653386 37.724,100 38,100 C38.276,100 38.5,99.6653386 38.5,99.252988 L38.5,97.747012 C38.5,97.3346614 38.276,97 38,97" id="Fill-17" fill="#CAC4B4"></path>
                <path d="M38,106 C37.724,106 37.5,106.334661 37.5,106.747012 L37.5,108.252988 C37.5,108.665339 37.724,109 38,109 C38.276,109 38.5,108.665339 38.5,108.252988 L38.5,106.747012 C38.5,106.334661 38.276,106 38,106" id="Fill-19" fill="#CAC4B4"></path>
                <path d="M38,50 C37.724,50 37.5,50.3346614 37.5,50.747012 L37.5,52.252988 C37.5,52.6668327 37.724,53 38,53 C38.276,53 38.5,52.6668327 38.5,52.252988 L38.5,50.747012 C38.5,50.3346614 38.276,50 38,50" id="Fill-21" fill="#CAC4B4"></path>
                <path d="M38,116 C37.724,116 37.5,116.334661 37.5,116.747012 L37.5,118.252988 C37.5,118.665339 37.724,119 38,119 C38.276,119 38.5,118.665339 38.5,118.252988 L38.5,116.747012 C38.5,116.334661 38.276,116 38,116" id="Fill-23" fill="#CAC4B4"></path>
                <path d="M38.5,155.315251 L38.5,153.767656 C38.5,153.342375 38.276,153 38,153 C37.724,153 37.5,153.342375 37.5,153.767656 L37.5,155.315251 C37.5,155.619243 37.617,155.87564 37.784,156 L38.216,156 C38.383,155.87564 38.5,155.619243 38.5,155.315251" id="Fill-25" fill="#CAC4B4"></path>
                <path d="M38,69 C37.724,69 37.5,69.3346614 37.5,69.747012 L37.5,71.252988 C37.5,71.6653386 37.724,72 38,72 C38.276,72 38.5,71.6653386 38.5,71.252988 L38.5,69.747012 C38.5,69.3346614 38.276,69 38,69" id="Fill-27" fill="#CAC4B4"></path>
                <path d="M38,184 C38.276,184 38.5,183.665339 38.5,183.252988 L38.5,181.747012 C38.5,181.333167 38.276,181 38,181 C37.724,181 37.5,181.333167 37.5,181.747012 L37.5,183.252988 C37.5,183.665339 37.724,184 38,184" id="Fill-29" fill="#CAC4B4"></path>
                <path d="M38,194 C38.276,194 38.5,193.665339 38.5,193.252988 L38.5,191.747012 C38.5,191.333167 38.276,191 38,191 C37.724,191 37.5,191.333167 37.5,191.747012 L37.5,193.252988 C37.5,193.665339 37.724,194 38,194" id="Fill-31" fill="#CAC4B4"></path>
                <path d="M38,175 C38.276,175 38.5,174.665339 38.5,174.252988 L38.5,172.747012 C38.5,172.333167 38.276,172 38,172 C37.724,172 37.5,172.333167 37.5,172.747012 L37.5,174.252988 C37.5,174.665339 37.724,175 38,175" id="Fill-33" fill="#CAC4B4"></path>
                <path d="M38,59 C37.724,59 37.5,59.3346614 37.5,59.747012 L37.5,61.252988 C37.5,61.6668327 37.724,62 38,62 C38.276,62 38.5,61.6668327 38.5,61.252988 L38.5,59.747012 C38.5,59.3346614 38.276,59 38,59" id="Fill-35" fill="#CAC4B4"></path>
                <path d="M38,15 C38.276,15 38.5,14.6653386 38.5,14.252988 L38.5,12.747012 C38.5,12.3331673 38.276,12 38,12 C37.724,12 37.5,12.3331673 37.5,12.747012 L37.5,14.252988 C37.5,14.6653386 37.724,15 38,15" id="Fill-37" fill="#CAC4B4"></path>
                <path d="M38,166 C38.276,166 38.5,165.665339 38.5,165.252988 L38.5,163.747012 C38.5,163.333167 38.276,163 38,163 C37.724,163 37.5,163.333167 37.5,163.747012 L37.5,165.252988 C37.5,165.665339 37.724,166 38,166" id="Fill-39" fill="#CAC4B4"></path>
                <path d="M84.4425,0 C84.1475,0.00402716361 83.8525,0.00536955148 83.5575,0.010739103 L83.5575,17 L84.4425,17 L84.4425,0 Z" id="Fill-41" fill="#CAC4B4"></path>
                <path d="M83.5575,204 L83.5575,223.614135 C83.8515,223.745409 84.1475,223.870052 84.4425,224 L84.4425,204 L83.5575,204 Z" id="Fill-43" fill="#CAC4B4"></path>
                <path d="M84.4425,45 L84.4425,18 L83.5575,18 L83.5575,44.9397411 C83.8565,44.9397411 84.1485,44.9745574 84.4425,45" id="Fill-45" fill="#CAC4B4"></path>
                <mask id="mask-2" fill="white">
                    <use xlink:href="#path-1"></use>
                </mask>
                <g id="Clip-48"></g>
                <polygon id="Fill-47" fill="#CAC4B4" mask="url(#mask-2)" points="83.5575 202 84.4425 202 84.4425 157 83.5575 157"></polygon>
                <polygon id="Fill-49" fill="#CAC4B4" mask="url(#mask-2)" points="83.5575 156 84.4425 156 84.4425 111 83.5575 111"></polygon>
                <path d="M83.5575,81.0595435 L83.5575,109 L84.4425,109 L84.4425,81 C84.1485,81.0251406 83.8565,81.0595435 83.5575,81.0595435" id="Fill-50" fill="#CAC4B4" mask="url(#mask-2)"></path>
                <path d="M130,6 C130.276,6 130.5,5.66533865 130.5,5.25298805 L130.5,3.74701195 C130.5,3.33316733 130.276,3 130,3 C129.724,3 129.5,3.33316733 129.5,3.74701195 L129.5,5.25298805 C129.5,5.66533865 129.724,6 130,6" id="Fill-51" fill="#CAC4B4" mask="url(#mask-2)"></path>
                <path d="M130,15 C130.276,15 130.5,14.6653386 130.5,14.252988 L130.5,12.747012 C130.5,12.3331673 130.276,12 130,12 C129.724,12 129.5,12.3331673 129.5,12.747012 L129.5,14.252988 C129.5,14.6653386 129.724,15 130,15" id="Fill-52" fill="#CAC4B4" mask="url(#mask-2)"></path>
                <path d="M130,144 C129.724,144 129.5,144.334661 129.5,144.747012 L129.5,146.252988 C129.5,146.666833 129.724,147 130,147 C130.276,147 130.5,146.666833 130.5,146.252988 L130.5,144.747012 C130.5,144.334661 130.276,144 130,144" id="Fill-53" fill="#CAC4B4" mask="url(#mask-2)"></path>
                <path d="M130,194 C130.276,194 130.5,193.665339 130.5,193.252988 L130.5,191.747012 C130.5,191.333167 130.276,191 130,191 C129.724,191 129.5,191.333167 129.5,191.747012 L129.5,193.252988 C129.5,193.665339 129.724,194 130,194" id="Fill-54" fill="#CAC4B4" mask="url(#mask-2)"></path>
                <path d="M130,212 C130.276,212 130.5,211.665339 130.5,211.252988 L130.5,209.747012 C130.5,209.334661 130.276,209 130,209 C129.724,209 129.5,209.334661 129.5,209.747012 L129.5,211.252988 C129.5,211.665339 129.724,212 130,212" id="Fill-55" fill="#CAC4B4" mask="url(#mask-2)"></path>
                <path d="M130,222 C130.276,222 130.5,221.665339 130.5,221.252988 L130.5,219.747012 C130.5,219.334661 130.276,219 130,219 C129.724,219 129.5,219.334661 129.5,219.747012 L129.5,221.252988 C129.5,221.665339 129.724,222 130,222" id="Fill-56" fill="#CAC4B4" mask="url(#mask-2)"></path>
                <path d="M130,59 C129.724,59 129.5,59.3346614 129.5,59.747012 L129.5,61.252988 C129.5,61.6668327 129.724,62 130,62 C130.276,62 130.5,61.6668327 130.5,61.252988 L130.5,59.747012 C130.5,59.3346614 130.276,59 130,59" id="Fill-57" fill="#CAC4B4" mask="url(#mask-2)"></path>
                <path d="M130,166 C130.276,166 130.5,165.665339 130.5,165.252988 L130.5,163.747012 C130.5,163.333167 130.276,163 130,163 C129.724,163 129.5,163.333167 129.5,163.747012 L129.5,165.252988 C129.5,165.665339 129.724,166 130,166" id="Fill-58" fill="#CAC4B4" mask="url(#mask-2)"></path>
                <path d="M130,175 C130.276,175 130.5,174.665339 130.5,174.252988 L130.5,172.747012 C130.5,172.333167 130.276,172 130,172 C129.724,172 129.5,172.333167 129.5,172.747012 L129.5,174.252988 C129.5,174.665339 129.724,175 130,175" id="Fill-59" fill="#CAC4B4" mask="url(#mask-2)"></path>
                <path d="M130,200 C129.724,200 129.5,200.30622 129.5,200.683527 L129.5,202 L130.5,202 L130.5,200.683527 C130.5,200.30622 130.276,200 130,200" id="Fill-60" fill="#CAC4B4" mask="url(#mask-2)"></path>
                <path d="M130,231 C130.276,231 130.5,230.665339 130.5,230.252988 L130.5,228.747012 C130.5,228.334661 130.276,228 130,228 C129.724,228 129.5,228.334661 129.5,228.747012 L129.5,230.252988 C129.5,230.665339 129.724,231 130,231" id="Fill-61" fill="#CAC4B4" mask="url(#mask-2)"></path>
                <path d="M130,184 C130.276,184 130.5,183.665339 130.5,183.252988 L130.5,181.747012 C130.5,181.333167 130.276,181 130,181 C129.724,181 129.5,181.333167 129.5,181.747012 L129.5,183.252988 C129.5,183.665339 129.724,184 130,184" id="Fill-62" fill="#CAC4B4" mask="url(#mask-2)"></path>
                <path d="M130,109 C130.276,109 130.5,108.665339 130.5,108.252988 L130.5,106.747012 C130.5,106.334661 130.276,106 130,106 C129.724,106 129.5,106.334661 129.5,106.747012 L129.5,108.252988 C129.5,108.665339 129.724,109 130,109" id="Fill-63" fill="#CAC4B4" mask="url(#mask-2)"></path>
                <path d="M130,81 C130.276,81 130.5,80.6653386 130.5,80.252988 L130.5,78.747012 C130.5,78.3346614 130.276,78 130,78 C129.724,78 129.5,78.3346614 129.5,78.747012 L129.5,80.252988 C129.5,80.6653386 129.724,81 130,81" id="Fill-64" fill="#CAC4B4" mask="url(#mask-2)"></path>
                <path d="M130,72 C130.276,72 130.5,71.6653386 130.5,71.252988 L130.5,69.747012 C130.5,69.3346614 130.276,69 130,69 C129.724,69 129.5,69.3346614 129.5,69.747012 L129.5,71.252988 C129.5,71.6653386 129.724,72 130,72" id="Fill-65" fill="#CAC4B4" mask="url(#mask-2)"></path>
                <path d="M130,100 C130.276,100 130.5,99.6653386 130.5,99.252988 L130.5,97.747012 C130.5,97.3346614 130.276,97 130,97 C129.724,97 129.5,97.3346614 129.5,97.747012 L129.5,99.252988 C129.5,99.6653386 129.724,100 130,100" id="Fill-66" fill="#CAC4B4" mask="url(#mask-2)"></path>
                <path d="M130,22 C129.724,22 129.5,22.3346614 129.5,22.747012 L129.5,24.252988 C129.5,24.6668327 129.724,25 130,25 C130.276,25 130.5,24.6668327 130.5,24.252988 L130.5,22.747012 C130.5,22.3346614 130.276,22 130,22" id="Fill-67" fill="#CAC4B4" mask="url(#mask-2)"></path>
                <path d="M130,50 C129.724,50 129.5,50.3346614 129.5,50.747012 L129.5,52.252988 C129.5,52.6668327 129.724,53 130,53 C130.276,53 130.5,52.6668327 130.5,52.252988 L130.5,50.747012 C130.5,50.3346614 130.276,50 130,50" id="Fill-68" fill="#CAC4B4" mask="url(#mask-2)"></path>
                <path d="M130,31 C129.724,31 129.5,31.3346614 129.5,31.747012 L129.5,33.252988 C129.5,33.6668327 129.724,34 130,34 C130.276,34 130.5,33.6668327 130.5,33.252988 L130.5,31.747012 C130.5,31.3346614 130.276,31 130,31" id="Fill-69" fill="#CAC4B4" mask="url(#mask-2)"></path>
                <path d="M130,40 C129.724,40 129.5,40.3346614 129.5,40.747012 L129.5,42.252988 C129.5,42.6668327 129.724,43 130,43 C130.276,43 130.5,42.6668327 130.5,42.252988 L130.5,40.747012 C130.5,40.3346614 130.276,40 130,40" id="Fill-70" fill="#CAC4B4" mask="url(#mask-2)"></path>
                <path d="M130,90 C130.276,90 130.5,89.6653386 130.5,89.252988 L130.5,87.747012 C130.5,87.3346614 130.276,87 130,87 C129.724,87 129.5,87.3346614 129.5,87.747012 L129.5,89.252988 C129.5,89.6653386 129.724,90 130,90" id="Fill-71" fill="#CAC4B4" mask="url(#mask-2)"></path>
                <path d="M130,134 C129.724,134 129.5,134.334661 129.5,134.747012 L129.5,136.252988 C129.5,136.666833 129.724,137 130,137 C130.276,137 130.5,136.666833 130.5,136.252988 L130.5,134.747012 C130.5,134.334661 130.276,134 130,134" id="Fill-72" fill="#CAC4B4" mask="url(#mask-2)"></path>
                <path d="M130,125 C129.724,125 129.5,125.334661 129.5,125.747012 L129.5,127.252988 C129.5,127.666833 129.724,128 130,128 C130.276,128 130.5,127.666833 130.5,127.252988 L130.5,125.747012 C130.5,125.334661 130.276,125 130,125" id="Fill-73" fill="#CAC4B4" mask="url(#mask-2)"></path>
                <path d="M130.5,155.315251 L130.5,153.767656 C130.5,153.342375 130.276,153 130,153 C129.724,153 129.5,153.342375 129.5,153.767656 L129.5,155.315251 C129.5,155.619243 129.617,155.87564 129.784,156 L130.216,156 C130.383,155.87564 130.5,155.619243 130.5,155.315251" id="Fill-74" fill="#CAC4B4" mask="url(#mask-2)"></path>
                <path d="M130,116 C129.724,116 129.5,116.334661 129.5,116.747012 L129.5,118.252988 C129.5,118.665339 129.724,119 130,119 C130.276,119 130.5,118.665339 130.5,118.252988 L130.5,116.747012 C130.5,116.334661 130.276,116 130,116" id="Fill-75" fill="#CAC4B4" mask="url(#mask-2)"></path>
                <polygon id="Fill-76" fill="#CAC4B4" mask="url(#mask-2)" points="176.5575 202 177.4425 202 177.4425 157 176.5575 157"></polygon>
                <path d="M176.5575,203 L176.5575,244.753043 C176.8525,244.835807 177.1475,244.917236 177.4425,245 L177.4425,203 L176.5575,203 Z" id="Fill-77" fill="#CAC4B4" mask="url(#mask-2)"></path>
                <polygon id="Fill-78" fill="#CAC4B4" mask="url(#mask-2)" points="176.5575 63 177.4425 63 177.4425 18 176.5575 18"></polygon>
                <path d="M176.5575,129.179115 L176.5575,156 L177.4425,156 L177.4425,129 C177.1505,129.070319 176.8565,129.134005 176.5575,129.179115" id="Fill-79" fill="#CAC4B4" mask="url(#mask-2)"></path>
                <path d="M177.4425,4.01083785 C177.1475,4.00948312 176.8525,4.00270946 176.5575,4 L176.5575,17 L177.4425,17 L177.4425,4.01083785 Z" id="Fill-80" fill="#CAC4B4" mask="url(#mask-2)"></path>
                <path d="M177.4425,93 L177.4425,65 L176.5575,65 L176.5575,92.8229259 C176.8565,92.8675224 177.1505,92.930482 177.4425,93" id="Fill-81" fill="#CAC4B4" mask="url(#mask-2)"></path>
                <path d="M223,90 C223.276,90 223.5,89.6653386 223.5,89.252988 L223.5,87.747012 C223.5,87.3346614 223.276,87 223,87 C222.724,87 222.5,87.3346614 222.5,87.747012 L222.5,89.252988 C222.5,89.6653386 222.724,90 223,90" id="Fill-82" fill="#CAC4B4" mask="url(#mask-2)"></path>
                <path d="M223,241 C223.276,241 223.5,240.665339 223.5,240.252988 L223.5,238.747012 C223.5,238.334661 223.276,238 223,238 C222.724,238 222.5,238.334661 222.5,238.747012 L222.5,240.252988 C222.5,240.665339 222.724,241 223,241" id="Fill-83" fill="#CAC4B4" mask="url(#mask-2)"></path>
                <path d="M223,109 C223.276,109 223.5,108.665339 223.5,108.252988 L223.5,106.747012 C223.5,106.334661 223.276,106 223,106 C222.724,106 222.5,106.334661 222.5,106.747012 L222.5,108.252988 C222.5,108.665339 222.724,109 223,109" id="Fill-84" fill="#CAC4B4" mask="url(#mask-2)"></path>
                <path d="M223,116 C222.724,116 222.5,116.334661 222.5,116.747012 L222.5,118.252988 C222.5,118.665339 222.724,119 223,119 C223.276,119 223.5,118.665339 223.5,118.252988 L223.5,116.747012 C223.5,116.334661 223.276,116 223,116" id="Fill-85" fill="#CAC4B4" mask="url(#mask-2)"></path>
                <path d="M223.5,155.315251 L223.5,153.767656 C223.5,153.342375 223.276,153 223,153 C222.724,153 222.5,153.342375 222.5,153.767656 L222.5,155.315251 C222.5,155.619243 222.617,155.87564 222.784,156 L223.216,156 C223.383,155.87564 223.5,155.619243 223.5,155.315251" id="Fill-86" fill="#CAC4B4" mask="url(#mask-2)"></path>
                <path d="M223,15 C223.276,15 223.5,14.6653386 223.5,14.252988 L223.5,12.747012 C223.5,12.3331673 223.276,12 223,12 C222.724,12 222.5,12.3331673 222.5,12.747012 L222.5,14.252988 C222.5,14.6653386 222.724,15 223,15" id="Fill-87" fill="#CAC4B4" mask="url(#mask-2)"></path>
                <path d="M223,212 C223.276,212 223.5,211.665339 223.5,211.252988 L223.5,209.747012 C223.5,209.334661 223.276,209 223,209 C222.724,209 222.5,209.334661 222.5,209.747012 L222.5,211.252988 C222.5,211.665339 222.724,212 223,212" id="Fill-88" fill="#CAC4B4" mask="url(#mask-2)"></path>
                <path d="M223,222 C223.276,222 223.5,221.665339 223.5,221.252988 L223.5,219.747012 C223.5,219.334661 223.276,219 223,219 C222.724,219 222.5,219.334661 222.5,219.747012 L222.5,221.252988 C222.5,221.665339 222.724,222 223,222" id="Fill-89" fill="#CAC4B4" mask="url(#mask-2)"></path>
                <path d="M223,200 C222.724,200 222.5,200.30622 222.5,200.683527 L222.5,202 L223.5,202 L223.5,200.683527 C223.5,200.30622 223.276,200 223,200" id="Fill-90" fill="#CAC4B4" mask="url(#mask-2)"></path>
                <path d="M223,231 C223.276,231 223.5,230.665339 223.5,230.252988 L223.5,228.747012 C223.5,228.334661 223.276,228 223,228 C222.724,228 222.5,228.334661 222.5,228.747012 L222.5,230.252988 C222.5,230.665339 222.724,231 223,231" id="Fill-91" fill="#CAC4B4" mask="url(#mask-2)"></path>
                <path d="M223,100 C223.276,100 223.5,99.6653386 223.5,99.252988 L223.5,97.747012 C223.5,97.3346614 223.276,97 223,97 C222.724,97 222.5,97.3346614 222.5,97.747012 L222.5,99.252988 C222.5,99.6653386 222.724,100 223,100" id="Fill-92" fill="#CAC4B4" mask="url(#mask-2)"></path>
                <path d="M223,144 C222.724,144 222.5,144.334661 222.5,144.747012 L222.5,146.252988 C222.5,146.666833 222.724,147 223,147 C223.276,147 223.5,146.666833 223.5,146.252988 L223.5,144.747012 C223.5,144.334661 223.276,144 223,144" id="Fill-93" fill="#CAC4B4" mask="url(#mask-2)"></path>
                <path d="M223,134 C222.724,134 222.5,134.334661 222.5,134.747012 L222.5,136.252988 C222.5,136.666833 222.724,137 223,137 C223.276,137 223.5,136.666833 223.5,136.252988 L223.5,134.747012 C223.5,134.334661 223.276,134 223,134" id="Fill-94" fill="#CAC4B4" mask="url(#mask-2)"></path>
                <path d="M223,125 C222.724,125 222.5,125.334661 222.5,125.747012 L222.5,127.252988 C222.5,127.666833 222.724,128 223,128 C223.276,128 223.5,127.666833 223.5,127.252988 L223.5,125.747012 C223.5,125.334661 223.276,125 223,125" id="Fill-95" fill="#CAC4B4" mask="url(#mask-2)"></path>
                <path d="M223,40 C222.724,40 222.5,40.3346614 222.5,40.747012 L222.5,42.252988 C222.5,42.6668327 222.724,43 223,43 C223.276,43 223.5,42.6668327 223.5,42.252988 L223.5,40.747012 C223.5,40.3346614 223.276,40 223,40" id="Fill-96" fill="#CAC4B4" mask="url(#mask-2)"></path>
                <path d="M223,59 C222.724,59 222.5,59.3346614 222.5,59.747012 L222.5,61.252988 C222.5,61.6668327 222.724,62 223,62 C223.276,62 223.5,61.6668327 223.5,61.252988 L223.5,59.747012 C223.5,59.3346614 223.276,59 223,59" id="Fill-97" fill="#CAC4B4" mask="url(#mask-2)"></path>
                <path d="M223,50 C222.724,50 222.5,50.3346614 222.5,50.747012 L222.5,52.252988 C222.5,52.6668327 222.724,53 223,53 C223.276,53 223.5,52.6668327 223.5,52.252988 L223.5,50.747012 C223.5,50.3346614 223.276,50 223,50" id="Fill-98" fill="#CAC4B4" mask="url(#mask-2)"></path>
                <path d="M223,31 C222.724,31 222.5,31.3346614 222.5,31.747012 L222.5,33.252988 C222.5,33.6668327 222.724,34 223,34 C223.276,34 223.5,33.6668327 223.5,33.252988 L223.5,31.747012 C223.5,31.3346614 223.276,31 223,31" id="Fill-99" fill="#CAC4B4" mask="url(#mask-2)"></path>
                <path d="M223.1885,249.481 L222.8115,249.481 C222.8695,249.505 222.9325,249.519 223.0005,249.519 C223.0675,249.519 223.1305,249.505 223.1885,249.481" id="Fill-100" fill="#CAC4B4" mask="url(#mask-2)"></path>
                <path d="M223,22 C222.724,22 222.5,22.3346614 222.5,22.747012 L222.5,24.252988 C222.5,24.6668327 222.724,25 223,25 C223.276,25 223.5,24.6668327 223.5,24.252988 L223.5,22.747012 C223.5,22.3346614 223.276,22 223,22" id="Fill-101" fill="#CAC4B4" mask="url(#mask-2)"></path>
                <path d="M223,184 C223.276,184 223.5,183.665339 223.5,183.252988 L223.5,181.747012 C223.5,181.333167 223.276,181 223,181 C222.724,181 222.5,181.333167 222.5,181.747012 L222.5,183.252988 C222.5,183.665339 222.724,184 223,184" id="Fill-102" fill="#CAC4B4" mask="url(#mask-2)"></path>
                <path d="M223,194 C223.276,194 223.5,193.665339 223.5,193.252988 L223.5,191.747012 C223.5,191.333167 223.276,191 223,191 C222.724,191 222.5,191.333167 222.5,191.747012 L222.5,193.252988 C222.5,193.665339 222.724,194 223,194" id="Fill-103" fill="#CAC4B4" mask="url(#mask-2)"></path>
                <path d="M223,81 C223.276,81 223.5,80.6653386 223.5,80.252988 L223.5,78.747012 C223.5,78.3346614 223.276,78 223,78 C222.724,78 222.5,78.3346614 222.5,78.747012 L222.5,80.252988 C222.5,80.6653386 222.724,81 223,81" id="Fill-104" fill="#CAC4B4" mask="url(#mask-2)"></path>
                <path d="M223,247.014 C222.724,247.014 222.5,247.238 222.5,247.514 L222.5,247.986 L223.5,247.986 L223.5,247.514 C223.5,247.238 223.276,247.014 223,247.014" id="Fill-105" fill="#CAC4B4" mask="url(#mask-2)"></path>
                <path d="M223,166 C223.276,166 223.5,165.665339 223.5,165.252988 L223.5,163.747012 C223.5,163.333167 223.276,163 223,163 C222.724,163 222.5,163.333167 222.5,163.747012 L222.5,165.252988 C222.5,165.665339 222.724,166 223,166" id="Fill-106" fill="#CAC4B4" mask="url(#mask-2)"></path>
                <path d="M223,175 C223.276,175 223.5,174.665339 223.5,174.252988 L223.5,172.747012 C223.5,172.333167 223.276,172 223,172 C222.724,172 222.5,172.333167 222.5,172.747012 L222.5,174.252988 C222.5,174.665339 222.724,175 223,175" id="Fill-107" fill="#CAC4B4" mask="url(#mask-2)"></path>
                <path d="M223,72 C223.276,72 223.5,71.6653386 223.5,71.252988 L223.5,69.747012 C223.5,69.3346614 223.276,69 223,69 C222.724,69 222.5,69.3346614 222.5,69.747012 L222.5,71.252988 C222.5,71.6653386 222.724,72 223,72" id="Fill-108" fill="#CAC4B4" mask="url(#mask-2)"></path>
                <polygon id="Fill-109" fill="#CAC4B4" mask="url(#mask-2)" points="268.5575 249 269.4425 249 269.4425 204 268.5575 204"></polygon>
                <polygon id="Fill-110" fill="#CAC4B4" mask="url(#mask-2)" points="268.5575 202 269.4425 202 269.4425 157 268.5575 157"></polygon>
                <path d="M268.5575,250 L268.5575,274.568503 C268.8515,274.714569 269.1475,274.855274 269.4425,275 L269.4425,250 L268.5575,250 Z" id="Fill-111" fill="#CAC4B4" mask="url(#mask-2)"></path>
                <polygon id="Fill-112" fill="#CAC4B4" mask="url(#mask-2)" points="268.5575 63 269.4425 63 269.4425 18 268.5575 18"></polygon>
                <path d="M269.4425,6.20529176 C269.1475,6.13642807 268.8525,6.06756438 268.5575,6 L268.5575,17 L269.4425,17 L269.4425,6.20529176 Z" id="Fill-113" fill="#CAC4B4" mask="url(#mask-2)"></path>
                <path d="M269,92.9708582 C269.149,92.9708582 269.294,92.9947015 269.442,93 L269.442,65 L268.558,65 L268.558,93 C268.706,92.9947015 268.851,92.9708582 269,92.9708582" id="Fill-114" fill="#CAC4B4" mask="url(#mask-2)"></path>
                <path d="M269,129.029494 C268.851,129.029494 268.706,129.005362 268.558,129 L268.558,156 L269.442,156 L269.442,129 C269.294,129.005362 269.149,129.029494 269,129.029494" id="Fill-115" fill="#CAC4B4" mask="url(#mask-2)"></path>
                <path d="M316,128 C316.276,128 316.5,127.665339 316.5,127.252988 L316.5,125.747012 C316.5,125.333167 316.276,125 316,125 C315.724,125 315.5,125.333167 315.5,125.747012 L315.5,127.252988 C315.5,127.665339 315.724,128 316,128" id="Fill-116" fill="#CAC4B4" mask="url(#mask-2)"></path>
                <path d="M316,72 C316.276,72 316.5,71.6653386 316.5,71.252988 L316.5,69.747012 C316.5,69.3346614 316.276,69 316,69 C315.724,69 315.5,69.3346614 315.5,69.747012 L315.5,71.252988 C315.5,71.6653386 315.724,72 316,72" id="Fill-117" fill="#CAC4B4" mask="url(#mask-2)"></path>
                <path d="M316,137 C316.276,137 316.5,136.665339 316.5,136.252988 L316.5,134.747012 C316.5,134.333167 316.276,134 316,134 C315.724,134 315.5,134.333167 315.5,134.747012 L315.5,136.252988 C315.5,136.665339 315.724,137 316,137" id="Fill-118" fill="#CAC4B4" mask="url(#mask-2)"></path>
                <path d="M316,241 C316.276,241 316.5,240.665339 316.5,240.252988 L316.5,238.747012 C316.5,238.334661 316.276,238 316,238 C315.724,238 315.5,238.334661 315.5,238.747012 L315.5,240.252988 C315.5,240.665339 315.724,241 316,241" id="Fill-119" fill="#CAC4B4" mask="url(#mask-2)"></path>
                <path d="M316,231 C316.276,231 316.5,230.665339 316.5,230.252988 L316.5,228.747012 C316.5,228.334661 316.276,228 316,228 C315.724,228 315.5,228.334661 315.5,228.747012 L315.5,230.252988 C315.5,230.665339 315.724,231 316,231" id="Fill-120" fill="#CAC4B4" mask="url(#mask-2)"></path>
                <path d="M316,119 C316.276,119 316.5,118.665339 316.5,118.252988 L316.5,116.747012 C316.5,116.334661 316.276,116 316,116 C315.724,116 315.5,116.334661 315.5,116.747012 L315.5,118.252988 C315.5,118.665339 315.724,119 316,119" id="Fill-121" fill="#CAC4B4" mask="url(#mask-2)"></path>
                <path d="M316,62 C316.276,62 316.5,61.6653386 316.5,61.252988 L316.5,59.747012 C316.5,59.3331673 316.276,59 316,59 C315.724,59 315.5,59.3331673 315.5,59.747012 L315.5,61.252988 C315.5,61.6653386 315.724,62 316,62" id="Fill-122" fill="#CAC4B4" mask="url(#mask-2)"></path>
                <path d="M316,53 C316.276,53 316.5,52.6653386 316.5,52.252988 L316.5,50.747012 C316.5,50.3331673 316.276,50 316,50 C315.724,50 315.5,50.3331673 315.5,50.747012 L315.5,52.252988 C315.5,52.6653386 315.724,53 316,53" id="Fill-123" fill="#CAC4B4" mask="url(#mask-2)"></path>
                <path d="M316,247.014 C315.724,247.014 315.5,247.238 315.5,247.514 L315.5,247.986 L316.5,247.986 L316.5,247.514 C316.5,247.238 316.276,247.014 316,247.014" id="Fill-124" fill="#CAC4B4" mask="url(#mask-2)"></path>
                <path d="M316,212 C316.276,212 316.5,211.665339 316.5,211.252988 L316.5,209.747012 C316.5,209.334661 316.276,209 316,209 C315.724,209 315.5,209.334661 315.5,209.747012 L315.5,211.252988 C315.5,211.665339 315.724,212 316,212" id="Fill-125" fill="#CAC4B4" mask="url(#mask-2)"></path>
                <path d="M316,222 C316.276,222 316.5,221.665339 316.5,221.252988 L316.5,219.747012 C316.5,219.334661 316.276,219 316,219 C315.724,219 315.5,219.334661 315.5,219.747012 L315.5,221.252988 C315.5,221.665339 315.724,222 316,222" id="Fill-126" fill="#CAC4B4" mask="url(#mask-2)"></path>
                <path d="M316,194 C316.276,194 316.5,193.665339 316.5,193.252988 L316.5,191.747012 C316.5,191.333167 316.276,191 316,191 C315.724,191 315.5,191.333167 315.5,191.747012 L315.5,193.252988 C315.5,193.665339 315.724,194 316,194" id="Fill-127" fill="#CAC4B4" mask="url(#mask-2)"></path>
                <path d="M316,43 C316.276,43 316.5,42.6653386 316.5,42.252988 L316.5,40.747012 C316.5,40.3331673 316.276,40 316,40 C315.724,40 315.5,40.3331673 315.5,40.747012 L315.5,42.252988 C315.5,42.6653386 315.724,43 316,43" id="Fill-128" fill="#CAC4B4" mask="url(#mask-2)"></path>
                <path d="M316,100 C316.276,100 316.5,99.6653386 316.5,99.252988 L316.5,97.747012 C316.5,97.3346614 316.276,97 316,97 C315.724,97 315.5,97.3346614 315.5,97.747012 L315.5,99.252988 C315.5,99.6653386 315.724,100 316,100" id="Fill-129" fill="#CAC4B4" mask="url(#mask-2)"></path>
                <path d="M316,184 C316.276,184 316.5,183.665339 316.5,183.252988 L316.5,181.747012 C316.5,181.333167 316.276,181 316,181 C315.724,181 315.5,181.333167 315.5,181.747012 L315.5,183.252988 C315.5,183.665339 315.724,184 316,184" id="Fill-130" fill="#CAC4B4" mask="url(#mask-2)"></path>
                <path d="M316.5,155.315251 L316.5,153.767656 C316.5,153.342375 316.276,153 316,153 C315.724,153 315.5,153.342375 315.5,153.767656 L315.5,155.315251 C315.5,155.619243 315.617,155.87564 315.784,156 L316.216,156 C316.383,155.87564 316.5,155.619243 316.5,155.315251" id="Fill-131" fill="#CAC4B4" mask="url(#mask-2)"></path>
                <path d="M316,147 C316.276,147 316.5,146.665339 316.5,146.252988 L316.5,144.747012 C316.5,144.333167 316.276,144 316,144 C315.724,144 315.5,144.333167 315.5,144.747012 L315.5,146.252988 C315.5,146.665339 315.724,147 316,147" id="Fill-132" fill="#CAC4B4" mask="url(#mask-2)"></path>
                <path d="M316.1885,249.481 L315.8115,249.481 C315.8695,249.505 315.9325,249.519 316.0005,249.519 C316.0675,249.519 316.1305,249.505 316.1885,249.481" id="Fill-133" fill="#CAC4B4" mask="url(#mask-2)"></path>
                <path d="M315.5,256.747012 L315.5,258.252988 C315.5,258.665339 315.724,259 316,259 C316.276,259 316.5,258.665339 316.5,258.252988 L316.5,256.747012 C316.5,256.334661 316.276,256 316,256 C315.724,256 315.5,256.334661 315.5,256.747012" id="Fill-134" fill="#CAC4B4" mask="url(#mask-2)"></path>
                <path d="M316,109 C316.276,109 316.5,108.665339 316.5,108.252988 L316.5,106.747012 C316.5,106.334661 316.276,106 316,106 C315.724,106 315.5,106.334661 315.5,106.747012 L315.5,108.252988 C315.5,108.665339 315.724,109 316,109" id="Fill-135" fill="#CAC4B4" mask="url(#mask-2)"></path>
                <path d="M316,175 C316.276,175 316.5,174.665339 316.5,174.252988 L316.5,172.747012 C316.5,172.333167 316.276,172 316,172 C315.724,172 315.5,172.333167 315.5,172.747012 L315.5,174.252988 C315.5,174.665339 315.724,175 316,175" id="Fill-136" fill="#CAC4B4" mask="url(#mask-2)"></path>
                <path d="M316,81 C316.276,81 316.5,80.6653386 316.5,80.252988 L316.5,78.747012 C316.5,78.3346614 316.276,78 316,78 C315.724,78 315.5,78.3346614 315.5,78.747012 L315.5,80.252988 C315.5,80.6653386 315.724,81 316,81" id="Fill-137" fill="#CAC4B4" mask="url(#mask-2)"></path>
                <path d="M316,90 C316.276,90 316.5,89.6653386 316.5,89.252988 L316.5,87.747012 C316.5,87.3346614 316.276,87 316,87 C315.724,87 315.5,87.3346614 315.5,87.747012 L315.5,89.252988 C315.5,89.6653386 315.724,90 316,90" id="Fill-138" fill="#CAC4B4" mask="url(#mask-2)"></path>
                <path d="M316,275 C315.724,275 315.5,275.334661 315.5,275.747012 L315.5,277.252988 C315.5,277.666833 315.724,278 316,278 C316.276,278 316.5,277.666833 316.5,277.252988 L316.5,275.747012 C316.5,275.334661 316.276,275 316,275" id="Fill-139" fill="#CAC4B4" mask="url(#mask-2)"></path>
                <path d="M316,200 C315.724,200 315.5,200.30622 315.5,200.683527 L315.5,202 L316.5,202 L316.5,200.683527 C316.5,200.30622 316.276,200 316,200" id="Fill-140" fill="#CAC4B4" mask="url(#mask-2)"></path>
                <path d="M316,166 C316.276,166 316.5,165.665339 316.5,165.252988 L316.5,163.747012 C316.5,163.333167 316.276,163 316,163 C315.724,163 315.5,163.333167 315.5,163.747012 L315.5,165.252988 C315.5,165.665339 315.724,166 316,166" id="Fill-141" fill="#CAC4B4" mask="url(#mask-2)"></path>
                <path d="M316,266 C315.724,266 315.5,266.334661 315.5,266.747012 L315.5,268.252988 C315.5,268.665339 315.724,269 316,269 C316.276,269 316.5,268.665339 316.5,268.252988 L316.5,266.747012 C316.5,266.334661 316.276,266 316,266" id="Fill-142" fill="#CAC4B4" mask="url(#mask-2)"></path>
                <path d="M316,285 C315.724,285 315.5,285.334661 315.5,285.747012 L315.5,287.252988 C315.5,287.666833 315.724,288 316,288 C316.276,288 316.5,287.666833 316.5,287.252988 L316.5,285.747012 C316.5,285.334661 316.276,285 316,285" id="Fill-143" fill="#CAC4B4" mask="url(#mask-2)"></path>
                <path d="M316,25 C316.276,25 316.5,24.6653386 316.5,24.252988 L316.5,22.747012 C316.5,22.3331673 316.276,22 316,22 C315.724,22 315.5,22.3331673 315.5,22.747012 L315.5,24.252988 C315.5,24.6653386 315.724,25 316,25" id="Fill-144" fill="#CAC4B4" mask="url(#mask-2)"></path>
                <path d="M316,34 C316.276,34 316.5,33.6653386 316.5,33.252988 L316.5,31.747012 C316.5,31.3331673 316.276,31 316,31 C315.724,31 315.5,31.3331673 315.5,31.747012 L315.5,33.252988 C315.5,33.6653386 315.724,34 316,34" id="Fill-145" fill="#CAC4B4" mask="url(#mask-2)"></path>
                <path d="M362.4425,109.593573 C362.1545,108.059681 361.8585,106.52849 361.5575,105 L361.5575,110 L362.4425,110 L362.4425,109.593573 Z" id="Fill-146" fill="#CAC4B4" mask="url(#mask-2)"></path>
                <path d="M361.5575,231.941881 C361.8565,231.941881 362.1485,231.976224 362.4425,232 L362.4425,204 L361.5575,204 L361.5575,231.941881 Z" id="Fill-147" fill="#CAC4B4" mask="url(#mask-2)"></path>
                <polygon id="Fill-148" fill="#CAC4B4" mask="url(#mask-2)" points="361.5575 202 362.4425 202 362.4425 157 361.5575 157"></polygon>
                <polygon id="Fill-149" fill="#CAC4B4" mask="url(#mask-2)" points="361.5575 156 362.4425 156 362.4425 111 361.5575 111"></polygon>
                <path d="M361.5575,268.059509 L361.5575,289 C361.8535,288.887744 362.1475,288.77143 362.4425,288.656469 L362.4425,268 C362.1485,268.024345 361.8565,268.059509 361.5575,268.059509" id="Fill-150" fill="#CAC4B4" mask="url(#mask-2)"></path>
                <path d="M310.5,17.999 C309.684073,17.665 308.873479,17.323 308.049553,17.001 L29.7532208,17.001 C29.3359249,17.334 28.9092966,17.66 28.5,17.999 L310.5,17.999 Z" id="Fill-151" fill="#CAC4B4" mask="url(#mask-2)"></path>
                <path d="M65.4339152,63.001 L7.88197024,63.001 C7.7511223,63.333 7.62820454,63.667 7.5,63.999 L65.5,63.999 C65.4682793,63.668 65.4339152,63.338 65.4339152,63.001" id="Fill-152" fill="#CAC4B4" mask="url(#mask-2)"></path>
                <path d="M101.5,63.999 L347.5,63.999 C347.292762,63.666 347.086852,63.332 346.876956,63.001 L101.567751,63.001 C101.567751,63.338 101.530554,63.668 101.5,63.999" id="Fill-153" fill="#CAC4B4" mask="url(#mask-2)"></path>
                <path d="M287.5,110.001 C287.532153,110.332 287.568325,110.662 287.568325,110.999 L363.5,110.999 C363.388805,110.666 363.27627,110.334 363.162395,110.001 L287.5,110.001 Z" id="Fill-154" fill="#CAC4B4" mask="url(#mask-2)"></path>
                <path d="M250.432552,110.999 C250.432552,110.662 250.466937,110.332 250.5,110.001 L194.5,110.001 C194.530418,110.332 194.566125,110.662 194.566125,110.999 L250.432552,110.999 Z" id="Fill-155" fill="#CAC4B4" mask="url(#mask-2)"></path>
                <path d="M158.431909,110.999 C158.431909,110.662 158.466622,110.332 158.5,110.001 L-0.491989252,110.001 C-0.495994626,110.333 -0.5,110.666 -0.5,110.999 L158.431909,110.999 Z" id="Fill-156" fill="#CAC4B4" mask="url(#mask-2)"></path>
                <path d="M7.5,156.001 C7.64907178,156.334 7.79148856,156.668 7.94455333,156.999 L371.5,156.999 C371.472049,156.667 371.442767,156.334 371.413485,156.001 L7.5,156.001 Z" id="Fill-157" fill="#CAC4B4" mask="url(#mask-2)"></path>
                <path d="M376.5,202.999 C376.410834,202.666 376.31102,202.336 376.225847,202.001 L42.5,202.001 C43.1481199,202.335 43.7935781,202.671 44.4456905,202.999 L376.5,202.999 Z" id="Fill-158" fill="#CAC4B4" mask="url(#mask-2)"></path>
                <path d="M381.5,249.999 L381.5,249.001 L379.5,249.001 C379.538023,249.332 379.574525,249.663 379.576046,249.999 L381.5,249.999 Z" id="Fill-159" fill="#CAC4B4" mask="url(#mask-2)"></path>
                <path d="M343.432027,249.999 C343.43336,249.663 343.465347,249.332 343.5,249.001 L191.5,249.001 C193.392586,249.327 195.282507,249.659 197.169762,249.999 L343.432027,249.999 Z" id="Fill-160" fill="#CAC4B4" mask="url(#mask-2)"></path>
                <path d="M83.7437676,52.0378645 C83.4962959,52.0216369 83.2501764,52 83,52 C76.6482244,52 71.5,57.1482244 71.5,63.5 C71.5,63.783984 71.5216369,64.0612065 71.5419214,64.3397813 C71.9733067,70.2966839 76.9322084,75 83,75 C83.2501764,75 83.4962959,74.9783631 83.7437676,74.9621355 C89.4667215,74.5956609 94.042921,70.0505644 94.4567262,64.3397813 C94.4770108,64.0612065 94.5,63.783984 94.5,63.5 C94.5,57.3997531 89.7466486,52.4232714 83.7437676,52.0378645" id="Fill-161" fill="#83C0AF" mask="url(#mask-2)"></path>
                <path d="M177,122 C177.446261,122 177.88576,121.968897 178.319849,121.918862 C178.570026,121.890463 178.817498,121.849894 179.062265,121.805268 C184.42821,120.831609 188.5,116.145873 188.5,110.5 C188.5,110.217368 188.477011,109.938794 188.458079,109.660219 C188.076729,104.395696 184.159102,100.119708 179.062265,99.1947319 C178.817498,99.1501058 178.570026,99.1095367 178.319849,99.0811383 C177.88576,99.0324553 177.446261,99 177,99 C170.933561,99 165.974659,103.703316 165.541921,109.660219 C165.522989,109.938794 165.5,110.217368 165.5,110.5 C165.5,116.851776 170.649577,122 177,122" id="Fill-162" fill="#E8AF5F" mask="url(#mask-2)"></path>
                <path d="M269.371884,99.0189323 C269.246119,99.0148754 269.124412,99 269,99 C268.874236,99 268.752528,99.0148754 268.626764,99.0189323 C262.730715,99.2082549 257.963841,103.826376 257.541921,109.661571 C257.521637,109.938794 257.5,110.217368 257.5,110.5 C257.5,116.726011 262.450788,121.783631 268.626764,121.981068 C268.752528,121.985125 268.874236,122 269,122 C269.124412,122 269.246119,121.985125 269.371884,121.981068 C275.54786,121.783631 280.5,116.726011 280.5,110.5 C280.5,110.217368 280.477011,109.938794 280.456726,109.661571 C280.034807,103.826376 275.267933,99.2082549 269.371884,99.0189323" id="Fill-163" fill="#E8AF5F" mask="url(#mask-2)"></path>
                <path d="M349.543274,248.628388 C349.521637,248.906979 349.502705,249.185571 349.501352,249.468219 C349.501352,249.479038 349.5,249.489857 349.5,249.500676 C349.5,255.851473 354.648224,261 361,261 C361.250176,261 361.496296,260.978362 361.742415,260.963486 C367.746649,260.578056 372.5,255.599929 372.5,249.500676 C372.5,249.489857 372.498648,249.479038 372.498648,249.468219 C372.497295,249.185571 372.477011,248.906979 372.455374,248.628388 C372.026693,242.932146 367.457255,238.403011 361.742415,238.036514 C361.496296,238.021638 361.250176,238 361,238 C354.941675,238 349.990887,242.684659 349.543274,248.628388" id="Fill-164" fill="#E4927D" mask="url(#mask-2)"></path>
            </g>
        </g>
    </g>
</svg>