<?xml version="1.0" encoding="UTF-8"?>
<svg width="369px" height="178px" viewBox="0 0 369 178" version="1.1" xmlns="http://www.w3.org/2000/svg" xmlns:xlink="http://www.w3.org/1999/xlink">
    <!-- Generator: Sketch 62 (91390) - https://sketch.com -->
    <title>Group 6@2x</title>
    <desc>Created with Sketch.</desc>
    <g id="Website" stroke="none" stroke-width="1" fill="none" fill-rule="evenodd">
        <g id="HomePage" transform="translate(-158.000000, -1698.000000)">
            <g id="Group-6" transform="translate(158.000000, 1698.000000)">
                <g id="Group-2">
                    <rect id="Rectangle" fill="#EEE7D6" x="0" y="0" width="369" height="54" rx="10"></rect>
                    <rect id="Rectangle" fill="#E5937E" x="139" y="19" width="33" height="17" rx="8.5"></rect>
                    <rect id="Rectangle-Copy-5" fill="#E5937E" x="182" y="19" width="34" height="17" rx="8.5"></rect>
                    <rect id="Rectangle-Copy-6" fill="#E5937E" x="226" y="19" width="33" height="17" rx="8.5"></rect>
                    <rect id="Rectangle-Copy-3" fill="#83C0B0" x="314" y="19" width="33" height="17" rx="8.5"></rect>
                    <rect id="Rectangle-Copy-4" fill="#E9B474" x="270" y="19" width="34" height="17" rx="8.5"></rect>
                    <g id="man_icon" transform="translate(13.000000, 11.000000)" fill="#CDC6B5">
                        <path d="M6.00790667,5.51908571 C6.00790667,8.5672127 8.49446222,11.0383238 11.56164,11.0383238 C14.6288178,11.0383238 17.1148622,8.5672127 17.1148622,5.51908571 C17.1148622,2.47095873 14.6288178,-0.000152380952 11.56164,-0.000152380952 C8.49446222,-0.000152380952 6.00790667,2.47095873 6.00790667,5.51908571" id="Fill-1"></path>
                        <path d="M17.9985733,10.4280381 C16.6574178,12.6035302 14.2449733,14.100419 11.56164,14.100419 C8.85735111,14.100419 6.43928444,12.5979429 5.10477333,10.4082286 C2.29724,10.4087365 0.000306666667,12.692419 0.000306666667,15.4825143 L0.000306666667,26.8394667 C0.000306666667,29.6305778 2.29775111,31.9137524 5.10630667,31.9137524 L17.6050178,31.9137524 C20.4135733,31.9137524 22.7115289,29.6305778 22.7115289,26.8394667 L22.7115289,15.4825143 C22.7115289,12.8234667 20.6246622,10.6296889 17.9985733,10.4280381" id="Fill-3"></path>
                    </g>
                </g>
                <g id="Group-2-Copy" transform="translate(0.000000, 62.000000)">
                    <rect id="Rectangle" fill="#EEE7D6" x="0" y="0" width="369" height="54" rx="10"></rect>
                    <rect id="Rectangle" fill="#83C0B0" x="139" y="19" width="33" height="17" rx="8.5"></rect>
                    <rect id="Rectangle-Copy-5" fill="#E9B474" x="182" y="19" width="34" height="17" rx="8.5"></rect>
                    <rect id="Rectangle-Copy-6" fill="#83C0B0" x="226" y="19" width="33" height="17" rx="8.5"></rect>
                    <rect id="Rectangle-Copy-3" fill="#83C0B0" x="314" y="19" width="33" height="17" rx="8.5"></rect>
                    <rect id="Rectangle-Copy-4" fill="#83C0B0" x="270" y="19" width="34" height="17" rx="8.5"></rect>
                    <g id="man_icon" transform="translate(13.000000, 11.000000)" fill="#CDC6B5">
                        <path d="M6.00790667,5.51908571 C6.00790667,8.5672127 8.49446222,11.0383238 11.56164,11.0383238 C14.6288178,11.0383238 17.1148622,8.5672127 17.1148622,5.51908571 C17.1148622,2.47095873 14.6288178,-0.000152380952 11.56164,-0.000152380952 C8.49446222,-0.000152380952 6.00790667,2.47095873 6.00790667,5.51908571" id="Fill-1"></path>
                        <path d="M17.9985733,10.4280381 C16.6574178,12.6035302 14.2449733,14.100419 11.56164,14.100419 C8.85735111,14.100419 6.43928444,12.5979429 5.10477333,10.4082286 C2.29724,10.4087365 0.000306666667,12.692419 0.000306666667,15.4825143 L0.000306666667,26.8394667 C0.000306666667,29.6305778 2.29775111,31.9137524 5.10630667,31.9137524 L17.6050178,31.9137524 C20.4135733,31.9137524 22.7115289,29.6305778 22.7115289,26.8394667 L22.7115289,15.4825143 C22.7115289,12.8234667 20.6246622,10.6296889 17.9985733,10.4280381" id="Fill-3"></path>
                    </g>
                </g>
                <g id="Group-2-Copy-2" transform="translate(0.000000, 124.000000)">
                    <rect id="Rectangle" fill="#EEE7D6" x="0" y="0" width="369" height="54" rx="10"></rect>
                    <rect id="Rectangle" fill="#E9B474" x="139" y="19" width="33" height="17" rx="8.5"></rect>
                    <rect id="Rectangle-Copy-5" fill="#E9B474" x="182" y="19" width="34" height="17" rx="8.5"></rect>
                    <rect id="Rectangle-Copy-6" fill="#E5937E" x="226" y="19" width="33" height="17" rx="8.5"></rect>
                    <rect id="Rectangle-Copy-3" fill="#E5937E" x="314" y="19" width="33" height="17" rx="8.5"></rect>
                    <rect id="Rectangle-Copy-4" fill="#E5937E" x="270" y="19" width="34" height="17" rx="8.5"></rect>
                    <g id="man_icon" transform="translate(13.000000, 11.000000)" fill="#CDC6B5">
                        <path d="M6.00790667,5.51908571 C6.00790667,8.5672127 8.49446222,11.0383238 11.56164,11.0383238 C14.6288178,11.0383238 17.1148622,8.5672127 17.1148622,5.51908571 C17.1148622,2.47095873 14.6288178,-0.000152380952 11.56164,-0.000152380952 C8.49446222,-0.000152380952 6.00790667,2.47095873 6.00790667,5.51908571" id="Fill-1"></path>
                        <path d="M17.9985733,10.4280381 C16.6574178,12.6035302 14.2449733,14.100419 11.56164,14.100419 C8.85735111,14.100419 6.43928444,12.5979429 5.10477333,10.4082286 C2.29724,10.4087365 0.000306666667,12.692419 0.000306666667,15.4825143 L0.000306666667,26.8394667 C0.000306666667,29.6305778 2.29775111,31.9137524 5.10630667,31.9137524 L17.6050178,31.9137524 C20.4135733,31.9137524 22.7115289,29.6305778 22.7115289,26.8394667 L22.7115289,15.4825143 C22.7115289,12.8234667 20.6246622,10.6296889 17.9985733,10.4280381" id="Fill-3"></path>
                    </g>
                </g>
            </g>
        </g>
    </g>
</svg>