<?xml version="1.0" encoding="UTF-8"?>
<svg width="195px" height="62px" viewBox="0 0 195 62" version="1.1" xmlns="http://www.w3.org/2000/svg" xmlns:xlink="http://www.w3.org/1999/xlink">
    <!-- Generator: Sketch 62 (91390) - https://sketch.com -->
    <title>Group 10</title>
    <desc>Created with Sketch.</desc>
    <g id="Symbols" stroke="none" stroke-width="1" fill="none" fill-rule="evenodd">
        <g id="Top" transform="translate(-40.000000, -40.000000)" fill="#67A495">
            <g id="Logo_green" transform="translate(40.000000, 40.000000)">
                <path d="M186.155254,1.0658141e-14 C192.389874,1.0658141e-14 194.037037,5.15151101 194.037037,7.87570767 L194.037037,53.5502183 C194.037037,59.7795786 188.881751,61.4259259 186.155254,61.4259259 L7.88178298,61.4259259 C1.64773748,61.4259259 5.68434189e-13,56.2744149 5.68434189e-13,53.5502183 L5.68434189e-13,7.87570767 C5.68434189e-13,1.64634735 5.15586081,1.0658141e-14 7.88178298,1.0658141e-14 L186.155254,1.0658141e-14 Z M58.688,2.845 L7.88695551,2.84593563 C7.35935767,2.85167804 2.84776394,3.04290011 2.84776394,7.87570767 L2.84776394,53.5502183 C2.85408592,54.0589953 3.03857275,58.5799903 7.88178298,58.5799903 L58.688,58.579 L58.688,2.845 Z M186.155254,2.84593563 L61.535,2.845 L61.535,58.579 L186.189775,58.5794128 C186.840165,58.5652294 191.189273,58.2950207 191.189273,53.5502183 L191.189273,7.87570767 C191.183526,7.36693064 190.998464,2.84593563 186.155254,2.84593563 Z M29.6844476,16.5737277 C30.8522895,16.3434572 32.03335,16.3101513 33.1603863,16.4847204 C33.761549,16.5783216 34.3517919,16.7350892 34.9029535,16.9395188 C36.7185108,17.6332013 38.1162427,18.8896394 38.9403988,20.5882426 C39.5076527,21.7487825 39.8467407,23.1011188 39.8817989,23.794227 C39.9168572,24.4873352 39.9111099,24.486761 39.9111099,24.486761 L39.9101514,24.5044613 C39.9048376,24.6907971 39.8969784,26.2912947 39.9191561,26.5804416 C39.9685824,27.2293333 39.605356,27.835157 38.9995956,28.0734668 L38.9995956,28.0734668 L38.569701,28.2422935 C37.7225559,28.5765014 36.7317295,28.076338 36.5897723,27.1770774 C36.4995404,26.6022628 36.5891976,23.3061226 35.8719404,22.0359028 C34.7983535,19.8595315 32.2316302,19.5052251 30.38044,19.8802041 C28.1125739,20.3372995 26.2872463,21.9262228 25.4389517,24.1043168 L25.4389517,24.1043168 L25.4142385,24.1749484 C25.3067649,24.4402475 25.2314759,24.7101405 25.1550374,24.9909441 C25.0188275,25.5870057 24.9636539,26.1526325 24.9872176,26.7084972 L24.9872176,26.7084972 L24.9877923,26.7308926 C25.0665297,28.6052134 26.0108034,30.2877379 27.0596771,32.1695238 C27.0705969,32.1850283 27.2096804,32.4187442 27.1964617,32.4170215 C28.3470618,34.4687826 29.5758245,36.7996245 29.6022619,39.580671 C29.5993883,40.7234095 30.3775664,41.4423585 31.1402269,41.6542532 C32.2770335,41.9758279 33.4920028,41.2741061 34.3943216,39.8069217 L34.3943216,39.8069217 L34.4052414,39.8212777 C35.0052546,38.8249706 35.3546876,37.7097956 35.3799755,36.6773113 C35.3897458,36.2667294 35.3477909,35.2371163 34.8822634,34.3275194 C34.4299546,33.4202195 33.5655677,32.6484404 33.2207325,32.3550035 C32.6448577,31.8938884 31.9753027,31.603897 31.2787357,31.4023386 C33.221882,31.4781384 35.1104293,32.2499175 36.5667833,33.5522948 L36.5667833,33.5522948 L36.7777075,33.7578729 C38.1955548,35.1343273 38.6265988,37.1280901 38.2898098,38.9495808 C38.1214153,39.8614746 37.7926724,40.7722199 37.5495636,41.1667231 C37.3070295,41.560652 35.4219305,45.3575299 30.8310246,45.0325098 C30.625273,45.0181538 30.4246938,44.9584327 30.2350345,44.9078996 C27.8223376,44.2406322 26.1981639,42.1044577 26.1717265,39.5869876 C26.1694276,37.5501568 25.1458418,35.7234979 24.063634,33.7785456 C22.5664746,31.109476 20.8825294,28.0861001 21.8285273,24.1927499 C22.7900427,20.2689649 25.8050517,17.3472295 29.6844476,16.5737277 Z M85.8567782,16.3735474 L83.1457988,35.8385757 C83.0423483,36.7160151 82.990623,37.3614614 82.990623,37.773766 C82.990623,39.9156829 83.7268461,40.9854928 85.1987177,40.9854928 C85.9728727,40.9854928 86.6958771,40.7667072 87.3671563,40.3279875 L87.3671563,40.3279875 L88.141886,42.8046865 C87.0056541,43.5265068 85.702177,43.8882783 84.2303055,43.8882783 C82.6291208,43.8882783 81.4865669,43.3720361 80.8026437,42.340126 C80.1181459,41.3087902 79.7761843,39.954157 79.7761843,38.2768007 C79.7761843,37.7611327 79.8279096,36.9612158 79.9313601,35.8776241 L79.9313601,35.8776241 L82.6808461,16.3735474 L85.8567782,16.3735474 Z M117.886795,16.3735474 L115.175815,35.8385757 C115.072365,36.7160151 115.021214,37.3614614 115.021214,37.773766 C115.021214,39.9156829 115.756863,40.9854928 117.228734,40.9854928 C118.003464,40.9854928 118.725894,40.7667072 119.397748,40.3279875 L119.397748,40.3279875 L120.171903,42.8046865 C119.035671,43.5265068 117.732194,43.8882783 116.260322,43.8882783 C114.659137,43.8882783 113.516583,43.3720361 112.83266,42.340126 C112.148162,41.3087902 111.806201,39.954157 111.806201,38.2768007 C111.806201,37.7611327 111.857926,36.9612158 111.961377,35.8776241 L111.961377,35.8776241 L114.710863,16.3735474 L117.886795,16.3735474 Z M146.470184,16.3735474 L143.75863,35.8385757 C143.655179,36.7160151 143.604028,37.3614614 143.604028,37.773766 C143.604028,39.9156829 144.339677,40.9854928 145.811548,40.9854928 C146.586278,40.9854928 147.308708,40.7667072 147.980562,40.3279875 L147.980562,40.3279875 L148.755291,42.8046865 C147.618485,43.5265068 146.315008,43.8882783 144.843136,43.8882783 C143.241952,43.8882783 142.099398,43.3720361 141.415474,42.340126 C140.730977,41.3087902 140.389015,39.954157 140.389015,38.2768007 C140.389015,37.7611327 140.44074,36.9612158 140.544191,35.8776241 L140.544191,35.8776241 L143.294252,16.3735474 L146.470184,16.3735474 Z M99.9938715,23.1070909 C101.026653,23.1070909 102.059434,23.3333416 103.092216,23.7841204 C104.124997,24.2360476 104.886508,24.874603 105.377324,25.6997865 L105.377324,25.6997865 L105.687675,23.6101255 L109.018208,23.6101255 L107.391736,35.0260255 C107.210697,36.1871397 107.120465,37.2064165 107.120465,38.0832816 C107.120465,39.0118284 107.261848,39.7732712 107.546337,40.3664616 C107.830251,40.9602262 108.385436,41.243901 109.211891,41.2180602 L109.211891,41.2180602 L108.127384,43.8492299 C107.068165,43.8492299 106.216422,43.5781884 105.571006,43.0366797 C104.925589,42.4951709 104.357186,41.7084615 103.866945,40.6759772 C102.962902,41.7084615 101.930696,42.4951709 100.768601,43.0366797 C99.6065066,43.5781884 98.3415362,43.8492299 96.9731152,43.8492299 C95.4489437,43.8492299 94.1650073,43.4495586 93.119582,42.6496416 C92.0735819,41.8502989 91.2856335,40.8057556 90.7568862,39.514863 C90.2269895,38.225119 89.9626158,36.8320117 89.9626158,35.3355411 C89.9626158,33.3756585 90.3695213,31.4531015 91.1827577,29.5695928 C91.995994,27.6866584 93.1638358,26.1390804 94.6880074,24.9257104 C96.2110294,23.7134888 97.980034,23.1070909 99.9938715,23.1070909 Z M132.101476,23.1461392 C133.779674,23.1461392 135.167061,23.6428572 136.264786,24.6357189 C137.361937,25.6291549 137.910799,26.9516306 137.910799,28.6019977 C137.910799,29.9956792 137.510216,31.1504768 136.710198,32.065816 C135.909606,32.9817295 134.876825,33.6524424 133.611854,34.0779545 C132.346309,34.5034667 131.029613,34.7165099 129.661192,34.7165099 C127.776093,34.7165099 126.239852,34.3168386 125.05247,33.5169216 C125.026033,33.7236482 125.00017,33.9877988 124.974882,34.3105219 C124.949019,34.633245 124.935801,35.0133922 124.935801,35.4521119 C124.935801,36.9996899 125.374891,38.3152748 126.253071,39.3988665 C127.130677,40.4824582 128.318634,41.0245412 129.816368,41.0245412 C130.770987,41.0245412 131.765262,40.8183889 132.798618,40.4049357 C133.830824,39.9926311 134.696361,39.4511224 135.393503,38.7798353 L135.393503,38.7798353 L136.284327,41.1790118 C135.457297,42.0053438 134.379687,42.6565325 133.050347,43.1331521 C131.719858,43.6103459 130.435922,43.8492299 129.19624,43.8492299 C126.795037,43.8492299 124.929479,43.0889356 123.600139,41.5660499 C122.26965,40.0443127 121.605268,38.0706483 121.605268,35.6450567 C121.605268,33.5818108 122.031139,31.5886222 122.883457,29.6666395 C123.7352,27.7446567 124.955341,26.1775545 126.543307,24.9647587 C128.131274,23.7525371 129.983613,23.1461392 132.101476,23.1461392 Z M160.607277,23.1070909 C161.639484,23.1070909 162.672265,23.3333416 163.705621,23.7841204 C164.737828,24.2360476 165.499914,24.874603 165.990729,25.6997865 L165.990729,25.6997865 L166.300506,23.6101255 L169.631614,23.6101255 L168.004566,35.0260255 C167.823528,36.1871397 167.733296,37.2064165 167.733296,38.0832816 C167.733296,39.0118284 167.875253,39.7732712 168.159742,40.3664616 C168.443657,40.9602262 168.998267,41.243901 169.825296,41.2180602 L169.825296,41.2180602 L168.74079,43.8492299 C167.681571,43.8492299 166.829253,43.5781884 166.184411,43.0366797 C165.53842,42.4951709 164.970592,41.7084615 164.480351,40.6759772 C163.576308,41.7084615 162.543527,42.4951709 161.382007,43.0366797 C160.219912,43.5781884 158.954367,43.8492299 157.585946,43.8492299 C156.062349,43.8492299 154.778413,43.4495586 153.732413,42.6496416 C152.686413,41.8502989 151.898464,40.8057556 151.369717,39.514863 C150.840395,38.225119 150.576021,36.8320117 150.576021,35.3355411 C150.576021,33.3756585 150.982352,31.4531015 151.795588,29.5695928 C152.609399,27.6866584 153.777241,26.1390804 155.300838,24.9257104 C156.824435,23.7134888 158.592865,23.1070909 160.607277,23.1070909 Z M100.303648,26.164347 C98.8835022,26.164347 97.6443944,26.59675 96.5857504,27.4609819 C95.5265316,28.3252138 94.720192,29.4214388 94.1650073,30.7502312 C93.6092479,32.0790236 93.3322303,33.4267659 93.3322303,34.7940324 C93.3322303,36.4713887 93.7581018,37.8702384 94.6104194,38.9928785 C95.4627371,40.1149443 96.7018449,40.6759772 98.3283175,40.6759772 C98.8708582,40.6759772 99.5547813,40.5347141 100.381236,40.2504651 C101.207117,39.9667903 101.949662,39.5866431 102.608297,39.1088751 C103.266932,38.6316812 103.6474,38.1217557 103.750851,37.580247 C103.853727,37.1156865 103.957177,36.3938662 104.060628,35.4130636 C104.112353,35.1810704 104.163504,34.8072399 104.215804,34.2909977 L104.215804,34.2909977 L104.447993,32.820368 C104.499718,32.4333299 104.570409,31.9756603 104.661216,31.4467848 C104.751448,30.9179094 104.835358,30.3051948 104.912945,29.6086412 L104.912945,29.6086412 L104.912945,29.4151221 C104.912945,28.7702501 104.661216,28.1960097 104.157756,27.6929751 C103.654297,27.1899404 103.04049,26.809219 102.318061,26.551385 C101.594481,26.2935511 100.923777,26.164347 100.303648,26.164347 Z M160.917054,26.164347 C159.496333,26.164347 158.257225,26.59675 157.198581,27.4609819 C156.139937,28.3252138 155.333023,29.4214388 154.778413,30.7502312 C154.222653,32.0790236 153.945636,33.4267659 153.945636,34.7940324 C153.945636,36.4713887 154.371507,37.8702384 155.22325,38.9928785 C156.075568,40.1149443 157.31525,40.6759772 158.941723,40.6759772 C159.483689,40.6759772 160.167612,40.5347141 160.994642,40.2504651 C161.820522,39.9667903 162.563067,39.5866431 163.221702,39.1088751 C163.879763,38.6316812 164.260231,38.1217557 164.364256,37.580247 C164.467132,37.1156865 164.570583,36.3938662 164.674033,35.4130636 C164.725184,35.1810704 164.776909,34.8072399 164.828634,34.2909977 L164.828634,34.2909977 L165.061398,32.820368 C165.112549,32.4333299 165.18324,31.9756603 165.274047,31.4467848 C165.364278,30.9179094 165.448188,30.3051948 165.525776,29.6086412 L165.525776,29.6086412 L165.525776,29.4151221 C165.525776,28.7702501 165.274047,28.1960097 164.770587,27.6929751 C164.267128,27.1899404 163.653321,26.809219 162.930891,26.551385 C162.207887,26.2935511 161.536608,26.164347 160.917054,26.164347 Z M131.598017,25.815783 C128.834737,25.815783 126.846762,27.5959284 125.632943,31.1562192 C125.994445,31.4921498 126.568595,31.7563004 127.356544,31.9498195 C128.143917,32.1433385 128.8606,32.2398109 129.506016,32.2398109 C130.900875,32.2398109 132.139983,31.9561361 133.224489,31.3887865 C134.308996,30.821437 134.850962,29.9055235 134.850962,28.641046 C134.850962,27.7641809 134.534863,27.0739439 133.90209,26.5709092 C133.269318,26.0673004 132.501485,25.815783 131.598017,25.815783 Z" id="Combined-Shape"></path>
            </g>
        </g>
    </g>
</svg>