<?xml version="1.0" encoding="UTF-8"?>
<svg width="338px" height="108px" viewBox="0 0 338 108" version="1.1" xmlns="http://www.w3.org/2000/svg" xmlns:xlink="http://www.w3.org/1999/xlink">
    <!-- Generator: Sketch 62 (91390) - https://sketch.com -->
    <title>Logo_green</title>
    <desc>Created with Sketch.</desc>
    <g id="Logo_green" stroke="none" stroke-width="1" fill="none" fill-rule="evenodd">
        <path d="M324.270443,2.13162821e-14 C335.130749,2.13162821e-14 338,8.97359983 338,13.7189747 L338,93.2810253 C338,104.132169 329.019824,107 324.270443,107 L13.7295575,107 C2.87025239,107 9.9475983e-13,98.0264002 9.9475983e-13,93.2810253 L9.9475983e-13,13.7189747 C9.9475983e-13,2.86783087 8.9811769,2.13162821e-14 13.7295575,2.13162821e-14 L324.270443,2.13162821e-14 Z M102.23,4.957 L13.7385677,4.95743627 C12.8195263,4.96743916 4.96062106,5.30053567 4.96062106,13.7189747 L4.96062106,93.2810253 C4.97163354,94.1672821 5.29299769,102.042564 13.7295575,102.042564 L102.23,102.042 L102.23,4.957 Z M324.270443,4.95743627 L107.191,4.957 L107.191,102.042 L324.270443,102.042564 C325.157448,102.032561 333.039379,101.711468 333.039379,93.2810253 L333.039379,13.7189747 C333.029368,12.8327179 332.707002,4.95743627 324.270443,4.95743627 Z M51.7083926,28.8703643 C53.7426978,28.4692481 55.800029,28.4112313 57.7632536,28.7153194 C58.8104402,28.8783666 59.8386053,29.1514457 60.7986932,29.5075489 C63.9612768,30.715899 66.3960357,32.9045331 67.8316625,35.8633903 C68.8197822,37.884976 69.4104515,40.2406585 69.4715207,41.4480083 C69.5325899,42.6553581 69.5225785,42.6543578 69.5225785,42.6543578 L69.5215028,42.6676309 C69.5122695,42.8880734 69.4971266,45.7868423 69.5365944,46.3014144 C69.622692,47.4317419 68.989975,48.4870476 67.9347794,48.9021679 L67.9347794,48.9021679 L67.1859308,49.1962531 C65.7102587,49.7784218 63.9843029,48.9071694 63.7370227,47.3407155 C63.5798446,46.3394254 63.7360216,40.597762 62.4866058,38.3851209 C60.6164867,34.5940226 56.1454204,33.9768438 52.9207664,34.630033 C48.97029,35.4262637 45.7906871,38.1940656 44.3130127,41.9881648 C44.3020002,42.0291767 44.2799752,42.0691883 44.2699639,42.1112004 C44.0827518,42.5733343 43.9516031,43.0434705 43.8184523,43.5326123 C43.5811834,44.5709131 43.4850745,45.5561985 43.526121,46.5244791 C43.5251199,46.5374828 43.5271222,46.5504866 43.5271222,46.5634904 C43.6642776,49.8284363 45.3091414,52.7592854 47.1362117,56.0372351 C47.1552333,56.0642429 47.3975078,56.4713609 47.3744817,56.46836 C49.3787528,60.0423955 51.5191782,64.1025718 51.5652304,68.9469753 C51.5602248,70.937552 52.9157608,72.1899148 54.2442661,72.5590218 C56.22451,73.1191841 58.3409082,71.8968299 59.9126892,69.3410895 L59.9126892,69.3410895 L59.9317108,69.3660967 C60.9768951,67.6305939 61.5855848,65.6880311 61.6296348,63.88951 C61.646654,63.1743028 61.5735712,61.3807832 60.7626524,59.7963242 C59.9747596,58.2158663 58.4690534,56.8714768 57.8683727,56.3603287 C56.8652361,55.557096 55.6989145,55.0519496 54.4855395,54.7008479 C57.870375,54.8328862 61.1601027,56.1772757 63.6969773,58.4459329 L63.6969773,58.4459329 L64.0643937,58.8040367 C66.5341923,61.2017313 67.2850431,64.6747375 66.6983783,67.8476568 C66.405046,69.436117 65.8323971,71.0225766 65.4089172,71.7097757 C64.9864385,72.3959745 61.7027176,79.0098907 53.7056558,78.4437267 C53.3472497,78.4187194 52.9978538,78.3146893 52.6674794,78.2266638 C48.4647171,77.064327 45.6355112,73.343249 45.5894591,68.9579785 C45.5854545,65.4099505 43.8024341,62.2280287 41.917298,58.8400471 C39.3093428,54.1907001 36.376019,48.9241743 38.0238862,42.1422094 C39.6987841,35.3072292 44.9507353,30.2177547 51.7083926,28.8703643 Z M149.556968,28.5216633 L144.834617,62.4284868 C144.654413,63.9569296 144.564311,65.0812553 144.564311,65.7994634 C144.564311,69.5305444 145.846764,71.3940843 148.410669,71.3940843 C149.759198,71.3940843 151.018625,71.0129739 152.18795,70.2487524 L152.18795,70.2487524 L153.537479,74.5630024 C151.558236,75.8203666 149.287663,76.4505492 146.723758,76.4505492 C143.934597,76.4505492 141.944342,75.5512887 140.752992,73.7537679 C139.560641,71.9572474 138.964966,69.5975638 138.964966,66.6757173 C138.964966,65.777457 139.055068,64.3840533 139.235273,62.4965065 L139.235273,62.4965065 L144.0247,28.5216633 L149.556968,28.5216633 Z M205.351191,28.5216633 L200.62884,62.4284868 C200.448636,63.9569296 200.359535,65.0812553 200.359535,65.7994634 C200.359535,69.5305444 201.640987,71.3940843 204.204892,71.3940843 C205.554421,71.3940843 206.812847,71.0129739 207.983173,70.2487524 L207.983173,70.2487524 L209.331701,74.5630024 C207.352459,75.8203666 205.081886,76.4505492 202.51798,76.4505492 C199.72882,76.4505492 197.738565,75.5512887 196.547215,73.7537679 C195.354864,71.9572474 194.759189,69.5975638 194.759189,66.6757173 C194.759189,65.777457 194.849291,64.3840533 195.029495,62.4965065 L195.029495,62.4965065 L199.818922,28.5216633 L205.351191,28.5216633 Z M255.14161,28.5216633 L250.418258,62.4284868 C250.238054,63.9569296 250.148953,65.0812553 250.148953,65.7994634 C250.148953,69.5305444 251.430405,71.3940843 253.99431,71.3940843 C255.343839,71.3940843 256.602265,71.0129739 257.772591,70.2487524 L257.772591,70.2487524 L259.122121,74.5630024 C257.141877,75.8203666 254.871304,76.4505492 252.307399,76.4505492 C249.518238,76.4505492 247.527983,75.5512887 246.336633,73.7537679 C245.144282,71.9572474 244.548607,69.5975638 244.548607,66.6757173 C244.548607,65.777457 244.638709,64.3840533 244.818913,62.4965065 L244.818913,62.4965065 L249.609341,28.5216633 L255.14161,28.5216633 Z M174.182873,40.2510615 C175.981911,40.2510615 177.78095,40.6451757 179.579989,41.4304032 C181.379027,42.2176313 182.70553,43.3299535 183.560499,44.76737 L183.560499,44.76737 L184.101112,41.1273154 L189.902686,41.1273154 L187.069475,61.0130767 C186.754118,63.0356627 186.59694,64.8111771 186.59694,66.3386196 C186.59694,67.9560882 186.843219,69.2824725 187.33878,70.3157719 C187.833341,71.3500715 188.800437,71.8442147 190.240068,71.7992016 L190.240068,71.7992016 L188.350927,76.3825295 C186.505836,76.3825295 185.022155,75.9103927 183.897881,74.9671194 C182.773607,74.0238462 181.783485,72.6534491 180.929518,70.8549281 C179.354733,72.6534491 177.556696,74.0238462 175.532402,74.9671194 C173.508108,75.9103927 171.304611,76.3825295 168.92091,76.3825295 C166.265902,76.3825295 164.029368,75.6863278 162.208304,74.2929241 C160.386239,72.9005207 159.013684,71.0809936 158.09264,68.8323421 C157.169595,66.5856912 156.709073,64.1589881 156.709073,61.5522329 C156.709073,58.1382438 157.417876,54.7892735 158.834481,51.508323 C160.251086,48.2283727 162.285391,45.5325917 164.9404,43.4189793 C167.593406,41.3073676 170.674898,40.2510615 174.182873,40.2510615 Z M230.112248,40.3190812 C233.035561,40.3190812 235.452299,41.1843319 237.364466,42.913833 C239.275632,44.6443343 240.231715,46.9480018 240.231715,49.8228347 C240.231715,52.250538 239.533925,54.2621208 238.140345,55.8565827 C236.745765,57.452045 234.946727,58.6203835 232.74323,59.3615982 C230.538732,60.102813 228.245133,60.4739205 225.861432,60.4739205 C222.577711,60.4739205 219.901679,59.7777188 217.833335,58.3843151 C217.787283,58.7444194 217.742232,59.2045527 217.698182,59.7667156 C217.653131,60.3288785 217.630105,60.9910703 217.630105,61.7552917 C217.630105,64.4510727 218.394971,66.7427367 219.924705,68.6302835 C221.453437,70.5178304 223.522782,71.462104 226.131738,71.462104 C227.794622,71.462104 229.526585,71.1029999 231.326625,70.3827913 C233.124662,69.6645832 234.63237,68.7213099 235.846746,67.5519711 L235.846746,67.5519711 L237.398505,71.7311819 C235.957872,73.170599 234.080745,74.3049276 231.765121,75.1351681 C229.447495,75.966409 227.210961,76.3825295 225.051514,76.3825295 C220.868774,76.3825295 217.619092,75.0581458 215.303468,72.4053773 C212.985842,69.7546093 211.828531,66.3166132 211.828531,62.0913891 C211.828531,58.4973478 212.570371,55.0253419 214.055054,51.6773719 C215.538735,48.329402 217.664143,45.5996111 220.430278,43.486999 C223.196412,41.3753873 226.423068,40.3190812 230.112248,40.3190812 Z M279.767515,40.2510615 C281.565552,40.2510615 283.364591,40.6451757 285.16463,41.4304032 C286.962668,42.2176313 288.290172,43.3299535 289.145141,44.76737 L289.145141,44.76737 L289.684752,41.1273154 L295.487327,41.1273154 L292.653116,61.0130767 C292.337758,63.0356627 292.18058,64.8111771 292.18058,66.3386196 C292.18058,67.9560882 292.427861,69.2824725 292.923422,70.3157719 C293.417983,71.3500715 294.384077,71.8442147 295.82471,71.7992016 L295.82471,71.7992016 L293.935569,76.3825295 C292.090478,76.3825295 290.605796,75.9103927 289.482523,74.9671194 C288.357248,74.0238462 287.368127,72.6534491 286.51416,70.8549281 C284.939375,72.6534491 283.140337,74.0238462 281.117044,74.9671194 C279.09275,75.9103927 276.888252,76.3825295 274.504551,76.3825295 C271.850544,76.3825295 269.614009,75.6863278 267.791945,74.2929241 C265.96988,72.9005207 264.597325,71.0809936 263.676281,68.8323421 C262.754236,66.5856912 262.293714,64.1589881 262.293714,61.5522329 C262.293714,58.1382438 263.001517,54.7892735 264.418122,51.508323 C265.835728,48.2283727 267.870033,45.5325917 270.524041,43.4189793 C273.178048,41.3073676 276.258539,40.2510615 279.767515,40.2510615 Z M174.722484,45.5766044 C172.248681,45.5766044 170.090235,46.3298227 168.246146,47.8352588 C166.401055,49.340695 164.996463,51.2502482 164.029368,53.5649188 C163.061271,55.8795894 162.578724,58.2272696 162.578724,60.6089596 C162.578724,63.5308061 163.320564,65.9675121 164.805247,67.9230786 C166.289929,69.8776449 168.448375,70.8549281 171.281585,70.8549281 C172.226656,70.8549281 173.418006,70.6088568 174.857638,70.1137133 C176.296268,69.6195702 177.589733,68.9573783 178.737033,68.1251372 C179.884333,67.2938964 180.547084,66.405639 180.727289,65.4623657 C180.906492,64.6531313 181.086696,63.395767 181.2669,61.687272 C181.357002,61.2831549 181.446103,60.6319663 181.537206,59.7327057 L181.537206,59.7327057 L181.941665,57.1709636 C182.031767,56.4967682 182.154906,55.6995372 182.313086,54.7782703 C182.470264,53.8570034 182.616429,52.7896942 182.751582,51.5763427 L182.751582,51.5763427 L182.751582,51.239245 C182.751582,50.1159196 182.313086,49.1156298 181.436092,48.2393759 C180.559098,47.363122 179.489886,46.6999299 178.231461,46.2507998 C176.971032,45.8016696 175.802708,45.5766044 174.722484,45.5766044 Z M280.307126,45.5766044 C277.832322,45.5766044 275.673876,46.3298227 273.829786,47.8352588 C271.985697,49.340695 270.580104,51.2502482 269.614009,53.5649188 C268.645912,55.8795894 268.163366,58.2272696 268.163366,60.6089596 C268.163366,63.5308061 268.905206,65.9675121 270.388887,67.9230786 C271.87357,69.8776449 274.033017,70.8549281 276.866227,70.8549281 C277.810297,70.8549281 279.001647,70.6088568 280.442279,70.1137133 C281.880909,69.6195702 283.174375,68.9573783 284.321675,68.1251372 C285.467974,67.2938964 286.130725,66.405639 286.31193,65.4623657 C286.491133,64.6531313 286.671338,63.395767 286.851542,61.687272 C286.940643,61.2831549 287.030745,60.6319663 287.120847,59.7327057 L287.120847,59.7327057 L287.526306,57.1709636 C287.615407,56.4967682 287.738547,55.6995372 287.896726,54.7782703 C288.053904,53.8570034 288.20007,52.7896942 288.335223,51.5763427 L288.335223,51.5763427 L288.335223,51.239245 C288.335223,50.1159196 287.896726,49.1156298 287.019732,48.2393759 C286.142739,47.363122 285.073527,46.6999299 283.815101,46.2507998 C282.555674,45.8016696 281.386349,45.5766044 280.307126,45.5766044 Z M229.235255,44.9694285 C224.4218,44.9694285 220.958876,48.0703269 218.844481,54.2721237 C219.474194,54.8572932 220.474327,55.3174265 221.846883,55.6545242 C223.218437,55.9916219 224.466851,56.1596706 225.591125,56.1596706 C228.020879,56.1596706 230.179325,55.6655274 232.068465,54.6772411 C233.957606,53.6889547 234.901676,52.0934925 234.901676,49.8908544 C234.901676,48.3634118 234.351052,47.1610635 233.248803,46.2848096 C232.146554,45.4075555 230.809038,44.9694285 229.235255,44.9694285 Z" id="Combined-Shape" fill="#67A495"></path>
    </g>
</svg>