<?xml version="1.0" encoding="UTF-8"?>
<svg width="19px" height="35px" viewBox="0 0 19 35" version="1.1" xmlns="http://www.w3.org/2000/svg" xmlns:xlink="http://www.w3.org/1999/xlink">
    <!-- Generator: Sketch 62 (91390) - https://sketch.com -->
    <title>ear_white</title>
    <desc>Created with Sketch.</desc>
    <g id="ear_white" stroke="none" stroke-width="1" fill="none" fill-rule="evenodd">
        <path d="M15.7459226,20.5789735 L15.5279585,20.3712307 C14.0216499,19.0539922 12.0682203,18.2736622 10.0582379,18.1965499 C10.7786976,18.4002644 11.47147,18.6937513 12.066453,19.1604532 C12.4234429,19.4568174 13.3176848,20.2371475 13.7854239,21.1544381 C14.2667122,22.074606 14.310305,23.1156215 14.3002905,23.531107 C14.2737813,24.5749998 13.9126678,25.7029105 13.2917647,26.7105491 L13.280572,26.695587 C12.3468609,28.1797102 11.0909164,28.8892581 9.91508852,28.5635451 C9.12688323,28.3494723 8.32159426,27.6226605 8.32395063,26.4671275 C8.29685239,23.6548319 7.02676972,21.2977288 5.83621449,19.2226033 C5.84976361,19.2249052 5.70602513,18.9878138 5.69483237,18.9728517 C4.60972464,17.0697902 3.63300986,15.3687167 3.55171514,13.4731362 C3.55171514,13.4656552 3.55053696,13.4581742 3.55112605,13.4506931 C3.52697327,12.8884642 3.58352612,12.3164523 3.72490823,11.7133654 C3.80443567,11.4296614 3.88160674,11.1563157 3.99235607,10.8887246 C3.99883608,10.8639796 4.01179611,10.840961 4.01827612,10.8167915 C4.89602342,8.61448841 6.78347466,7.00779117 9.1292396,6.54569307 C11.0437891,6.16703735 13.6988274,6.52497635 14.808677,8.72555308 C15.550344,10.0099901 15.4584456,13.3430812 15.5515222,13.9243005 C15.697617,14.8335346 16.7226374,15.3399435 17.5992065,15.0015703 L18.043382,14.8306573 C18.670176,14.5901131 19.0466059,13.9772433 18.9953549,13.3212136 C18.970613,13.0098872 18.9812167,11.2029283 18.9865185,11.2035038 C18.9865185,11.2035038 18.9924094,11.2046547 18.9558857,10.5037388 C18.9199511,9.80282286 18.5688522,8.43494344 17.9827055,7.26157107 C17.1302892,5.54438462 15.684657,4.27375873 13.8066313,3.57226735 C13.2369791,3.36510008 12.6260906,3.20684731 12.0040093,3.11247111 C10.838785,2.93522801 9.61759699,2.96918042 8.40936899,3.20224359 C4.39706237,3.98430002 1.27840854,6.93873541 0.284020995,10.906564 C-0.694461063,14.8433175 1.04689533,17.9007611 2.59620768,20.5996902 C3.71548276,22.5660528 4.77408135,24.4138697 4.77584862,26.4728822 C4.80353595,29.0187377 6.48303767,31.1790319 8.9790211,31.8534764 C9.17518878,31.9052682 9.38254922,31.9651166 9.59521149,31.9800786 C14.3432942,32.3086689 16.2931892,28.4691689 16.5441425,28.070372 C16.7956848,27.6721504 17.135591,26.7508316 17.3099623,25.8289372 C17.6581157,23.986875 17.212173,21.9704469 15.7459226,20.5789735" id="Fill-1" fill="#FFFFFF"></path>
    </g>
</svg>