<svg xmlns="http://www.w3.org/2000/svg" xmlns:xlink="http://www.w3.org/1999/xlink" version="1.1" x="0px" y="0px" viewBox="0 0 100 125" style="enable-background:new 0 0 100 100;" xml:space="preserve"><path d="M37.8,89.9c-0.2,0-0.5,0-0.7,0c-1.5-0.2-2.8-1.1-3.5-2.4L27,75.6l-2.8,2.8c-0.3,0.3-0.8,0.5-1.2,0.5c-0.5,0-0.9-0.2-1.2-0.5  c-0.3-0.3-0.5-0.8-0.5-1.2c0-0.5,0.2-0.9,0.5-1.2l2.8-2.8l-11.8-6.6c-1.3-0.7-2.2-2-2.4-3.5c-0.2-1.5,0.3-3,1.4-4.1l1.3-1.4  c0.9-0.9,2.1-1.4,3.4-1.4c0.5,0,0.9,0.1,1.4,0.2L29.6,60l15.8-15.8l-0.1,0l2.5-2.5l0,0l10.3-10.3L19.5,19.6c-0.1,0-0.3-0.1-0.4-0.1  c-0.4,0-0.7,0.1-0.9,0.4l-2,1.9c-0.3,0.3-0.5,0.7-0.4,1.1c0,0.4,0.3,0.8,0.7,1l27.2,15.2c0.5,0.3,0.8,0.7,0.9,1.3s-0.1,1.1-0.5,1.5  c-0.3,0.3-0.8,0.5-1.2,0.5c-0.3,0-0.6-0.1-0.8-0.2L14.8,27.1c-1.4-0.8-2.3-2.1-2.4-3.7c-0.2-1.5,0.4-3,1.5-4l1.9-1.9  c0.9-0.9,2.1-1.4,3.4-1.4c0.5,0,0.9,0.1,1.4,0.2l12.3,3.7l3.2-3.2c1.1-1.1,2.5-1.7,4-1.7c1.5,0,2.9,0.6,4,1.7  c1.8,1.8,2.2,4.7,0.9,6.9L61,28.6l16.3-16.3c1.4-1.4,3.3-2.2,5.3-2.2c2,0,3.9,0.8,5.3,2.2s2.2,3.3,2.2,5.3c0,2-0.8,3.9-2.2,5.3  L71.8,39.2L76.6,55c0.8-0.4,1.7-0.7,2.7-0.7c1.5,0,2.9,0.6,4,1.6c2.2,2.2,2.2,5.8,0,8l-3,3l3.8,12.7c0.5,1.7,0.1,3.5-1.2,4.7l-2,2  c-0.9,0.9-2.1,1.4-3.4,1.4c-0.2,0-0.4,0-0.6,0c-1.5-0.2-2.8-1.1-3.6-2.4L58.1,58.1c-0.4-0.7-0.3-1.5,0.3-2.1  c0.3-0.3,0.8-0.5,1.2-0.5c0.6,0,1.2,0.3,1.5,0.9l15.2,27.3c0.2,0.4,0.6,0.6,1,0.7c0.1,0,0.1,0,0.2,0c0.4,0,0.7-0.1,1-0.4l2-2  c0.3-0.4,0.5-0.9,0.3-1.3L69,42L58.7,52.2l-0.1,0.1l-2.5,2.5l0,0l-16,16l3.5,11.6c0.5,1.7,0.1,3.5-1.2,4.8l-1.4,1.3  C40.2,89.4,39,89.9,37.8,89.9L37.8,89.9z M36.6,85.7c0.2,0.4,0.6,0.6,1,0.7c0.1,0,0.1,0,0.2,0c0.4,0,0.7-0.1,0.9-0.4l1.4-1.3  c0.4-0.4,0.5-0.9,0.3-1.3l-4.1-13.6l49.2-49.2c1.6-1.6,1.6-4.2,0-5.8c-0.8-0.8-1.8-1.2-2.9-1.2s-2.1,0.4-2.9,1.2L30.6,63.9  l-13.8-4.2c-0.1,0-0.3-0.1-0.4-0.1c-0.4,0-0.7,0.1-1,0.4l-1.3,1.4c-0.3,0.3-0.4,0.7-0.4,1.1c0.1,0.4,0.3,0.8,0.7,1l12.7,7.1l4.9-4.9  c0.3-0.3,0.8-0.5,1.2-0.5c0.5,0,0.9,0.2,1.2,0.5c0.7,0.7,0.7,1.8,0,2.4l-4.9,4.9L36.6,85.7z M79.1,63.2l1.7-1.7  c0.4-0.4,0.6-1,0.6-1.5c0-0.6-0.2-1.1-0.6-1.5c-0.4-0.4-1-0.6-1.5-0.6s-1.1,0.2-1.5,0.6l-0.1,0.1L79.1,63.2z M41.4,22.6l0.3-0.3  c0.4-0.4,0.6-1,0.6-1.5c0-0.6-0.2-1.1-0.6-1.5c-0.4-0.4-1-0.6-1.5-0.6s-1.1,0.2-1.5,0.6l-1.9,1.9L41.4,22.6z M52.5,85.2  c0.5,0,0.9-0.2,1.2-0.5L64,74.5c0.3-0.3,0.5-0.8,0.5-1.2c0-0.5-0.2-0.9-0.5-1.2c-0.3-0.3-0.8-0.5-1.2-0.5c-0.5,0-0.9,0.2-1.2,0.5  L51.3,82.2c-0.3,0.3-0.5,0.8-0.5,1.2c0,0.5,0.2,0.9,0.5,1.2C51.7,85,52.1,85.2,52.5,85.2C52.5,85.2,52.5,85.2,52.5,85.2z M16.7,49.4  c0.5,0,0.9-0.2,1.2-0.5l10.2-10.2c0.7-0.7,0.7-1.8,0-2.4c-0.3-0.3-0.8-0.5-1.2-0.5c-0.5,0-0.9,0.2-1.2,0.5L15.5,46.4  c-0.7,0.7-0.7,1.8,0,2.4C15.8,49.2,16.3,49.4,16.7,49.4L16.7,49.4z M16.8,41.4c0.5,0,0.9-0.2,1.2-0.5l4.2-4.2  c0.3-0.3,0.5-0.8,0.5-1.2c0-0.5-0.2-0.9-0.5-1.2c-0.3-0.3-0.8-0.5-1.2-0.5c-0.5,0-0.9,0.2-1.2,0.5l-4.2,4.2c-0.7,0.7-0.7,1.8,0,2.4  C15.9,41.3,16.3,41.4,16.8,41.4L16.8,41.4z M60.4,85.1c0.5,0,0.9-0.2,1.2-0.5l4.2-4.2c0.3-0.3,0.5-0.8,0.5-1.2  c0-0.5-0.2-0.9-0.5-1.2c-0.3-0.3-0.8-0.5-1.2-0.5c-0.5,0-0.9,0.2-1.2,0.5l-4.2,4.2c-0.7,0.7-0.7,1.8,0,2.4  C59.5,84.9,60,85.1,60.4,85.1L60.4,85.1z"/><text x="0" y="115" fill="#000000" font-size="5px" font-weight="bold" font-family="'Helvetica Neue', Helvetica, Arial-Unicode, Arial, Sans-serif">Created by Michelle Fosse</text><text x="0" y="120" fill="#000000" font-size="5px" font-weight="bold" font-family="'Helvetica Neue', Helvetica, Arial-Unicode, Arial, Sans-serif">from the Noun Project</text></svg>