<svg xmlns="http://www.w3.org/2000/svg" data-name="Layer 1" viewBox="0 0 100 125" x="0px" y="0px"><title>Artboard 1</title><path d="M64,9.44a8,8,0,0,1,8,8V82.56a8,8,0,0,1-8,8H36a8,8,0,0,1-8-8V17.44a8,8,0,0,1,8-8H64m0-4H36a12,12,0,0,0-12,12V82.56a12,12,0,0,0,12,12H64a12,12,0,0,0,12-12V17.44a12,12,0,0,0-12-12Z"/><circle cx="50" cy="80.88" r="5.7"/><text x="0" y="115" fill="#000000" font-size="5px" font-weight="bold" font-family="'Helvetica Neue', Helvetica, Arial-Unicode, Arial, Sans-serif">Created by Riky Rodríguez</text><text x="0" y="120" fill="#000000" font-size="5px" font-weight="bold" font-family="'Helvetica Neue', Helvetica, Arial-Unicode, Arial, Sans-serif">from the Noun Project</text></svg>