<svg clip-rule="evenodd" fill-rule="evenodd" stroke-linejoin="round" stroke-miterlimit="2" viewBox="0 0 1043 480" xmlns="http://www.w3.org/2000/svg" xmlns:xlink="http://www.w3.org/1999/xlink"><linearGradient id="a" gradientTransform="matrix(1 0 0 -1 0 1.38621)" gradientUnits="userSpaceOnUse" x1="0" x2="1" y1="0" y2="0"><stop offset="0" stop-color="#3ea37f"/><stop offset=".89" stop-color="#64bf7a"/><stop offset="1" stop-color="#64bf7a"/></linearGradient><linearGradient id="b" gradientTransform="matrix(1 0 0 -1 0 2.89637)" gradientUnits="userSpaceOnUse" x1="0" x2="1" y1="0" y2="0"><stop offset="0" stop-color="#3eaf81"/><stop offset=".6" stop-color="#64bf7a"/><stop offset="1" stop-color="#64bf7a"/></linearGradient><linearGradient id="c" gradientTransform="matrix(1 0 0 -1 0 .715413)" gradientUnits="userSpaceOnUse" x1="0" x2="1" y1="0" y2="0"><stop offset="0" stop-color="#3eaf81"/><stop offset=".14" stop-color="#3eaf81"/><stop offset="1" stop-color="#64bf7a"/></linearGradient><g transform="scale(11.5836 5.3268)"><path d="m0 0h90v90h-90z" fill="none"/><g fill-rule="nonzero"><path d="m0-41.425v29.306c0 5.167 1.378 7.749 4.136 7.749 1.166 0 2.234-.329 3.205-.99l1.69 3.729c-1.593 1.086-3.496 1.631-5.71 1.631-3.225 0-5.38-1.272-6.467-3.816-1.088-2.544-1.631-5.7-1.631-9.468v-28.141z" fill="#1d5c7d" transform="matrix(.479607 0 0 1.04294 23.8323 86.0668)"/><path d="m0-26.044c1.611 1.71 2.641 3.729 3.088 6.059.446 2.331.747 5.341.903 9.031.077 2.293.194 4.079.349 5.36.155 1.282.486 2.331.991 3.146.504.816 1.282 1.224 2.33 1.224l-1.747 3.787c-1.205-.039-2.293-.379-3.263-1.019-.972-.642-1.729-1.505-2.273-2.593-1.165 1.165-2.525 2.059-4.078 2.68-1.554.621-3.146.932-4.777.932-3.069 0-5.535-.932-7.4-2.797-1.864-1.864-2.797-4.349-2.797-7.457 0-1.825.476-3.534 1.428-5.127.951-1.593 2.204-2.865 3.758-3.817 1.553-.951 3.224-1.427 5.011-1.427 1.553 0 3 .233 4.34.699s2.495 1.088 3.467 1.865c-.079-2.525-.641-4.622-1.69-6.293-1.049-1.669-2.836-2.505-5.36-2.505-1.36 0-2.7.282-4.02.845-1.321.563-2.564 1.331-3.729 2.301l-1.631-3.496c1.203-1.203 2.689-2.164 4.457-2.884 1.767-.718 3.525-1.077 5.273-1.077 3.3 0 5.757.854 7.37 2.563m-12.09 14.129c-1.281 1.185-1.922 2.593-1.922 4.224 0 1.826.591 3.292 1.777 4.398 1.184 1.108 2.709 1.661 4.573 1.661 1.359 0 2.689-.271 3.991-.816 1.301-.543 2.379-1.32 3.234-2.33l-.175-6.351c-.855-.893-1.845-1.544-2.971-1.951-1.127-.408-2.486-.612-4.079-.612-1.67 0-3.146.592-4.428 1.777" fill="#1d5c7d" transform="matrix(.479607 0 0 1.04294 38.9912 83.3328)"/><path d="m0-41.425v29.306c0 5.167 1.378 7.749 4.137 7.749 1.165 0 2.233-.329 3.204-.99l1.69 3.729c-1.593 1.086-3.496 1.631-5.71 1.631-3.225 0-5.38-1.272-6.467-3.816-1.088-2.544-1.631-5.7-1.631-9.468v-28.141z" fill="#1d5c7d" transform="matrix(.479607 0 0 1.04294 47.2761 86.0668)"/><path d="m0-23.655c2 2.506 3 5.681 3 9.526v2.913h-19.634c0 1.827.368 3.564 1.107 5.215.737 1.651 1.806 2.981 3.204 3.991 1.399 1.011 3.03 1.515 4.894 1.515 1.437 0 2.893-.301 4.37-.903 1.476-.602 2.641-1.428 3.496-2.476l2.039 3.612c-1.049 1.281-2.516 2.272-4.399 2.971-1.884.699-3.739 1.049-5.564 1.049-2.913 0-5.418-.738-7.516-2.214-2.097-1.476-3.691-3.427-4.778-5.855-1.087-2.427-1.631-5.078-1.631-7.953 0-2.719.475-5.224 1.427-7.516s2.389-4.137 4.312-5.535c1.923-1.399 4.263-2.098 7.021-2.098 3.767 0 6.651 1.253 8.652 3.758m-14.304 2.768c-1.437 1.554-2.156 3.515-2.156 5.884h15.032c.039-2.369-.563-4.33-1.806-5.884-1.244-1.553-3.029-2.331-5.36-2.331-2.37 0-4.273.778-5.71 2.331" fill="#1d5c7d" transform="matrix(.479607 0 0 1.04294 63.5813 82.0867)"/><path d="m0-41.425v29.306c0 5.167 1.378 7.749 4.137 7.749 1.165 0 2.233-.329 3.204-.99l1.69 3.729c-1.593 1.086-3.496 1.631-5.71 1.631-3.225 0-5.38-1.272-6.467-3.816-1.088-2.544-1.631-5.7-1.631-9.468v-28.141z" fill="#1d5c7d" transform="matrix(.479607 0 0 1.04294 70.4131 86.0668)"/><path d="m0-26.044c1.611 1.71 2.641 3.729 3.088 6.059.446 2.331.747 5.341.903 9.031.077 2.293.194 4.079.349 5.36.155 1.282.486 2.331.991 3.146.504.816 1.282 1.224 2.33 1.224l-1.748 3.787c-1.204-.039-2.292-.379-3.262-1.019-.972-.642-1.729-1.505-2.273-2.593-1.165 1.165-2.525 2.059-4.078 2.68-1.554.621-3.146.932-4.777.932-3.069 0-5.535-.932-7.4-2.797-1.864-1.864-2.797-4.349-2.797-7.457 0-1.825.476-3.534 1.428-5.127.951-1.593 2.204-2.865 3.758-3.817 1.553-.951 3.224-1.427 5.011-1.427 1.553 0 3 .233 4.34.699s2.495 1.088 3.467 1.865c-.079-2.525-.641-4.622-1.69-6.293-1.049-1.669-2.836-2.505-5.36-2.505-1.36 0-2.7.282-4.02.845-1.321.563-2.564 1.331-3.729 2.301l-1.632-3.496c1.204-1.203 2.69-2.164 4.458-2.884 1.767-.718 3.525-1.077 5.273-1.077 3.3 0 5.757.854 7.37 2.563m-12.09 14.129c-1.282 1.185-1.922 2.593-1.922 4.224 0 1.826.591 3.292 1.777 4.398 1.184 1.108 2.709 1.661 4.573 1.661 1.359 0 2.689-.271 3.991-.816 1.301-.543 2.379-1.32 3.234-2.33l-.175-6.351c-.855-.893-1.845-1.544-2.971-1.951-1.127-.408-2.486-.612-4.079-.612-1.67 0-3.146.592-4.428 1.777" fill="#1d5c7d" transform="matrix(.479607 0 0 1.04294 85.572 83.3328)"/><path d="m0 1.306c.01-.086.04-.167.086-.244.036-.059.074-.113.113-.165-.02-.016-.038-.033-.055-.051-.015-.017-.03-.034-.043-.053.031.037.067.068.105.094.065-.086.132-.168.195-.262.058-.096.077-.199.109-.308.019-.084.09-.148.173-.18.159-.057.323.048.391.196l.01-.005c.028.066.042.14.044.212.004.141-.051.286-.172.373l-.018.013c-.123.081-.272.117-.417.1.054-.007.107-.021.155-.049.029-.018.102-.066.146-.129.045-.063.06-.14.064-.171.01-.078-.003-.166-.036-.248l-.001.001c-.05-.121-.132-.188-.22-.177-.059.007-.125.052-.138.138-.034.209-.152.37-.261.511h.001c-.003.004-.007.008-.009.013-.001 0-.001-.001-.001-.001-.002.002-.003.004-.004.005-.1.13-.19.246-.217.387z" fill="url(#a)" transform="matrix(11.969 0 0 -26.0276 5.08122 59.3801)"/><path d="m.61 2.725c-.342-.127-.575-.44-.607-.816-.031-.373.165-.628.339-.853.126-.164.245-.318.274-.506.038-.232.216-.406.445-.433.018-.002.037-.003.056-.003.188 0 .413.106.539.409.001.001.001.003.002.004l-.013.005c-.082-.182-.285-.314-.481-.244-.102.04-.189.118-.213.221-.039.134-.063.26-.134.378-.126.189-.267.339-.386.536-.057.095-.093.194-.105.299-.01.051-.013.104-.009.161.003.027.006.053.012.079.003.029.008.057.016.086.021.082.055.16.101.23.049.075.114.135.183.19.15.118.342.174.532.155l.027-.003c.183-.025.327-.156.405-.318.025-.052.045-.106.058-.162.001.001.001.001.002.001-.026.127-.076.247-.144.346-.099.145-.244.241-.419.279-.053.011-.109.017-.165.017-.105 0-.212-.02-.315-.058z" fill="url(#b)" transform="matrix(9.75531 0 0 -21.2137 1.90469 61.9252)"/><path d="m-.013.582c-.035-.027-.067-.057-.091-.093-.022-.035-.039-.073-.049-.113-.004-.014-.006-.028-.008-.042.022.106.093.192.192.229.08.03.197.032.26-.059.028-.041.046-.094.052-.15.004-.045.017-.09.037-.131.038-.08.109-.144.199-.157l.013-.001c.093-.009.187.018.261.076.034.027.066.057.09.093.022.035.039.073.049.113.004.014.006.028.008.042-.022-.106-.092-.192-.192-.229-.08-.03-.197-.032-.26.059-.028.041-.046.094-.052.15-.003.045-.017.09-.037.131-.038.08-.109.144-.199.156l-.013.002c-.012.001-.024.002-.035.002-.082 0-.161-.028-.225-.078z" fill="url(#c)" transform="matrix(19.892 0 0 -43.2568 8.31297 34.7364)"/></g></g></svg>