<svg xmlns="http://www.w3.org/2000/svg" xmlns:xlink="http://www.w3.org/1999/xlink" version="1.1" x="0px" y="0px" viewBox="0 0 24 30" enable-background="new 0 0 24 24" xml:space="preserve"><g><path d="M20.51,3.578c0-0.626-0.319-0.943-0.947-0.943l-3.319-0.002V2.088c0-0.003-0.002-0.005-0.002-0.008l0-0.19   c-0.002-0.646-0.313-0.962-0.953-0.964l-1.006-0.002c-0.28,0-0.561,0.001-0.814,0.031c-0.301-0.563-0.817-0.876-1.466-0.88   c-0.647,0-1.17,0.314-1.448,0.854c-0.309-0.003-0.616-0.004-0.925-0.004L8.708,0.926C8.088,0.928,7.76,1.253,7.758,1.866l0,0.214   c0,0.003-0.002,0.005-0.002,0.008v0.545H4.434c-0.618,0-0.945,0.328-0.945,0.947v19.363c0.002,0.669,0.309,0.98,0.965,0.98h15.096   c0.638,0,0.962-0.322,0.962-0.958L20.51,3.578z M8.557,3.039c0-0.002,0.001-0.003,0.001-0.005L8.557,2.73l0.002-0.861   c0-0.076,0.007-0.117,0.004-0.129c0.021-0.005,0.063-0.013,0.146-0.013l0.92-0.002c0.306,0,0.61,0.001,0.935,0.005   c0.198,0,0.483-0.041,0.672-0.396c0.164-0.309,0.415-0.458,0.774-0.458c0.343,0.002,0.59,0.151,0.753,0.457   c0.191,0.354,0.475,0.396,0.689,0.396h0.001c0.276-0.005,0.553-0.006,0.829-0.006l1.004,0.003c0.084,0,0.132,0.005,0.141,0.004   c0.006,0.022,0.014,0.071,0.014,0.162l0.002,0.837l-0.001,0.292c0,0.001,0.001,0.002,0.001,0.003v1.22H8.557V3.039z M19.707,23.11   c-0.021,0.006-0.068,0.014-0.157,0.014H4.454c-0.07,0-0.115-0.004-0.137-0.004c-0.006,0-0.01,0-0.013,0.001   c-0.006-0.025-0.015-0.078-0.015-0.178V3.581c0-0.081,0.008-0.123,0.005-0.134c0.019-0.005,0.06-0.013,0.14-0.013l1.229-0.001   l2.094,0.001v1.212c0,0.221,0.18,0.4,0.4,0.4h7.687c0.221,0,0.4-0.18,0.4-0.4V3.427l3.318,0.008c0.081,0,0.125,0.002,0.136,0.004   c0.005,0.021,0.012,0.063,0.012,0.139l0.001,19.389C19.71,23.052,19.703,23.098,19.707,23.11z"/><path d="M8.023,15.209h7.96c0.221,0,0.4-0.18,0.4-0.4V7.461c0-0.221-0.18-0.4-0.4-0.4h-7.96c-0.221,0-0.4,0.18-0.4,0.4v7.348   C7.623,15.03,7.802,15.209,8.023,15.209z M9.742,14.409c0.138-0.402,0.359-0.736,0.673-1.014c0.438-0.387,0.935-0.584,1.518-0.604   c0.516,0.004,0.964,0.116,1.376,0.392c0.46,0.307,0.773,0.71,0.951,1.226H9.742z M11.14,11.221   c-0.225-0.23-0.345-0.531-0.339-0.848c0.011-0.649,0.551-1.178,1.214-1.178c0.656,0.006,1.188,0.547,1.185,1.207   c-0.003,0.644-0.549,1.187-1.191,1.187h-0.012C11.672,11.586,11.368,11.456,11.14,11.221z M8.423,7.862h7.159v6.547h-0.487   c-0.212-0.802-0.662-1.438-1.343-1.892c-0.253-0.169-0.523-0.294-0.804-0.383c0.614-0.342,1.047-0.992,1.052-1.727   c0.005-1.1-0.883-2.002-1.994-2.012c-1.088,0-1.987,0.882-2.006,1.965c-0.009,0.53,0.192,1.035,0.566,1.419   c0.146,0.151,0.316,0.267,0.495,0.364c-0.427,0.131-0.824,0.341-1.177,0.653c-0.481,0.426-0.81,0.968-0.978,1.613H8.423V7.862z"/><path d="M17.574,16.583H6.425c-0.221,0-0.4,0.18-0.4,0.4s0.18,0.4,0.4,0.4h11.148c0.221,0,0.4-0.18,0.4-0.4   S17.794,16.583,17.574,16.583z"/><path d="M17.566,18.583H6.425c-0.221,0-0.4,0.18-0.4,0.4s0.18,0.4,0.4,0.4h11.141c0.221,0,0.4-0.18,0.4-0.4   S17.787,18.583,17.566,18.583z"/><circle cx="10.4" cy="20.995" r="0.352"/><circle cx="12.002" cy="20.995" r="0.352"/><circle cx="13.6" cy="20.995" r="0.352"/></g><text x="0" y="39" fill="#000000" font-size="5px" font-weight="bold" font-family="'Helvetica Neue', Helvetica, Arial-Unicode, Arial, Sans-serif">Created by Atif Arshad</text><text x="0" y="44" fill="#000000" font-size="5px" font-weight="bold" font-family="'Helvetica Neue', Helvetica, Arial-Unicode, Arial, Sans-serif">from the Noun Project</text></svg>