<?xml version="1.0" encoding="UTF-8" standalone="no"?>
<!DOCTYPE svg PUBLIC "-//W3C//DTD SVG 1.1//EN" "http://www.w3.org/Graphics/SVG/1.1/DTD/svg11.dtd">
<svg width="100%" height="100%" viewBox="0 0 1043 480" version="1.1" xmlns="http://www.w3.org/2000/svg" xmlns:xlink="http://www.w3.org/1999/xlink" xml:space="preserve" xmlns:serif="http://www.serif.com/" style="fill-rule:evenodd;clip-rule:evenodd;stroke-linejoin:round;stroke-miterlimit:2;">
    <g transform="matrix(1,0,0,1,0,-991.716)">
        <g id="Artboard1" transform="matrix(11.5836,0,0,5.3268,0,991.716)">
            <rect x="0" y="0" width="90" height="90" style="fill:none;"/>
            <g transform="matrix(0.479607,0,0,1.04294,23.8323,86.0668)">
                <path d="M0,-41.425L0,-12.119C0,-6.952 1.378,-4.37 4.136,-4.37C5.302,-4.37 6.37,-4.699 7.341,-5.36L9.031,-1.631C7.438,-0.545 5.535,0 3.321,0C0.096,0 -2.059,-1.272 -3.146,-3.816C-4.234,-6.36 -4.777,-9.516 -4.777,-13.284L-4.777,-41.425L0,-41.425Z" style="fill:white;fill-rule:nonzero;"/>
            </g>
            <g transform="matrix(0.479607,0,0,1.04294,38.9912,83.3328)">
                <path d="M0,-26.044C1.611,-24.334 2.641,-22.315 3.088,-19.985C3.534,-17.654 3.835,-14.644 3.991,-10.954C4.068,-8.661 4.185,-6.875 4.34,-5.594C4.495,-4.312 4.826,-3.263 5.331,-2.448C5.835,-1.632 6.613,-1.224 7.661,-1.224L5.914,2.563C4.709,2.524 3.621,2.184 2.651,1.544C1.679,0.902 0.922,0.039 0.378,-1.049C-0.787,0.116 -2.147,1.01 -3.7,1.631C-5.254,2.252 -6.846,2.563 -8.477,2.563C-11.546,2.563 -14.012,1.631 -15.877,-0.234C-17.741,-2.098 -18.674,-4.583 -18.674,-7.691C-18.674,-9.516 -18.198,-11.225 -17.246,-12.818C-16.295,-14.411 -15.042,-15.683 -13.488,-16.635C-11.935,-17.586 -10.264,-18.062 -8.477,-18.062C-6.924,-18.062 -5.477,-17.829 -4.137,-17.363C-2.797,-16.897 -1.642,-16.275 -0.67,-15.498C-0.749,-18.023 -1.311,-20.12 -2.36,-21.791C-3.409,-23.46 -5.196,-24.296 -7.72,-24.296C-9.08,-24.296 -10.42,-24.014 -11.74,-23.451C-13.061,-22.888 -14.304,-22.12 -15.469,-21.15L-17.1,-24.646C-15.897,-25.849 -14.411,-26.81 -12.643,-27.53C-10.876,-28.248 -9.118,-28.607 -7.37,-28.607C-4.07,-28.607 -1.613,-27.753 0,-26.044M-12.09,-11.915C-13.371,-10.73 -14.012,-9.322 -14.012,-7.691C-14.012,-5.865 -13.421,-4.399 -12.235,-3.293C-11.051,-2.185 -9.526,-1.632 -7.662,-1.632C-6.303,-1.632 -4.973,-1.903 -3.671,-2.448C-2.37,-2.991 -1.292,-3.768 -0.437,-4.778L-0.612,-11.129C-1.467,-12.022 -2.457,-12.673 -3.583,-13.08C-4.71,-13.488 -6.069,-13.692 -7.662,-13.692C-9.332,-13.692 -10.808,-13.1 -12.09,-11.915" style="fill:white;fill-rule:nonzero;"/>
            </g>
            <g transform="matrix(0.479607,0,0,1.04294,47.2761,86.0668)">
                <path d="M0,-41.425L0,-12.119C0,-6.952 1.378,-4.37 4.137,-4.37C5.302,-4.37 6.37,-4.699 7.341,-5.36L9.031,-1.631C7.438,-0.545 5.535,0 3.321,0C0.096,0 -2.059,-1.272 -3.146,-3.816C-4.234,-6.36 -4.777,-9.516 -4.777,-13.284L-4.777,-41.425L0,-41.425Z" style="fill:white;fill-rule:nonzero;"/>
            </g>
            <g transform="matrix(0.479607,0,0,1.04294,63.5813,82.0867)">
                <path d="M0,-23.655C2,-21.149 3,-17.974 3,-14.129L3,-11.216L-16.634,-11.216C-16.634,-9.389 -16.266,-7.652 -15.527,-6.001C-14.79,-4.35 -13.721,-3.02 -12.323,-2.01C-10.924,-0.999 -9.293,-0.495 -7.429,-0.495C-5.992,-0.495 -4.536,-0.796 -3.059,-1.398C-1.583,-2 -0.418,-2.826 0.437,-3.874L2.476,-0.262C1.427,1.019 -0.04,2.01 -1.923,2.709C-3.807,3.408 -5.662,3.758 -7.487,3.758C-10.4,3.758 -12.905,3.02 -15.003,1.544C-17.1,0.068 -18.694,-1.883 -19.781,-4.311C-20.868,-6.738 -21.412,-9.389 -21.412,-12.264C-21.412,-14.983 -20.937,-17.488 -19.985,-19.78C-19.033,-22.072 -17.596,-23.917 -15.673,-25.315C-13.75,-26.714 -11.41,-27.413 -8.652,-27.413C-4.885,-27.413 -2.001,-26.16 0,-23.655M-14.304,-20.887C-15.741,-19.333 -16.46,-17.372 -16.46,-15.003L-1.428,-15.003C-1.389,-17.372 -1.991,-19.333 -3.234,-20.887C-4.478,-22.44 -6.263,-23.218 -8.594,-23.218C-10.964,-23.218 -12.867,-22.44 -14.304,-20.887" style="fill:white;fill-rule:nonzero;"/>
            </g>
            <g transform="matrix(0.479607,0,0,1.04294,70.4131,86.0668)">
                <path d="M0,-41.425L0,-12.119C0,-6.952 1.378,-4.37 4.137,-4.37C5.302,-4.37 6.37,-4.699 7.341,-5.36L9.031,-1.631C7.438,-0.545 5.535,0 3.321,0C0.096,0 -2.059,-1.272 -3.146,-3.816C-4.234,-6.36 -4.777,-9.516 -4.777,-13.284L-4.777,-41.425L0,-41.425Z" style="fill:white;fill-rule:nonzero;"/>
            </g>
            <g transform="matrix(0.479607,0,0,1.04294,85.572,83.3328)">
                <path d="M0,-26.044C1.611,-24.334 2.641,-22.315 3.088,-19.985C3.534,-17.654 3.835,-14.644 3.991,-10.954C4.068,-8.661 4.185,-6.875 4.34,-5.594C4.495,-4.312 4.826,-3.263 5.331,-2.448C5.835,-1.632 6.613,-1.224 7.661,-1.224L5.913,2.563C4.709,2.524 3.621,2.184 2.651,1.544C1.679,0.902 0.922,0.039 0.378,-1.049C-0.787,0.116 -2.147,1.01 -3.7,1.631C-5.254,2.252 -6.846,2.563 -8.477,2.563C-11.546,2.563 -14.012,1.631 -15.877,-0.234C-17.741,-2.098 -18.674,-4.583 -18.674,-7.691C-18.674,-9.516 -18.198,-11.225 -17.246,-12.818C-16.295,-14.411 -15.042,-15.683 -13.488,-16.635C-11.935,-17.586 -10.264,-18.062 -8.477,-18.062C-6.924,-18.062 -5.477,-17.829 -4.137,-17.363C-2.797,-16.897 -1.642,-16.275 -0.67,-15.498C-0.749,-18.023 -1.311,-20.12 -2.36,-21.791C-3.409,-23.46 -5.196,-24.296 -7.72,-24.296C-9.08,-24.296 -10.42,-24.014 -11.74,-23.451C-13.061,-22.888 -14.304,-22.12 -15.469,-21.15L-17.101,-24.646C-15.897,-25.849 -14.411,-26.81 -12.643,-27.53C-10.876,-28.248 -9.118,-28.607 -7.37,-28.607C-4.07,-28.607 -1.613,-27.753 0,-26.044M-12.09,-11.915C-13.372,-10.73 -14.012,-9.322 -14.012,-7.691C-14.012,-5.865 -13.421,-4.399 -12.235,-3.293C-11.051,-2.185 -9.526,-1.632 -7.662,-1.632C-6.303,-1.632 -4.973,-1.903 -3.671,-2.448C-2.37,-2.991 -1.292,-3.768 -0.437,-4.778L-0.612,-11.129C-1.467,-12.022 -2.457,-12.673 -3.583,-13.08C-4.71,-13.488 -6.069,-13.692 -7.662,-13.692C-9.332,-13.692 -10.808,-13.1 -12.09,-11.915" style="fill:white;fill-rule:nonzero;"/>
            </g>
            <g transform="matrix(11.969,0,0,-26.0276,5.08122,59.3801)">
                <path d="M0,1.306C0.01,1.22 0.04,1.139 0.086,1.062C0.122,1.003 0.16,0.949 0.199,0.897C0.179,0.881 0.161,0.864 0.144,0.846C0.129,0.829 0.114,0.812 0.101,0.793C0.132,0.83 0.168,0.861 0.206,0.887C0.271,0.801 0.338,0.719 0.401,0.625C0.459,0.529 0.478,0.426 0.51,0.317C0.529,0.233 0.6,0.169 0.683,0.137C0.842,0.08 1.006,0.185 1.074,0.333L1.084,0.328C1.112,0.394 1.126,0.468 1.128,0.54C1.132,0.681 1.077,0.826 0.956,0.913L0.938,0.926C0.815,1.007 0.666,1.043 0.521,1.026C0.575,1.019 0.628,1.005 0.676,0.977C0.705,0.959 0.778,0.911 0.822,0.848C0.867,0.785 0.882,0.708 0.886,0.677C0.896,0.599 0.883,0.511 0.85,0.429L0.849,0.43C0.799,0.309 0.717,0.242 0.629,0.253C0.57,0.26 0.504,0.305 0.491,0.391C0.457,0.6 0.339,0.761 0.23,0.902C0.231,0.902 0.231,0.902 0.231,0.902C0.228,0.906 0.224,0.91 0.222,0.915C0.221,0.915 0.221,0.914 0.221,0.914C0.219,0.916 0.218,0.918 0.217,0.919C0.117,1.049 0.027,1.165 0,1.306Z" style="fill:white;fill-rule:nonzero;"/>
            </g>
            <g transform="matrix(9.75531,0,0,-21.2137,1.90469,61.9252)">
                <path d="M0.61,2.725C0.268,2.598 0.035,2.285 0.003,1.909C-0.028,1.536 0.168,1.281 0.342,1.056C0.468,0.892 0.587,0.738 0.616,0.55C0.654,0.318 0.832,0.144 1.061,0.117C1.079,0.115 1.098,0.114 1.117,0.114C1.305,0.114 1.53,0.22 1.656,0.523C1.657,0.524 1.657,0.526 1.658,0.527L1.645,0.532C1.563,0.35 1.36,0.218 1.164,0.288C1.062,0.328 0.975,0.406 0.951,0.509C0.912,0.643 0.888,0.769 0.817,0.887C0.691,1.076 0.55,1.226 0.431,1.423C0.374,1.518 0.338,1.617 0.326,1.722C0.316,1.773 0.313,1.826 0.317,1.883C0.32,1.91 0.323,1.936 0.329,1.962C0.332,1.991 0.337,2.019 0.345,2.048C0.366,2.13 0.4,2.208 0.446,2.278C0.495,2.353 0.56,2.413 0.629,2.468C0.779,2.586 0.971,2.642 1.161,2.623L1.188,2.62C1.371,2.595 1.515,2.464 1.593,2.302C1.618,2.25 1.638,2.196 1.651,2.14C1.652,2.141 1.652,2.141 1.653,2.141C1.627,2.268 1.577,2.388 1.509,2.487C1.41,2.632 1.265,2.728 1.09,2.766C1.037,2.777 0.981,2.783 0.925,2.783C0.82,2.783 0.713,2.763 0.61,2.725Z" style="fill:white;fill-rule:nonzero;"/>
            </g>
            <g transform="matrix(19.892,0,0,-43.2568,8.31297,34.7364)">
                <path d="M-0.013,0.582C-0.048,0.555 -0.08,0.525 -0.104,0.489C-0.126,0.454 -0.143,0.416 -0.153,0.376C-0.157,0.362 -0.159,0.348 -0.161,0.334C-0.139,0.44 -0.068,0.526 0.031,0.563C0.111,0.593 0.228,0.595 0.291,0.504C0.319,0.463 0.337,0.41 0.343,0.354C0.347,0.309 0.36,0.264 0.38,0.223C0.418,0.143 0.489,0.079 0.579,0.066L0.592,0.065C0.685,0.056 0.779,0.083 0.853,0.141C0.887,0.168 0.919,0.198 0.943,0.234C0.965,0.269 0.982,0.307 0.992,0.347C0.996,0.361 0.998,0.375 1,0.389C0.978,0.283 0.908,0.197 0.808,0.16C0.728,0.13 0.611,0.128 0.548,0.219C0.52,0.26 0.502,0.313 0.496,0.369L0.496,0.369C0.493,0.414 0.479,0.459 0.459,0.5C0.421,0.58 0.35,0.644 0.26,0.656L0.247,0.658C0.235,0.659 0.223,0.66 0.212,0.66C0.13,0.66 0.051,0.632 -0.013,0.582Z" style="fill:white;fill-rule:nonzero;"/>
            </g>
        </g>
    </g>
</svg>
